{"glyphs":{"0":{"ha":772,"x_min":0,"x_max":0,"o":"m 58 490 b 58 490 58 490 58 490 b 94 774 58 608 70 703 b 202 940 118 846 154 901 b 382 998 250 979 309 998 b 382 998 382 998 382 998 b 522 966 435 998 482 987 b 622 873 562 945 595 913 b 684 726 648 833 669 783 b 706 490 699 667 706 589 b 706 490 706 490 706 490 b 670 208 706 374 694 279 b 563 42 646 136 610 81 b 382 -17 515 3 454 -17 b 382 -17 382 -17 382 -17 b 156 86 286 -17 211 18 b 156 86 156 86 156 86 b 58 490 90 169 58 304 m 183 490 b 183 490 183 490 183 490 b 241 165 183 327 202 218 b 382 83 279 111 326 83 b 382 83 382 83 382 83 b 524 165 438 83 485 111 b 581 490 562 219 581 328 b 581 490 581 490 581 490 b 524 817 581 654 562 763 b 380 897 485 870 437 897 b 380 897 380 897 380 897 b 246 826 324 897 279 873 b 246 826 246 826 246 826 b 183 490 204 766 183 654 "},"1":{"ha":772,"x_min":0,"x_max":0,"o":"m 517 998 b 517 0 517 998 517 0 b 395 0 517 0 395 0 b 395 778 395 0 395 778 b 280 694 366 750 328 722 b 151 631 232 666 189 645 b 151 631 151 631 151 631 b 151 749 151 631 151 749 b 330 865 220 781 279 820 b 439 998 381 911 418 956 b 439 998 439 998 439 998 b 517 998 439 998 517 998 "},"2":{"ha":772,"x_min":0,"x_max":0,"o":"m 212 117 b 699 117 212 117 699 117 b 699 0 699 117 699 0 b 42 0 699 0 42 0 b 56 85 41 29 46 58 b 56 85 56 85 56 85 b 137 217 73 130 100 174 b 296 368 174 260 227 311 b 296 368 296 368 296 368 b 515 578 404 456 477 526 b 572 725 553 630 572 679 b 572 725 572 725 572 725 b 521 848 572 773 555 814 b 385 897 486 881 441 897 b 385 897 385 897 385 897 b 244 844 326 897 279 880 b 191 698 209 809 191 760 b 191 698 191 698 191 698 b 65 711 191 698 65 711 b 162 925 74 804 106 876 b 388 998 218 974 294 998 b 388 998 388 998 388 998 b 614 919 484 998 559 972 b 698 722 670 866 698 800 b 698 722 698 722 698 722 b 673 605 698 682 690 644 b 593 484 657 566 630 526 b 404 309 555 441 492 382 b 404 309 404 309 404 309 b 263 184 331 247 284 205 b 212 117 242 161 225 140 b 212 117 212 117 212 117 "},"3":{"ha":772,"x_min":0,"x_max":0,"o":"m 58 262 b 58 262 58 262 58 262 b 180 279 58 262 180 279 b 252 130 195 210 218 160 b 375 83 286 99 327 83 b 375 83 375 83 375 83 b 521 143 433 83 481 103 b 580 291 560 183 580 232 b 580 291 580 291 580 291 b 525 430 580 347 562 393 b 385 484 488 466 441 484 b 385 484 385 484 385 484 b 299 471 362 484 334 479 b 299 471 299 471 299 471 b 313 578 299 471 313 578 b 332 576 321 577 328 576 b 332 576 332 576 332 576 b 473 617 385 576 431 590 b 535 743 514 644 535 686 b 535 743 535 743 535 743 b 490 854 535 787 520 825 b 372 898 459 883 420 898 b 372 898 372 898 372 898 b 254 853 325 898 286 883 b 193 719 222 823 201 779 b 193 719 193 719 193 719 b 71 741 193 719 71 741 b 172 931 85 823 119 886 b 370 998 225 976 291 998 b 370 998 370 998 370 998 b 519 964 424 998 474 987 b 625 868 565 940 600 908 b 661 740 648 828 661 785 b 661 740 661 740 661 740 b 626 623 661 697 649 658 b 524 538 603 587 569 559 b 524 538 524 538 524 538 b 661 454 583 525 628 497 b 709 294 693 412 709 358 b 709 294 709 294 709 294 b 614 73 709 207 677 134 b 374 -18 551 13 471 -18 b 374 -18 374 -18 374 -18 b 157 60 287 -18 215 8 b 58 262 100 113 66 180 "},"4":{"ha":772,"x_min":0,"x_max":0,"o":"m 571 0 b 449 0 571 0 449 0 b 449 238 449 0 449 238 b 18 238 449 238 18 238 b 18 350 18 238 18 350 b 471 994 18 350 471 994 b 571 994 471 994 571 994 b 571 350 571 994 571 350 b 705 350 571 350 705 350 b 705 238 705 350 705 238 b 571 238 705 238 571 238 b 571 0 571 238 571 0 m 138 350 b 449 350 138 350 449 350 b 449 798 449 350 449 798 b 138 350 449 798 138 350 "},"5":{"ha":772,"x_min":0,"x_max":0,"o":"m 58 260 b 58 260 58 260 58 260 b 186 271 58 260 186 271 b 252 131 195 209 218 162 b 377 83 287 99 328 83 b 377 83 377 83 377 83 b 526 150 436 83 486 106 b 587 326 567 194 587 253 b 587 326 587 326 587 326 b 529 491 587 396 568 451 b 375 551 490 531 438 551 b 375 551 375 551 375 551 b 269 525 336 551 300 543 b 194 455 237 507 212 484 b 194 455 194 455 194 455 b 79 470 194 455 79 470 b 176 981 79 470 176 981 b 670 981 176 981 670 981 b 670 864 670 981 670 864 b 273 864 670 864 273 864 b 220 597 273 864 220 597 b 408 659 279 638 342 659 b 408 659 408 659 408 659 b 627 569 494 659 568 629 b 717 337 687 509 717 431 b 717 337 717 337 717 337 b 638 104 717 247 690 170 b 638 104 638 104 638 104 b 377 -17 574 23 488 -17 b 377 -17 377 -17 377 -17 b 156 59 287 -17 213 8 b 58 260 98 110 66 177 "},"6":{"ha":772,"x_min":0,"x_max":0,"o":"m 691 751 b 691 751 691 751 691 751 b 570 741 691 751 570 741 b 524 846 559 789 543 824 b 524 846 524 846 524 846 b 401 898 490 880 450 898 b 401 898 401 898 401 898 b 299 865 363 898 328 887 b 299 865 299 865 299 865 b 208 743 260 838 231 796 b 174 513 186 689 174 612 b 174 513 174 513 174 513 b 281 612 203 557 239 591 b 415 645 324 634 368 645 b 415 645 415 645 415 645 b 623 555 496 645 566 615 b 709 323 680 495 709 418 b 709 323 709 323 709 323 b 669 149 709 260 695 203 b 557 26 642 96 604 54 b 397 -17 511 -3 457 -17 b 397 -17 397 -17 397 -17 b 149 96 296 -17 213 20 b 52 465 84 170 52 294 b 52 465 52 465 52 465 b 159 884 52 657 87 797 b 159 884 159 884 159 884 b 409 998 220 960 304 998 b 409 998 409 998 409 998 b 602 932 487 998 551 977 b 691 751 651 888 681 828 m 193 322 b 193 322 193 322 193 322 b 220 201 193 280 201 240 b 294 114 237 163 262 134 b 395 83 326 94 360 83 b 395 83 395 83 395 83 b 528 146 447 83 491 104 b 584 315 566 187 584 244 b 584 315 584 315 584 315 b 529 478 584 384 566 438 b 391 537 492 517 446 537 b 391 537 391 537 391 537 b 250 478 336 537 289 517 b 193 322 212 438 193 387 "},"7":{"ha":772,"x_min":0,"x_max":0,"o":"m 553 864 b 66 864 553 864 66 864 b 66 981 66 864 66 981 b 709 981 66 981 709 981 b 709 886 709 981 709 886 b 522 618 646 819 583 730 b 377 273 459 506 411 391 b 377 273 377 273 377 273 b 330 0 353 190 337 99 b 330 0 330 0 330 0 b 205 0 330 0 205 0 b 251 283 206 78 222 173 b 378 604 280 394 323 501 b 553 864 433 707 491 793 b 553 864 553 864 553 864 "},"8":{"ha":772,"x_min":0,"x_max":0,"o":"m 245 539 b 245 539 245 539 245 539 b 133 618 195 557 157 584 b 96 742 109 653 96 694 b 96 742 96 742 96 742 b 174 924 96 814 122 875 b 382 998 227 974 296 998 b 382 998 382 998 382 998 b 591 923 469 998 538 973 b 671 739 644 872 671 811 b 671 739 671 739 671 739 b 635 618 671 692 659 652 b 524 539 610 584 574 557 b 524 539 524 539 524 539 b 664 443 585 519 632 487 b 711 284 696 399 711 346 b 711 284 711 284 711 284 b 621 70 711 199 682 127 b 384 -17 561 12 482 -17 b 384 -17 384 -17 384 -17 b 146 71 286 -17 207 12 b 56 288 86 128 56 201 b 56 288 56 288 56 288 b 106 450 56 352 73 406 b 245 539 138 494 185 524 m 221 746 b 221 746 221 746 221 746 b 267 631 221 699 236 661 b 385 586 297 601 336 586 b 385 586 385 586 385 586 b 500 631 431 586 470 601 b 545 739 530 660 545 696 b 545 739 545 739 545 739 b 499 852 545 784 530 822 b 383 898 468 883 429 898 b 383 898 383 898 383 898 b 267 853 336 898 298 883 b 221 746 237 823 221 787 m 182 287 b 182 287 182 287 182 287 b 207 186 182 252 190 218 b 280 111 223 153 248 128 b 385 83 313 92 348 83 b 385 83 385 83 385 83 b 530 140 444 83 492 102 b 587 283 568 177 587 225 b 587 283 587 283 587 283 b 528 429 587 342 567 390 b 381 486 489 467 440 486 b 381 486 381 486 381 486 b 239 429 323 486 276 467 b 182 287 201 391 182 344 "},"9":{"ha":772,"x_min":0,"x_max":0,"o":"m 76 230 b 76 230 76 230 76 230 b 193 241 76 230 193 241 b 250 121 203 186 222 146 b 358 83 278 96 314 83 b 358 83 358 83 358 83 b 457 109 395 83 429 92 b 526 178 485 126 508 149 b 572 294 545 207 559 245 b 590 444 584 343 590 393 b 590 444 590 444 590 444 b 589 468 590 449 590 457 b 589 468 589 468 589 468 b 490 374 565 429 532 397 b 352 337 447 349 401 337 b 352 337 352 337 352 337 b 143 427 270 337 200 367 b 58 663 86 486 58 565 b 58 663 58 663 58 663 b 147 906 58 764 87 844 b 370 998 206 968 281 998 b 370 998 370 998 370 998 b 548 946 435 998 494 981 b 670 798 602 911 642 862 b 711 517 698 733 711 640 b 711 517 711 517 711 517 b 670 214 711 391 698 290 b 547 42 642 139 602 81 b 355 -17 492 3 429 -17 b 355 -17 355 -17 355 -17 b 165 48 277 -17 214 5 b 76 230 115 91 86 152 m 576 669 b 576 669 576 669 576 669 b 520 836 576 739 557 794 b 385 897 483 877 437 897 b 385 897 385 897 385 897 b 243 831 331 897 283 875 b 183 659 203 787 183 729 b 183 659 183 659 183 659 b 241 505 183 595 202 544 b 382 445 279 465 326 445 b 382 445 382 445 382 445 b 522 505 438 445 485 465 b 576 669 557 544 576 599 "},"\u0000":{"ha":310,"x_min":0,"x_max":0,"o":"m 14 458 b 296 458 14 458 296 458 b 296 0 296 458 296 0 b 14 0 296 0 14 0 b 14 458 14 0 14 458 m 46 33 b 263 33 46 33 263 33 b 263 425 263 33 263 425 b 46 425 263 425 46 425 b 46 33 46 425 46 33 "}," ":{"ha":386,"x_min":0,"x_max":0,"o":""},"!":{"ha":386,"x_min":0,"x_max":0,"o":"m 235 247 b 157 247 235 247 157 247 b 119 774 157 247 119 774 b 119 994 119 774 119 994 b 271 994 119 994 271 994 b 271 774 271 994 271 774 b 235 247 271 774 235 247 m 265 0 b 125 0 265 0 125 0 b 125 139 125 0 125 139 b 265 139 125 139 265 139 b 265 0 265 139 265 0 "},"\"":{"ha":493,"x_min":0,"x_max":0,"o":"m 172 642 b 98 642 172 642 98 642 b 64 831 98 642 64 831 b 64 994 64 831 64 994 b 203 994 64 994 203 994 b 203 831 203 994 203 831 b 172 642 203 831 172 642 m 395 642 b 322 642 395 642 322 642 b 289 831 322 642 289 831 b 289 994 289 831 289 994 b 428 994 289 994 428 994 b 428 831 428 994 428 831 b 395 642 428 831 395 642 "},"#":{"ha":772,"x_min":0,"x_max":0,"o":"m 172 -17 b 70 -17 172 -17 70 -17 b 129 272 70 -17 129 272 b 14 272 129 272 14 272 b 14 373 14 272 14 373 b 149 373 14 373 149 373 b 199 619 149 373 199 619 b 14 619 199 619 14 619 b 14 720 14 619 14 720 b 220 720 14 720 220 720 b 279 1011 220 720 279 1011 b 380 1011 279 1011 380 1011 b 321 720 380 1011 321 720 b 535 720 321 720 535 720 b 594 1011 535 720 594 1011 b 696 1011 594 1011 696 1011 b 637 720 696 1011 637 720 b 755 720 637 720 755 720 b 755 619 755 720 755 619 b 617 619 755 619 617 619 b 566 373 617 619 566 373 b 755 373 566 373 755 373 b 755 272 755 373 755 272 b 546 272 755 272 546 272 b 487 -17 546 272 487 -17 b 385 -17 487 -17 385 -17 b 444 272 385 -17 444 272 b 231 272 444 272 231 272 b 172 -17 231 272 172 -17 m 301 619 b 251 373 301 619 251 373 b 464 373 251 373 464 373 b 515 619 464 373 515 619 b 301 619 515 619 301 619 "},"$":{"ha":772,"x_min":0,"x_max":0,"o":"m 418 -143 b 346 -143 418 -143 346 -143 b 346 -21 346 -143 346 -21 b 197 20 285 -14 235 1 b 98 115 159 40 126 71 b 50 276 71 159 54 213 b 50 276 50 276 50 276 b 172 299 50 276 172 299 b 222 155 182 233 199 185 b 222 155 222 155 222 155 b 346 82 257 111 298 87 b 346 82 346 82 346 82 b 346 471 346 82 346 471 b 192 529 296 480 244 500 b 192 529 192 529 192 529 b 102 619 153 551 123 581 b 71 750 81 658 71 701 b 71 750 71 750 71 750 b 163 961 71 837 101 907 b 163 961 163 961 163 961 b 346 1027 204 997 265 1019 b 346 1027 346 1027 346 1027 b 346 1086 346 1027 346 1086 b 418 1086 346 1086 418 1086 b 418 1027 418 1086 418 1027 b 587 965 489 1021 545 1000 b 587 965 587 965 587 965 b 683 783 640 921 672 860 b 683 783 683 783 683 783 b 557 764 683 783 557 764 b 512 874 549 812 534 848 b 418 924 489 899 458 916 b 418 924 418 924 418 924 b 418 572 418 924 418 572 b 540 536 479 557 520 545 b 540 536 540 536 540 536 b 633 475 578 519 609 499 b 688 390 656 452 675 423 b 707 283 701 357 707 321 b 707 283 707 283 707 283 b 627 71 707 198 680 127 b 418 -20 573 15 503 -16 b 418 -20 418 -20 418 -20 b 418 -143 418 -20 418 -143 m 346 588 b 346 926 346 588 346 926 b 234 869 298 918 261 899 b 193 760 206 838 193 802 b 193 760 193 760 193 760 b 228 655 193 718 204 683 b 346 588 251 627 290 605 b 346 588 346 588 346 588 m 418 454 b 418 82 418 454 418 82 b 536 144 465 88 505 109 b 582 275 566 179 582 222 b 582 275 582 275 582 275 b 549 382 582 319 571 355 b 418 454 527 408 484 433 b 418 454 418 454 418 454 "},"%":{"ha":1235,"x_min":0,"x_max":0,"o":"m 81 755 b 81 755 81 755 81 755 b 134 937 81 827 98 887 b 290 1011 170 986 222 1011 b 290 1011 290 1011 290 1011 b 445 945 352 1011 404 989 b 506 748 486 900 506 834 b 506 748 506 748 506 748 b 444 554 506 664 486 600 b 291 486 403 509 351 486 b 291 486 291 486 291 486 b 141 553 231 486 181 508 b 81 755 101 597 81 665 m 293 927 b 293 927 293 927 293 927 b 218 888 262 927 237 914 b 187 743 197 861 187 813 b 187 743 187 743 187 743 b 218 609 187 680 197 635 b 293 570 238 583 263 570 b 293 570 293 570 293 570 b 370 609 323 570 349 583 b 399 753 389 635 399 683 b 399 753 399 753 399 753 b 369 888 399 817 389 862 b 293 927 349 914 323 927 m 395 -37 b 294 -37 395 -37 294 -37 b 838 1011 294 -37 838 1011 b 937 1011 838 1011 937 1011 b 395 -37 937 1011 395 -37 m 724 233 b 724 233 724 233 724 233 b 777 415 724 304 741 366 b 933 489 813 465 865 489 b 933 489 933 489 933 489 b 1088 422 996 489 1047 467 b 1149 226 1129 378 1149 312 b 1149 226 1149 226 1149 226 b 1088 32 1149 142 1129 77 b 934 -37 1046 -14 995 -37 b 934 -37 934 -37 934 -37 b 784 31 873 -37 824 -14 b 724 233 744 76 724 143 m 937 405 b 937 405 937 405 937 405 b 861 366 906 405 880 392 b 830 221 840 339 830 291 b 830 221 830 221 830 221 b 861 87 830 158 840 113 b 936 47 881 60 906 47 b 936 47 936 47 936 47 b 1013 87 967 47 993 60 b 1043 231 1033 113 1043 161 b 1043 231 1043 231 1043 231 b 1013 366 1043 295 1033 340 b 937 405 992 392 967 405 "},"&":{"ha":926,"x_min":0,"x_max":0,"o":"m 660 117 b 660 117 660 117 660 117 b 528 17 620 73 576 39 b 374 -17 481 -5 429 -17 b 374 -17 374 -17 374 -17 b 132 86 273 -17 192 18 b 132 86 132 86 132 86 b 60 274 84 142 60 205 b 60 274 60 274 60 274 b 119 441 60 336 79 391 b 296 571 159 490 218 534 b 296 571 296 571 296 571 b 207 696 252 623 222 665 b 184 789 192 728 184 760 b 184 789 184 789 184 789 b 255 945 184 849 208 901 b 431 1011 302 989 360 1011 b 431 1011 431 1011 431 1011 b 598 949 499 1011 555 990 b 663 799 641 907 663 857 b 663 799 663 799 663 799 b 475 557 663 705 600 624 b 475 557 475 557 475 557 b 653 330 475 557 653 330 b 701 468 673 370 689 416 b 701 468 701 468 701 468 b 827 441 701 468 827 441 b 739 227 806 354 777 283 b 739 227 739 227 739 227 b 895 74 785 166 837 115 b 895 74 895 74 895 74 b 812 -23 895 74 812 -23 b 660 117 763 9 712 56 m 357 699 b 412 635 357 699 412 635 b 515 718 465 667 499 694 b 538 795 530 741 538 767 b 538 795 538 795 538 795 b 506 879 538 829 527 857 b 425 911 484 900 457 911 b 425 911 425 911 425 911 b 343 879 392 911 365 900 b 310 801 321 858 310 831 b 310 801 310 801 310 801 b 322 753 310 785 314 770 b 357 699 330 736 342 718 b 357 699 357 699 357 699 m 583 214 b 583 214 583 214 583 214 b 359 491 583 214 359 491 b 226 382 294 452 249 415 b 191 281 203 348 191 315 b 191 281 191 281 191 281 b 239 156 191 241 208 199 b 376 91 271 113 317 91 b 376 91 376 91 376 91 b 490 125 412 91 450 102 b 583 214 528 148 559 178 "},"'":{"ha":265,"x_min":0,"x_max":0,"o":"m 168 642 b 92 642 168 642 92 642 b 61 828 92 642 61 828 b 61 994 61 828 61 994 b 200 994 61 994 200 994 b 200 828 200 994 200 828 b 168 642 200 828 168 642 "},"(":{"ha":463,"x_min":0,"x_max":0,"o":"m 412 -292 b 325 -292 412 -292 325 -292 b 154 6 258 -208 201 -108 b 84 360 107 120 84 238 b 84 360 84 360 84 360 b 136 669 84 468 102 571 b 136 669 136 669 136 669 b 325 1011 177 784 240 898 b 325 1011 325 1011 325 1011 b 412 1011 325 1011 412 1011 b 304 810 357 917 321 850 b 304 810 304 810 304 810 b 239 614 276 747 254 682 b 239 614 239 614 239 614 b 210 359 219 530 210 445 b 210 359 210 359 210 359 b 412 -292 210 142 277 -75 b 412 -292 412 -292 412 -292 "},")":{"ha":463,"x_min":0,"x_max":0,"o":"m 172 -292 b 172 -292 172 -292 172 -292 b 84 -292 172 -292 84 -292 b 287 359 219 -75 287 142 b 287 359 287 359 287 359 b 258 612 287 444 277 529 b 258 612 258 612 258 612 b 193 808 242 680 221 745 b 193 808 193 808 193 808 b 84 1011 176 848 139 916 b 84 1011 84 1011 84 1011 b 172 1011 84 1011 172 1011 b 360 669 256 898 319 784 b 360 669 360 669 360 669 b 412 360 395 571 412 468 b 412 360 412 360 412 360 b 342 6 412 238 389 120 b 172 -292 296 -108 239 -208 "},"*":{"ha":541,"x_min":0,"x_max":0,"o":"m 43 812 b 43 812 43 812 43 812 b 75 908 43 812 75 908 b 231 842 146 883 199 861 b 231 842 231 842 231 842 b 218 1011 222 924 218 981 b 218 1011 218 1011 218 1011 b 316 1011 218 1011 316 1011 b 300 843 315 966 309 910 b 300 843 300 843 300 843 b 460 908 347 867 400 888 b 460 908 460 908 460 908 b 492 812 460 908 492 812 b 323 774 434 793 378 780 b 323 774 323 774 323 774 b 439 646 351 750 389 707 b 439 646 439 646 439 646 b 358 588 439 646 358 588 b 265 734 332 624 301 672 b 265 734 265 734 265 734 b 177 588 232 670 202 621 b 177 588 177 588 177 588 b 97 646 177 588 97 646 b 210 774 149 710 187 753 b 210 774 210 774 210 774 b 43 812 151 785 96 798 "},"+":{"ha":811,"x_min":0,"x_max":0,"o":"m 463 161 b 348 161 463 161 348 161 b 348 433 348 161 348 433 b 77 433 348 433 77 433 b 77 547 77 433 77 547 b 348 547 77 547 348 547 b 348 818 348 547 348 818 b 463 818 348 818 463 818 b 463 547 463 818 463 547 b 734 547 463 547 734 547 b 734 433 734 547 734 433 b 463 433 734 433 463 433 b 463 161 463 433 463 161 "},",":{"ha":386,"x_min":0,"x_max":0,"o":"m 193 0 b 123 0 193 0 123 0 b 123 139 123 0 123 139 b 262 139 123 139 262 139 b 262 0 262 139 262 0 b 235 -123 262 -51 254 -92 b 149 -197 217 -155 189 -180 b 149 -197 149 -197 149 -197 b 115 -144 149 -197 115 -144 b 172 -94 141 -133 160 -117 b 193 0 184 -73 191 -41 b 193 0 193 0 193 0 "},"-":{"ha":463,"x_min":0,"x_max":0,"o":"m 419 298 b 44 298 419 298 44 298 b 44 421 44 298 44 421 b 419 421 44 421 419 421 b 419 298 419 421 419 298 "},".":{"ha":386,"x_min":0,"x_max":0,"o":"m 265 0 b 126 0 265 0 126 0 b 126 139 126 0 126 139 b 265 139 126 139 265 139 b 265 0 265 139 265 0 "},"/":{"ha":386,"x_min":0,"x_max":0,"o":"m 98 -17 b 0 -17 98 -17 0 -17 b 288 1011 0 -17 288 1011 b 386 1011 288 1011 386 1011 b 98 -17 386 1011 98 -17 "},":":{"ha":386,"x_min":0,"x_max":0,"o":"m 264 581 b 125 581 264 581 125 581 b 125 720 125 581 125 720 b 264 720 125 720 264 720 b 264 581 264 720 264 581 m 264 0 b 125 0 264 0 125 0 b 125 139 125 0 125 139 b 264 139 125 139 264 139 b 264 0 264 139 264 0 "},";":{"ha":386,"x_min":0,"x_max":0,"o":"m 262 581 b 123 581 262 581 123 581 b 123 720 123 581 123 720 b 262 720 123 720 262 720 b 262 581 262 720 262 581 m 193 0 b 123 0 193 0 123 0 b 123 139 123 0 123 139 b 262 139 123 139 262 139 b 262 0 262 139 262 0 b 235 -123 262 -51 254 -92 b 149 -197 217 -155 189 -180 b 149 -197 149 -197 149 -197 b 115 -144 149 -197 115 -144 b 172 -94 141 -133 160 -117 b 193 0 184 -73 191 -41 b 193 0 193 0 193 0 "},"<":{"ha":811,"x_min":0,"x_max":0,"o":"m 734 153 b 76 435 734 153 76 435 b 76 549 76 435 76 549 b 734 827 76 549 734 827 b 734 705 734 827 734 705 b 212 491 734 705 212 491 b 734 275 212 491 734 275 b 734 153 734 275 734 153 "},"=":{"ha":811,"x_min":0,"x_max":0,"o":"m 734 699 b 734 585 734 699 734 585 b 77 585 734 585 77 585 b 77 699 77 585 77 699 b 734 699 77 699 734 699 m 734 397 b 734 283 734 397 734 283 b 77 283 734 283 77 283 b 77 397 77 283 77 397 b 734 397 77 397 734 397 "},">":{"ha":811,"x_min":0,"x_max":0,"o":"m 734 549 b 734 435 734 549 734 435 b 76 153 734 435 76 153 b 76 275 76 153 76 275 b 597 491 76 275 597 491 b 76 705 597 491 76 705 b 76 827 76 705 76 827 b 734 549 76 827 734 549 "},"?":{"ha":772,"x_min":0,"x_max":0,"o":"m 437 245 b 320 245 437 245 320 245 b 319 281 319 261 319 273 b 319 281 319 281 319 281 b 340 406 319 330 326 371 b 340 406 340 406 340 406 b 388 485 350 432 366 458 b 388 485 388 485 388 485 b 476 570 404 505 433 533 b 558 659 518 608 545 637 b 577 732 571 682 577 705 b 577 732 577 732 577 732 b 522 857 577 779 559 821 b 385 911 484 893 439 911 b 385 911 385 911 385 911 b 255 862 333 911 290 895 b 186 709 220 829 197 779 b 186 709 186 709 186 709 b 61 724 186 709 61 724 b 162 937 73 817 106 888 b 383 1011 218 987 292 1011 b 383 1011 383 1011 383 1011 b 616 932 480 1011 558 985 b 703 740 673 879 703 815 b 703 740 703 740 703 740 b 672 620 703 696 692 656 b 553 486 652 583 612 538 b 553 486 553 486 553 486 b 475 408 513 451 487 425 b 448 351 463 391 454 372 b 437 245 441 329 438 294 b 437 245 437 245 437 245 m 452 0 b 313 0 452 0 313 0 b 313 139 313 0 313 139 b 452 139 313 139 452 139 b 452 0 452 139 452 0 "},"@":{"ha":1410,"x_min":0,"x_max":0,"o":"m 787 111 b 787 111 787 111 787 111 b 689 29 758 77 725 50 b 579 -2 652 8 616 -2 b 579 -2 579 -2 579 -2 b 462 33 539 -2 500 9 b 370 142 424 57 393 93 b 334 302 346 191 334 244 b 334 302 334 302 334 302 b 389 519 334 374 352 446 b 526 681 426 591 471 645 b 686 735 581 717 634 735 b 686 735 686 735 686 735 b 798 705 725 735 762 725 b 890 610 834 684 865 652 b 890 610 890 610 890 610 b 913 715 890 610 913 715 b 1035 715 913 715 1035 715 b 937 260 1035 715 937 260 b 917 155 924 197 917 162 b 917 155 917 155 917 155 b 931 124 917 143 922 133 b 964 111 940 115 951 111 b 964 111 964 111 964 111 b 1059 152 988 111 1020 124 b 1059 152 1059 152 1059 152 b 1181 298 1110 188 1151 237 b 1226 486 1211 358 1226 421 b 1226 486 1226 486 1226 486 b 1168 697 1226 561 1207 631 b 996 854 1130 763 1072 815 b 741 913 919 894 834 913 b 741 913 741 913 741 913 b 452 840 635 913 539 889 b 248 627 364 790 296 719 b 176 329 200 534 176 435 b 176 329 176 329 176 329 b 248 43 176 218 200 123 b 457 -134 296 -37 366 -96 b 760 -192 548 -173 649 -192 b 760 -192 760 -192 760 -192 b 1057 -132 878 -192 977 -172 b 1237 13 1137 -92 1197 -44 b 1237 13 1237 13 1237 13 b 1360 13 1237 13 1360 13 b 1241 -132 1337 -35 1297 -83 b 1041 -249 1185 -182 1118 -220 b 762 -292 964 -278 871 -292 b 762 -292 762 -292 762 -292 b 484 -254 661 -292 569 -279 b 267 -137 399 -228 327 -189 b 132 41 208 -85 163 -26 b 132 41 132 41 132 41 b 75 318 94 127 75 219 b 75 318 75 318 75 318 b 143 633 75 429 98 534 b 143 633 143 633 143 633 b 378 915 198 756 277 850 b 747 1013 479 980 603 1013 b 747 1013 747 1013 747 1013 b 1050 944 859 1013 960 989 b 1261 739 1139 898 1209 829 b 1261 739 1261 739 1261 739 b 1326 484 1305 661 1326 575 b 1326 484 1326 484 1326 484 b 1188 134 1326 353 1280 236 b 1188 134 1188 134 1188 134 b 918 -3 1106 43 1016 -3 b 918 -3 918 -3 918 -3 b 843 12 887 -3 862 2 b 800 52 823 21 809 35 b 800 52 800 52 800 52 b 787 111 794 64 790 83 m 459 294 b 459 294 459 294 459 294 b 503 150 459 233 474 184 b 604 98 532 115 566 98 b 604 98 604 98 604 98 b 684 121 629 98 656 106 b 765 189 712 136 739 159 b 827 302 790 218 811 256 b 852 440 844 348 852 394 b 852 440 852 440 852 440 b 806 583 852 502 837 549 b 694 634 776 617 739 634 b 694 634 694 634 694 634 b 613 612 665 634 638 627 b 538 541 587 597 562 574 b 481 422 515 509 495 469 b 459 294 467 376 459 333 "},"A":{"ha":926,"x_min":0,"x_max":0,"o":"m 138 0 b -2 0 138 0 -2 0 b 380 994 -2 0 380 994 b 522 994 380 994 522 994 b 928 0 522 994 928 0 b 779 0 928 0 779 0 b 663 301 779 0 663 301 b 247 301 663 301 247 301 b 138 0 247 301 138 0 m 394 700 b 285 408 394 700 285 408 b 622 408 285 408 622 408 b 518 684 622 408 518 684 b 448 890 486 767 463 836 b 448 890 448 890 448 890 b 394 700 435 826 417 763 b 394 700 394 700 394 700 "},"B":{"ha":926,"x_min":0,"x_max":0,"o":"m 481 0 b 102 0 481 0 102 0 b 102 994 102 0 102 994 b 475 994 102 994 475 994 b 658 964 551 994 612 984 b 766 871 703 944 739 913 b 804 740 791 829 804 785 b 804 740 804 740 804 740 b 770 620 804 697 793 657 b 665 529 747 583 712 552 b 665 529 665 529 665 529 b 804 439 726 511 772 481 b 852 288 836 396 852 346 b 852 288 852 288 852 288 b 823 159 852 241 843 199 b 750 66 804 119 779 87 b 642 17 721 44 685 28 b 481 0 597 5 544 0 b 481 0 481 0 481 0 m 233 877 b 233 576 233 877 233 576 b 448 576 233 576 448 576 b 574 588 507 576 549 581 b 574 588 574 588 574 588 b 650 637 607 598 633 614 b 675 724 667 661 675 690 b 675 724 675 724 675 724 b 651 812 675 758 667 787 b 583 863 635 837 612 854 b 432 877 554 872 503 877 b 432 877 432 877 432 877 b 233 877 432 877 233 877 m 233 459 b 233 117 233 459 233 117 b 481 117 233 117 481 117 b 570 122 524 117 553 119 b 570 122 570 122 570 122 b 646 149 601 127 626 136 b 696 205 667 162 684 180 b 716 288 709 229 716 256 b 716 288 716 288 716 288 b 688 385 716 326 707 357 b 609 443 669 412 642 431 b 463 459 575 454 526 459 b 463 459 463 459 463 459 b 233 459 463 459 233 459 "},"C":{"ha":1003,"x_min":0,"x_max":0,"o":"m 817 349 b 817 349 817 349 817 349 b 948 315 817 349 948 315 b 800 68 920 208 871 125 b 536 -17 728 12 640 -17 b 536 -17 536 -17 536 -17 b 275 49 429 -17 342 5 b 122 238 208 92 157 155 b 69 505 87 321 69 410 b 69 505 69 505 69 505 b 129 776 69 608 89 699 b 298 951 168 852 224 911 b 538 1011 370 991 451 1011 b 538 1011 538 1011 538 1011 b 789 935 638 1011 722 986 b 931 722 857 884 905 813 b 931 722 931 722 931 722 b 802 691 931 722 802 691 b 701 849 779 764 745 816 b 536 899 657 882 602 899 b 536 899 536 899 536 899 b 345 844 459 899 395 880 b 236 696 293 807 257 758 b 205 505 215 635 205 571 b 205 505 205 505 205 505 b 242 284 205 420 217 347 b 357 142 267 221 304 174 b 526 96 409 111 465 96 b 526 96 526 96 526 96 b 713 159 600 96 662 117 b 817 349 764 202 798 265 "},"D":{"ha":1003,"x_min":0,"x_max":0,"o":"m 466 0 b 107 0 466 0 107 0 b 107 994 107 0 107 994 b 450 994 107 994 450 994 b 627 980 527 994 586 989 b 627 980 627 980 627 980 b 772 909 684 967 732 943 b 772 909 772 909 772 909 b 890 739 825 865 864 808 b 929 503 916 670 929 591 b 929 503 929 503 929 503 b 903 302 929 427 920 360 b 835 157 885 243 863 195 b 745 67 807 119 777 89 b 626 17 711 45 672 28 b 466 0 579 5 526 0 b 466 0 466 0 466 0 m 239 877 b 239 117 239 877 239 117 b 451 117 239 117 451 117 b 606 136 517 117 568 123 b 694 187 643 148 672 165 b 694 187 694 187 694 187 b 768 313 726 218 750 260 b 793 505 785 366 793 429 b 793 505 793 505 793 505 b 743 745 793 608 777 688 b 618 857 708 800 667 838 b 618 857 618 857 618 857 b 448 877 583 870 526 877 b 448 877 448 877 448 877 b 239 877 448 877 239 877 "},"E":{"ha":926,"x_min":0,"x_max":0,"o":"m 852 0 b 110 0 852 0 110 0 b 110 994 110 0 110 994 b 829 994 110 994 829 994 b 829 877 829 994 829 877 b 241 877 829 877 241 877 b 241 572 241 877 241 572 b 791 572 241 572 791 572 b 791 456 791 572 791 456 b 241 456 791 456 241 456 b 241 117 241 456 241 117 b 852 117 241 117 852 117 b 852 0 852 117 852 0 "},"F":{"ha":848,"x_min":0,"x_max":0,"o":"m 245 0 b 114 0 245 0 114 0 b 114 994 114 0 114 994 b 785 994 114 994 785 994 b 785 877 785 994 785 877 b 245 877 785 877 245 877 b 245 569 245 877 245 569 b 712 569 245 569 712 569 b 712 452 712 569 712 452 b 245 452 712 452 245 452 b 245 0 245 452 245 0 "},"G":{"ha":1080,"x_min":0,"x_max":0,"o":"m 865 390 b 572 390 865 390 572 390 b 572 507 572 390 572 507 b 994 507 572 507 994 507 b 994 138 994 507 994 138 b 793 22 929 87 862 48 b 582 -17 725 -4 654 -17 b 582 -17 582 -17 582 -17 b 316 46 484 -17 395 4 b 135 227 236 87 176 148 b 74 492 94 307 74 395 b 74 492 74 492 74 492 b 135 764 74 589 94 680 b 309 950 175 847 233 909 b 572 1011 385 991 473 1011 b 572 1011 572 1011 572 1011 b 767 977 644 1011 709 1000 b 903 879 825 953 870 920 b 979 716 937 838 962 783 b 979 716 979 716 979 716 b 860 684 979 716 860 684 b 804 803 845 734 827 774 b 709 873 782 832 751 855 b 572 899 668 890 623 899 b 572 899 572 899 572 899 b 416 871 512 899 460 890 b 311 799 372 853 337 829 b 248 701 283 769 262 736 b 248 701 248 701 248 701 b 210 500 222 639 210 572 b 210 500 210 500 210 500 b 256 278 210 412 225 338 b 389 145 286 218 330 174 b 574 102 447 116 509 102 b 574 102 574 102 574 102 b 741 135 631 102 687 113 b 865 205 795 157 837 180 b 865 205 865 205 865 205 b 865 390 865 205 865 390 "},"H":{"ha":1003,"x_min":0,"x_max":0,"o":"m 243 0 b 111 0 243 0 111 0 b 111 994 111 0 111 994 b 243 994 111 994 243 994 b 243 586 243 994 243 586 b 760 586 243 586 760 586 b 760 994 760 586 760 994 b 891 994 760 994 891 994 b 891 0 891 994 891 0 b 760 0 891 0 760 0 b 760 469 760 0 760 469 b 243 469 760 469 243 469 b 243 0 243 469 243 0 "},"I":{"ha":386,"x_min":0,"x_max":0,"o":"m 261 0 b 130 0 261 0 130 0 b 130 994 130 0 130 994 b 261 994 130 994 261 994 b 261 0 261 994 261 0 "},"J":{"ha":694,"x_min":0,"x_max":0,"o":"m 40 282 b 40 282 40 282 40 282 b 159 298 40 282 159 298 b 201 142 162 222 176 170 b 307 100 227 115 262 100 b 307 100 307 100 307 100 b 392 123 340 100 368 108 b 441 185 416 138 433 159 b 455 309 450 211 455 252 b 455 309 455 309 455 309 b 455 994 455 309 455 994 b 587 994 455 994 587 994 b 587 317 587 994 587 317 b 557 123 587 233 576 169 b 461 19 536 78 505 43 b 307 -17 417 -5 366 -17 b 307 -17 307 -17 307 -17 b 107 58 220 -17 153 8 b 40 282 60 109 38 183 "},"K":{"ha":926,"x_min":0,"x_max":0,"o":"m 233 0 b 102 0 233 0 102 0 b 102 994 102 0 102 994 b 233 994 102 994 233 994 b 233 501 233 994 233 501 b 727 994 233 501 727 994 b 905 994 727 994 905 994 b 488 591 905 994 488 591 b 924 0 488 591 924 0 b 750 0 924 0 750 0 b 396 503 750 0 396 503 b 233 345 396 503 233 345 b 233 0 233 345 233 0 "},"L":{"ha":772,"x_min":0,"x_max":0,"o":"m 723 0 b 102 0 723 0 102 0 b 102 994 102 0 102 994 b 233 994 102 994 233 994 b 233 117 233 994 233 117 b 723 117 233 117 723 117 b 723 0 723 117 723 0 "},"M":{"ha":1157,"x_min":0,"x_max":0,"o":"m 230 0 b 103 0 230 0 103 0 b 103 994 103 0 103 994 b 301 994 103 994 301 994 b 536 290 301 994 536 290 b 584 143 558 224 574 176 b 584 143 584 143 584 143 b 637 302 595 179 613 233 b 637 302 637 302 637 302 b 875 994 637 302 875 994 b 1052 994 875 994 1052 994 b 1052 0 1052 994 1052 0 b 925 0 1052 0 925 0 b 925 832 925 0 925 832 b 636 0 925 832 636 0 b 517 0 636 0 517 0 b 230 846 517 0 230 846 b 230 0 230 846 230 0 "},"N":{"ha":1003,"x_min":0,"x_max":0,"o":"m 232 0 b 106 0 232 0 106 0 b 106 994 106 0 106 994 b 241 994 106 994 241 994 b 763 214 241 994 763 214 b 763 994 763 214 763 994 b 889 994 763 994 889 994 b 889 0 889 994 889 0 b 754 0 889 0 754 0 b 232 781 754 0 232 781 b 232 0 232 781 232 0 "},"O":{"ha":1080,"x_min":0,"x_max":0,"o":"m 67 484 b 67 484 67 484 67 484 b 200 872 67 649 111 779 b 543 1012 289 965 403 1012 b 543 1012 543 1012 543 1012 b 791 946 635 1012 718 990 b 960 763 865 902 922 841 b 1018 496 999 684 1018 595 b 1018 496 1018 496 1018 496 b 957 225 1018 395 998 304 b 784 45 916 146 859 85 b 543 -17 709 3 629 -17 b 543 -17 543 -17 543 -17 b 292 51 449 -17 366 5 b 124 236 218 96 162 158 b 67 484 86 314 67 397 m 203 482 b 203 482 203 482 203 482 b 300 199 203 362 235 268 b 542 96 364 130 445 96 b 542 96 542 96 542 96 b 787 200 641 96 722 130 b 882 496 850 270 882 368 b 882 496 882 496 882 496 b 842 709 882 577 869 648 b 722 849 814 769 774 816 b 544 899 669 882 610 899 b 544 899 544 899 544 899 b 304 803 451 899 371 867 b 203 482 237 739 203 632 "},"P":{"ha":926,"x_min":0,"x_max":0,"o":"m 239 0 b 107 0 239 0 107 0 b 107 994 107 0 107 994 b 482 994 107 994 482 994 b 633 985 548 994 599 991 b 633 985 633 985 633 985 b 756 939 682 977 723 961 b 836 842 789 916 816 884 b 866 707 856 801 866 756 b 866 707 866 707 866 707 b 785 492 866 622 839 551 b 494 404 732 433 634 404 b 494 404 494 404 494 404 b 239 404 494 404 239 404 b 239 0 239 404 239 0 m 239 877 b 239 522 239 877 239 522 b 496 522 239 522 496 522 b 677 569 581 522 641 537 b 730 703 713 601 730 645 b 730 703 730 703 730 703 b 699 810 730 744 720 780 b 616 868 678 839 650 859 b 616 868 616 868 616 868 b 493 877 593 874 553 877 b 493 877 493 877 493 877 b 239 877 493 877 239 877 "},"Q":{"ha":1080,"x_min":0,"x_max":0,"o":"m 861 106 b 861 106 861 106 861 106 b 1029 14 922 64 978 34 b 1029 14 1029 14 1029 14 b 991 -77 1029 14 991 -77 b 777 45 920 -52 848 -11 b 777 45 777 45 777 45 b 533 -17 703 3 622 -17 b 533 -17 533 -17 533 -17 b 288 48 443 -17 361 5 b 119 231 215 92 159 153 b 60 497 79 310 60 399 b 60 497 60 497 60 497 b 119 765 60 595 79 684 b 290 949 159 846 216 907 b 536 1012 363 991 445 1012 b 536 1012 536 1012 536 1012 b 784 947 627 1012 710 990 b 953 764 858 903 914 842 b 1010 498 991 685 1010 596 b 1010 498 1010 498 1010 498 b 973 277 1010 416 998 342 b 861 106 948 212 911 155 m 539 179 b 571 275 539 179 571 275 b 759 180 647 254 709 222 b 759 180 759 180 759 180 b 875 498 836 250 875 356 b 875 498 875 498 875 498 b 834 709 875 578 861 648 b 714 849 806 769 766 816 b 536 899 661 882 602 899 b 536 899 536 899 536 899 b 292 798 438 899 357 865 b 195 497 228 731 195 631 b 195 497 195 497 195 497 b 292 199 195 368 227 269 b 536 96 355 130 437 96 b 536 96 536 96 536 96 b 669 122 583 96 628 104 b 669 122 669 122 669 122 b 539 179 628 149 585 168 b 539 179 539 179 539 179 "},"R":{"ha":1003,"x_min":0,"x_max":0,"o":"m 241 0 b 109 0 241 0 109 0 b 109 994 109 0 109 994 b 550 994 109 994 550 994 b 752 968 639 994 706 985 b 863 873 798 949 835 918 b 904 723 890 827 904 778 b 904 723 904 723 904 723 b 836 545 904 652 881 593 b 624 452 790 496 720 465 b 624 452 624 452 624 452 b 703 403 659 435 685 419 b 703 403 703 403 703 403 b 812 271 742 368 778 323 b 812 271 812 271 812 271 b 985 0 812 271 985 0 b 820 0 985 0 820 0 b 688 207 820 0 688 207 b 593 344 650 267 618 312 b 527 410 568 376 547 397 b 467 437 507 423 487 432 b 467 437 467 437 467 437 b 393 441 452 440 427 441 b 393 441 393 441 393 441 b 241 441 393 441 241 441 b 241 0 241 441 241 0 m 241 884 b 241 555 241 884 241 555 b 524 555 241 555 524 555 b 665 574 584 555 631 562 b 742 634 699 587 724 606 b 768 723 760 661 768 691 b 768 723 768 723 768 723 b 718 839 768 770 751 808 b 555 884 683 869 629 884 b 555 884 555 884 555 884 b 241 884 555 884 241 884 "},"S":{"ha":926,"x_min":0,"x_max":0,"o":"m 62 319 b 62 319 62 319 62 319 b 186 330 62 319 186 330 b 228 208 193 281 206 240 b 328 131 249 176 282 151 b 480 101 373 111 424 101 b 480 101 480 101 480 101 b 613 123 530 101 574 109 b 699 185 652 138 680 159 b 727 270 718 211 727 239 b 727 270 727 270 727 270 b 700 352 727 301 718 328 b 610 410 682 375 652 395 b 610 410 610 410 610 410 b 433 459 584 420 525 437 b 241 521 342 481 278 501 b 241 521 241 521 241 521 b 136 614 194 546 159 576 b 100 737 112 650 100 692 b 100 737 100 737 100 737 b 143 878 100 787 115 834 b 268 977 172 922 213 955 b 450 1011 323 1000 383 1011 b 450 1011 450 1011 450 1011 b 646 976 524 1011 589 1000 b 775 871 702 952 745 917 b 824 714 806 825 822 772 b 824 714 824 714 824 714 b 698 705 824 714 698 705 b 629 847 691 768 668 815 b 456 895 590 879 532 895 b 456 895 456 895 456 895 b 282 852 376 895 318 881 b 227 746 245 823 227 787 b 227 746 227 746 227 746 b 266 658 227 710 240 681 b 266 658 266 658 266 658 b 465 587 291 635 357 611 b 684 524 571 563 644 542 b 684 524 684 524 684 524 b 812 422 742 497 785 463 b 854 281 840 381 854 334 b 854 281 854 281 854 281 b 808 132 854 228 839 178 b 678 22 778 85 734 48 b 486 -17 621 -4 557 -17 b 486 -17 486 -17 486 -17 b 260 22 396 -17 321 -4 b 117 141 199 49 152 88 b 62 319 83 193 64 253 "},"T":{"ha":848,"x_min":0,"x_max":0,"o":"m 492 0 b 360 0 492 0 360 0 b 360 877 360 0 360 877 b 33 877 360 877 33 877 b 33 994 33 877 33 994 b 821 994 33 994 821 994 b 821 877 821 994 821 877 b 492 877 821 877 492 877 b 492 0 492 877 492 0 "},"U":{"ha":1003,"x_min":0,"x_max":0,"o":"m 760 420 b 760 994 760 420 760 994 b 891 994 760 994 891 994 b 891 420 891 994 891 420 b 857 182 891 320 880 241 b 735 39 835 123 794 75 b 503 -17 676 1 598 -17 b 503 -17 503 -17 503 -17 b 274 31 410 -17 333 -1 b 147 171 215 63 172 110 b 109 420 122 231 109 315 b 109 420 109 420 109 420 b 109 994 109 420 109 994 b 241 994 109 994 241 994 b 241 420 241 994 241 420 b 265 230 241 334 249 271 b 348 135 281 189 309 157 b 491 102 387 113 435 102 b 491 102 491 102 491 102 b 698 168 588 102 656 123 b 760 420 739 212 760 296 b 760 420 760 420 760 420 "},"V":{"ha":926,"x_min":0,"x_max":0,"o":"m 526 0 b 391 0 526 0 391 0 b 6 994 391 0 6 994 b 149 994 6 994 149 994 b 407 272 149 994 407 272 b 459 109 428 214 445 160 b 459 109 459 109 459 109 b 513 272 475 163 492 218 b 513 272 513 272 513 272 b 781 994 513 272 781 994 b 916 994 781 994 916 994 b 526 0 916 994 526 0 "},"W":{"ha":1311,"x_min":0,"x_max":0,"o":"m 415 0 b 281 0 415 0 281 0 b 17 994 281 0 17 994 b 152 994 17 994 152 994 b 303 342 152 994 303 342 b 345 139 319 274 334 206 b 345 139 345 139 345 139 b 390 323 370 245 385 307 b 390 323 390 323 390 323 b 579 994 390 323 579 994 b 738 994 579 994 738 994 b 880 491 738 994 880 491 b 958 139 916 366 942 249 b 958 139 958 139 958 139 b 1007 355 970 202 987 274 b 1007 355 1007 355 1007 355 b 1163 994 1007 355 1163 994 b 1295 994 1163 994 1295 994 b 1023 0 1295 994 1023 0 b 896 0 1023 0 896 0 b 686 758 896 0 686 758 b 655 874 669 821 659 860 b 655 874 655 874 655 874 b 626 758 645 829 635 789 b 626 758 626 758 626 758 b 415 0 626 758 415 0 "},"X":{"ha":926,"x_min":0,"x_max":0,"o":"m 164 0 b 6 0 164 0 6 0 b 391 518 6 0 391 518 b 52 994 391 518 52 994 b 208 994 52 994 208 994 b 389 739 208 994 389 739 b 469 617 426 686 453 646 b 469 617 469 617 469 617 b 547 730 491 653 517 691 b 547 730 547 730 547 730 b 747 994 547 730 747 994 b 890 994 747 994 890 994 b 541 526 890 994 541 526 b 918 0 541 526 918 0 b 755 0 918 0 755 0 b 505 355 755 0 505 355 b 461 421 490 375 476 397 b 461 421 461 421 461 421 b 414 347 439 385 423 360 b 414 347 414 347 414 347 b 164 0 414 347 164 0 "},"Y":{"ha":926,"x_min":0,"x_max":0,"o":"m 519 0 b 387 0 519 0 387 0 b 387 421 387 0 387 421 b 4 994 387 421 4 994 b 164 994 4 994 164 994 b 360 694 164 994 360 694 b 461 526 396 638 430 583 b 461 526 461 526 461 526 b 570 702 491 578 527 637 b 570 702 570 702 570 702 b 762 994 570 702 762 994 b 916 994 762 994 916 994 b 519 421 916 994 519 421 b 519 0 519 421 519 0 "},"Z":{"ha":848,"x_min":0,"x_max":0,"o":"m 814 0 b 28 0 814 0 28 0 b 28 122 28 0 28 122 b 537 759 28 122 537 759 b 640 877 573 804 608 844 b 640 877 640 877 640 877 b 85 877 640 877 85 877 b 85 994 85 877 85 994 b 798 994 85 994 798 994 b 798 877 798 994 798 877 b 239 187 798 877 239 187 b 179 117 239 187 179 117 b 814 117 179 117 814 117 b 814 0 814 117 814 0 "},"[":{"ha":386,"x_min":0,"x_max":0,"o":"m 363 -276 b 94 -276 363 -276 94 -276 b 94 994 94 -276 94 994 b 363 994 94 994 363 994 b 363 893 363 994 363 893 b 216 893 363 893 216 893 b 216 -175 216 893 216 -175 b 363 -175 216 -175 363 -175 b 363 -276 363 -175 363 -276 "},"\\":{"ha":386,"x_min":0,"x_max":0,"o":"m 386 -17 b 288 -17 386 -17 288 -17 b 0 1011 288 -17 0 1011 b 98 1011 0 1011 98 1011 b 386 -17 98 1011 386 -17 "},"]":{"ha":386,"x_min":0,"x_max":0,"o":"m 296 994 b 296 -276 296 994 296 -276 b 26 -276 296 -276 26 -276 b 26 -175 26 -276 26 -175 b 174 -175 26 -175 174 -175 b 174 893 174 -175 174 893 b 26 893 174 893 26 893 b 26 994 26 893 26 994 b 296 994 26 994 296 994 "},"^":{"ha":720,"x_min":0,"x_max":0,"o":"m 720 979 b 152 876 408 989 152 876 b 152 300 152 876 152 300 b 42 306 120 312 81 315 b -81 149 -42 286 -98 216 b 101 66 -65 83 17 46 b 227 212 181 85 235 149 b 227 642 227 212 227 642 b 642 720 227 642 408 704 b 642 399 642 720 642 399 b 534 405 611 412 573 414 b 411 249 450 385 395 315 b 593 166 427 183 509 146 b 720 297 667 184 719 239 b 720 297 720 297 720 297 b 720 979 720 297 720 979 "},"_":{"ha":772,"x_min":0,"x_max":0,"o":"m 788 -276 b -21 -276 788 -276 -21 -276 b -21 -188 -21 -276 -21 -188 b 788 -188 -21 -188 788 -188 b 788 -276 788 -188 788 -276 "},"`":{"ha":463,"x_min":0,"x_max":0,"o":"m 224 1000 b 315 810 224 1000 315 810 b 217 810 315 810 217 810 b 60 1000 217 810 60 1000 b 224 1000 60 1000 224 1000 "},"a":{"ha":772,"x_min":0,"x_max":0,"o":"m 562 89 b 562 89 562 89 562 89 b 431 7 516 50 473 23 b 296 -16 389 -8 345 -16 b 296 -16 296 -16 296 -16 b 114 42 217 -16 157 3 b 50 190 71 81 50 130 b 50 190 50 190 50 190 b 75 287 50 225 58 258 b 138 357 90 316 111 339 b 225 397 163 374 193 388 b 225 397 225 397 225 397 b 334 415 249 403 286 409 b 334 415 334 415 334 415 b 551 457 432 427 505 441 b 551 457 551 457 551 457 b 552 489 552 474 552 484 b 552 489 552 489 552 489 b 517 594 552 538 541 574 b 517 594 517 594 517 594 b 378 635 486 622 440 635 b 378 635 378 635 378 635 b 252 606 321 635 279 625 b 191 498 224 585 203 549 b 191 498 191 498 191 498 b 71 515 191 498 71 515 b 125 639 82 566 100 607 b 233 711 150 670 186 694 b 396 736 279 728 334 736 b 396 736 396 736 396 736 b 546 715 458 736 507 729 b 631 661 585 701 612 682 b 669 577 649 638 661 610 b 669 577 669 577 669 577 b 675 465 673 556 675 519 b 675 465 675 465 675 465 b 675 302 675 465 675 302 b 683 87 675 189 677 117 b 713 0 688 56 698 28 b 713 0 713 0 713 0 b 586 0 713 0 586 0 b 562 89 573 25 565 55 m 551 317 b 551 361 551 317 551 361 b 352 315 507 343 441 328 b 352 315 352 315 352 315 b 245 291 302 308 267 300 b 197 252 224 282 209 269 b 180 193 186 234 180 214 b 180 193 180 193 180 193 b 218 112 180 161 193 134 b 326 79 242 90 278 79 b 326 79 326 79 326 79 b 451 111 372 79 414 90 b 532 195 488 131 515 159 b 532 195 532 195 532 195 b 551 317 545 222 551 263 b 551 317 551 317 551 317 "},"b":{"ha":772,"x_min":0,"x_max":0,"o":"m 204 90 b 204 0 204 90 204 0 b 91 0 204 0 91 0 b 91 994 91 0 91 994 b 213 994 91 994 213 994 b 213 640 213 994 213 640 b 410 736 264 704 330 736 b 410 736 410 736 410 736 b 536 710 454 736 496 728 b 634 635 576 692 608 667 b 694 517 659 602 680 563 b 715 371 708 472 715 423 b 715 371 715 371 715 371 b 624 85 715 248 685 152 b 404 -16 563 18 490 -16 b 404 -16 404 -16 404 -16 b 204 90 319 -16 252 19 b 204 90 204 90 204 90 m 203 366 b 203 366 203 366 203 366 b 238 178 203 279 214 217 b 238 178 238 178 238 178 b 394 84 277 115 328 84 b 394 84 394 84 394 84 b 532 154 448 84 494 107 b 591 361 571 200 591 269 b 591 361 591 361 591 361 b 535 569 591 455 572 524 b 399 636 498 614 452 636 b 399 636 399 636 399 636 b 261 567 346 636 300 613 b 203 366 222 520 203 453 "},"c":{"ha":694,"x_min":0,"x_max":0,"o":"m 562 264 b 562 264 562 264 562 264 b 682 248 562 264 682 248 b 581 54 669 165 635 101 b 382 -16 527 7 460 -16 b 382 -16 382 -16 382 -16 b 144 81 283 -16 204 16 b 54 357 84 145 54 237 b 54 357 54 357 54 357 b 93 562 54 435 67 503 b 211 693 119 620 158 664 b 382 736 263 722 321 736 b 382 736 382 736 382 736 b 574 677 460 736 525 717 b 670 509 624 637 656 581 b 670 509 670 509 670 509 b 551 490 670 509 551 490 b 492 600 540 538 520 575 b 387 636 463 624 428 636 b 387 636 387 636 387 636 b 237 570 326 636 276 614 b 180 361 199 526 180 456 b 180 361 180 361 180 361 b 235 150 180 264 198 194 b 380 84 273 106 321 84 b 380 84 380 84 380 84 b 500 128 429 84 469 99 b 562 264 532 157 553 203 "},"d":{"ha":772,"x_min":0,"x_max":0,"o":"m 672 0 b 559 0 672 0 559 0 b 559 91 559 0 559 91 b 357 -16 513 20 446 -16 b 357 -16 357 -16 357 -16 b 199 31 300 -16 248 -1 b 87 164 151 63 114 107 b 47 359 61 220 47 286 b 47 359 47 359 47 359 b 83 555 47 431 60 496 b 191 690 107 614 143 659 b 352 736 239 721 293 736 b 352 736 352 736 352 736 b 468 709 395 736 434 728 b 551 637 502 691 530 667 b 551 637 551 637 551 637 b 551 994 551 637 551 994 b 672 994 551 994 672 994 b 672 0 672 994 672 0 m 173 359 b 173 359 173 359 173 359 b 231 153 173 267 193 198 b 369 84 270 107 316 84 b 369 84 369 84 369 84 b 505 150 422 84 468 106 b 561 349 543 193 561 260 b 561 349 561 349 561 349 b 504 566 561 448 542 520 b 363 635 466 612 419 635 b 363 635 363 635 363 635 b 228 569 309 635 264 613 b 173 359 191 525 173 455 "},"e":{"ha":772,"x_min":0,"x_max":0,"o":"m 585 232 b 585 232 585 232 585 232 b 711 216 585 232 711 216 b 600 45 691 142 654 85 b 394 -16 547 4 477 -16 b 394 -16 394 -16 394 -16 b 144 81 289 -16 205 16 b 51 354 82 146 51 237 b 51 354 51 354 51 354 b 144 636 51 475 82 569 b 387 736 207 703 288 736 b 387 736 387 736 387 736 b 623 638 484 736 562 704 b 715 361 684 572 715 480 b 715 361 715 361 715 361 b 714 329 715 354 715 343 b 714 329 714 329 714 329 b 177 329 714 329 177 329 b 244 147 182 250 204 189 b 395 84 284 105 334 84 b 395 84 395 84 395 84 b 509 119 439 84 477 96 b 585 232 541 143 566 180 m 184 429 b 184 429 184 429 184 429 b 586 429 184 429 586 429 b 540 566 581 490 565 535 b 540 566 540 566 540 566 b 389 636 501 612 450 636 b 389 636 389 636 389 636 b 248 580 332 636 286 617 b 184 429 209 543 188 492 "},"f":{"ha":386,"x_min":0,"x_max":0,"o":"m 242 0 b 121 0 242 0 121 0 b 121 625 121 0 121 625 b 13 625 121 625 13 625 b 13 720 13 625 13 720 b 121 720 13 720 121 720 b 121 797 121 720 121 797 b 134 905 121 845 125 881 b 134 905 134 905 134 905 b 196 982 145 937 166 962 b 320 1011 225 1002 267 1011 b 320 1011 320 1011 320 1011 b 434 999 355 1011 393 1007 b 434 999 434 999 434 999 b 416 892 434 999 416 892 b 344 899 391 897 366 899 b 344 899 344 899 344 899 b 265 876 307 899 281 891 b 242 787 250 860 242 830 b 242 787 242 787 242 787 b 242 720 242 787 242 720 b 382 720 242 720 382 720 b 382 625 382 720 382 625 b 242 625 382 625 242 625 b 242 0 242 625 242 0 "},"g":{"ha":772,"x_min":0,"x_max":0,"o":"m 69 -60 b 69 -60 69 -60 69 -60 b 188 -77 69 -60 188 -77 b 229 -157 193 -114 207 -140 b 229 -157 229 -157 229 -157 b 353 -191 260 -180 301 -191 b 353 -191 353 -191 353 -191 b 484 -157 410 -191 454 -180 b 547 -62 515 -135 536 -103 b 547 -62 547 -62 547 -62 b 555 94 553 -37 556 15 b 555 94 555 94 555 94 b 356 0 502 31 435 0 b 356 0 356 0 356 0 b 126 107 257 0 180 36 b 45 364 72 178 45 264 b 45 364 45 364 45 364 b 82 555 45 433 57 496 b 191 689 107 612 143 657 b 357 736 237 721 293 736 b 357 736 357 736 357 736 b 567 633 441 736 512 702 b 567 633 567 633 567 633 b 567 720 567 633 567 720 b 680 720 567 720 680 720 b 680 98 680 720 680 98 b 646 -140 680 -14 668 -94 b 537 -252 623 -187 587 -224 b 354 -292 488 -279 427 -292 b 354 -292 354 -292 354 -292 b 146 -234 268 -292 199 -273 b 69 -60 93 -195 67 -138 m 170 373 b 170 373 170 373 170 373 b 227 166 170 279 189 210 b 368 101 264 123 311 101 b 368 101 368 101 368 101 b 509 166 424 101 471 123 b 566 369 547 209 566 277 b 566 369 566 369 566 369 b 507 568 566 457 546 524 b 366 635 468 613 420 635 b 366 635 366 635 366 635 b 227 570 311 635 265 614 b 170 373 189 526 170 460 "},"h":{"ha":772,"x_min":0,"x_max":0,"o":"m 214 0 b 92 0 214 0 92 0 b 92 994 92 0 92 994 b 214 994 92 994 214 994 b 214 637 214 994 214 637 b 429 736 271 703 342 736 b 429 736 429 736 429 736 b 568 705 483 736 529 726 b 653 618 608 684 636 655 b 678 456 670 581 678 527 b 678 456 678 456 678 456 b 678 0 678 456 678 0 b 556 0 678 0 556 0 b 556 456 556 0 556 456 b 517 590 556 517 543 562 b 404 631 490 618 452 631 b 404 631 404 631 404 631 b 302 604 368 631 334 622 b 234 527 271 585 248 559 b 214 394 220 495 214 450 b 214 394 214 394 214 394 b 214 0 214 394 214 0 "},"i":{"ha":309,"x_min":0,"x_max":0,"o":"m 214 854 b 92 854 214 854 92 854 b 92 994 92 854 92 994 b 214 994 92 994 214 994 b 214 854 214 994 214 854 m 214 0 b 92 0 214 0 92 0 b 92 720 92 0 92 720 b 214 720 92 720 214 720 b 214 0 214 720 214 0 "},"j":{"ha":309,"x_min":0,"x_max":0,"o":"m 213 852 b 91 852 213 852 91 852 b 91 994 91 852 91 994 b 213 994 91 994 213 994 b 213 852 213 994 213 852 m -64 -279 b -64 -279 -64 -279 -64 -279 b -41 -176 -64 -279 -41 -176 b 17 -185 -16 -182 3 -185 b 17 -185 17 -185 17 -185 b 73 -160 42 -185 60 -177 b 91 -37 85 -144 91 -102 b 91 -37 91 -37 91 -37 b 91 720 91 -37 91 720 b 213 720 91 720 213 720 b 213 -39 213 720 213 -39 b 178 -224 213 -128 201 -190 b 178 -224 178 -224 178 -224 b 32 -292 149 -270 100 -292 b 32 -292 32 -292 32 -292 b -64 -279 -1 -292 -33 -288 "},"k":{"ha":694,"x_min":0,"x_max":0,"o":"m 214 0 b 92 0 214 0 92 0 b 92 994 92 0 92 994 b 214 994 92 994 214 994 b 214 427 214 994 214 427 b 503 720 214 427 503 720 b 661 720 503 720 661 720 b 386 453 661 720 386 453 b 689 0 386 453 689 0 b 538 0 689 0 538 0 b 300 368 538 0 300 368 b 214 286 300 368 214 286 b 214 0 214 286 214 0 "},"l":{"ha":309,"x_min":0,"x_max":0,"o":"m 211 0 b 89 0 211 0 89 0 b 89 994 89 0 89 994 b 211 994 89 994 211 994 b 211 0 211 994 211 0 "},"m":{"ha":1157,"x_min":0,"x_max":0,"o":"m 214 0 b 92 0 214 0 92 0 b 92 720 92 0 92 720 b 201 720 92 720 201 720 b 201 619 201 720 201 619 b 291 705 223 654 254 683 b 419 736 328 726 371 736 b 419 736 419 736 419 736 b 551 703 473 736 516 726 b 623 610 585 681 608 650 b 623 610 623 610 623 610 b 845 736 680 694 753 736 b 845 736 845 736 845 736 b 1010 677 916 736 971 717 b 1067 494 1048 637 1067 576 b 1067 494 1067 494 1067 494 b 1067 0 1067 494 1067 0 b 946 0 1067 0 946 0 b 946 454 946 0 946 454 b 935 559 946 503 942 538 b 891 611 926 581 912 598 b 818 631 870 624 846 631 b 818 631 818 631 818 631 b 692 581 767 631 725 614 b 642 418 659 547 642 492 b 642 418 642 418 642 418 b 642 0 642 418 642 0 b 519 0 642 0 519 0 b 519 468 519 0 519 468 b 490 590 519 522 509 563 b 392 631 470 617 437 631 b 392 631 392 631 392 631 b 297 604 357 631 326 622 b 233 524 268 585 246 559 b 214 374 220 490 214 439 b 214 374 214 374 214 374 b 214 0 214 374 214 0 "},"n":{"ha":772,"x_min":0,"x_max":0,"o":"m 214 0 b 92 0 214 0 92 0 b 92 720 92 0 92 720 b 201 720 92 720 201 720 b 201 618 201 720 201 618 b 431 736 254 697 331 736 b 431 736 431 736 431 736 b 551 713 474 736 514 729 b 632 652 587 698 614 677 b 670 562 650 627 663 596 b 670 562 670 562 670 562 b 677 443 675 539 677 499 b 677 443 677 443 677 443 b 677 0 677 443 677 0 b 555 0 677 0 555 0 b 555 438 555 0 555 438 b 541 550 555 488 550 525 b 490 609 531 574 514 594 b 405 631 466 623 437 631 b 405 631 405 631 405 631 b 271 581 353 631 308 614 b 214 393 233 548 214 486 b 214 393 214 393 214 393 b 214 0 214 393 214 0 "},"o":{"ha":772,"x_min":0,"x_max":0,"o":"m 46 360 b 46 360 46 360 46 360 b 157 656 46 494 83 592 b 157 656 157 656 157 656 b 384 736 219 710 295 736 b 384 736 384 736 384 736 b 627 640 483 736 564 704 b 721 370 690 574 721 485 b 721 370 721 370 721 370 b 680 152 721 277 707 205 b 558 28 652 98 611 57 b 384 -16 505 -1 447 -16 b 384 -16 384 -16 384 -16 b 140 81 283 -16 201 16 b 46 360 77 145 46 239 m 172 360 b 172 360 172 360 172 360 b 232 153 172 268 192 199 b 384 84 272 107 323 84 b 384 84 384 84 384 84 b 535 153 444 84 495 107 b 595 364 575 199 595 270 b 595 364 595 364 595 364 b 535 567 595 453 575 521 b 384 635 494 612 444 635 b 384 635 384 635 384 635 b 232 567 323 635 272 612 b 172 360 192 522 172 452 "},"p":{"ha":772,"x_min":0,"x_max":0,"o":"m 214 -276 b 92 -276 214 -276 92 -276 b 92 720 92 -276 92 720 b 203 720 92 720 203 720 b 203 627 203 720 203 627 b 292 709 229 663 258 691 b 412 736 325 728 365 736 b 412 736 412 736 412 736 b 574 689 473 736 528 721 b 681 555 621 657 657 613 b 717 366 705 498 717 434 b 717 366 717 366 717 366 b 677 167 717 292 704 226 b 562 31 651 108 612 62 b 403 -16 511 -1 458 -16 b 403 -16 403 -16 403 -16 b 294 9 362 -16 326 -7 b 214 75 261 26 235 48 b 214 75 214 75 214 75 b 214 -276 214 75 214 -276 m 202 356 b 202 356 202 356 202 356 b 258 151 202 263 221 195 b 395 84 296 106 341 84 b 395 84 395 84 395 84 b 534 153 449 84 496 107 b 592 366 573 199 592 270 b 592 366 592 366 592 366 b 536 572 592 458 573 527 b 400 641 498 618 452 641 b 400 641 400 641 400 641 b 262 568 348 641 302 616 b 202 356 222 519 202 449 "},"q":{"ha":772,"x_min":0,"x_max":0,"o":"m 673 -276 b 551 -276 673 -276 551 -276 b 551 77 551 -276 551 77 b 471 10 532 50 505 28 b 362 -16 437 -7 401 -16 b 362 -16 362 -16 362 -16 b 142 86 277 -16 203 18 b 49 367 80 155 49 248 b 49 367 49 367 49 367 b 87 562 49 439 62 504 b 196 692 112 619 148 663 b 353 736 243 722 296 736 b 353 736 353 736 353 736 b 563 624 441 736 512 699 b 563 624 563 624 563 624 b 563 720 563 624 563 720 b 673 720 563 720 673 720 b 673 -276 673 720 673 -276 m 174 362 b 174 362 174 362 174 362 b 233 154 174 269 194 200 b 372 84 271 107 318 84 b 372 84 372 84 372 84 b 507 151 425 84 469 106 b 563 351 544 195 563 261 b 563 351 563 351 563 351 b 504 568 563 447 543 519 b 364 640 464 616 418 640 b 364 640 364 640 364 640 b 230 573 311 640 267 618 b 174 362 193 528 174 458 "},"r":{"ha":463,"x_min":0,"x_max":0,"o":"m 212 0 b 90 0 212 0 90 0 b 90 720 90 0 90 720 b 200 720 90 720 200 720 b 200 611 200 720 200 611 b 278 712 228 662 254 696 b 356 736 302 728 328 736 b 356 736 356 736 356 736 b 481 697 397 736 439 724 b 481 697 481 697 481 697 b 439 584 481 697 439 584 b 350 610 410 602 380 610 b 350 610 350 610 350 610 b 278 587 323 610 299 602 b 233 519 257 570 241 548 b 233 519 233 519 233 519 b 212 377 219 476 212 429 b 212 377 212 377 212 377 b 212 0 212 377 212 0 "},"s":{"ha":694,"x_min":0,"x_max":0,"o":"m 43 215 b 43 215 43 215 43 215 b 163 234 43 215 163 234 b 220 123 170 186 189 149 b 350 84 251 97 294 84 b 350 84 350 84 350 84 b 475 119 406 84 448 96 b 515 199 502 141 515 168 b 515 199 515 199 515 199 b 479 264 515 227 503 248 b 479 264 479 264 479 264 b 355 305 463 275 421 288 b 355 305 355 305 355 305 b 169 364 265 328 203 347 b 90 433 134 380 108 404 b 63 529 72 462 63 494 b 63 529 63 529 63 529 b 85 618 63 561 71 591 b 145 686 100 646 120 668 b 145 686 145 686 145 686 b 223 722 164 701 190 712 b 328 736 256 732 291 736 b 328 736 328 736 328 736 b 477 712 385 736 435 728 b 572 646 520 696 551 674 b 614 534 592 618 606 581 b 614 534 614 534 614 534 b 494 518 614 534 494 518 b 448 605 489 555 473 584 b 337 636 421 626 385 636 b 337 636 337 636 337 636 b 217 608 281 636 241 627 b 181 543 193 590 181 568 b 181 543 181 543 181 543 b 196 500 181 528 186 513 b 196 500 196 500 196 500 b 243 468 206 488 222 477 b 243 468 243 468 243 468 b 351 437 255 463 291 453 b 351 437 351 437 351 437 b 532 380 437 414 497 395 b 612 316 566 366 592 344 b 641 212 631 288 641 253 b 641 212 641 212 641 212 b 606 97 641 171 629 133 b 503 14 582 61 547 33 b 351 -16 458 -6 407 -16 b 351 -16 351 -16 351 -16 b 137 42 257 -16 186 3 b 43 215 87 81 56 138 "},"t":{"ha":386,"x_min":0,"x_max":0,"o":"m 358 109 b 358 109 358 109 358 109 b 376 1 358 109 376 1 b 283 -9 341 -6 311 -9 b 283 -9 283 -9 283 -9 b 180 12 239 -9 205 -3 b 129 67 156 26 139 44 b 114 211 119 90 114 138 b 114 211 114 211 114 211 b 114 625 114 211 114 625 b 24 625 114 625 24 625 b 24 720 24 625 24 720 b 114 720 24 720 114 720 b 114 899 114 720 114 899 b 235 972 114 899 235 972 b 235 720 235 972 235 720 b 358 720 235 720 358 720 b 358 625 358 720 358 625 b 235 625 358 625 235 625 b 235 204 235 625 235 204 b 242 137 235 170 237 147 b 263 113 246 127 253 119 b 304 104 273 107 286 104 b 304 104 304 104 304 104 b 358 109 318 104 336 106 "},"u":{"ha":772,"x_min":0,"x_max":0,"o":"m 673 0 b 564 0 673 0 564 0 b 564 106 564 0 564 106 b 335 -16 507 24 431 -16 b 335 -16 335 -16 335 -16 b 216 8 292 -16 253 -8 b 134 70 179 24 152 45 b 96 160 116 94 104 124 b 96 160 96 160 96 160 b 89 274 92 184 89 222 b 89 274 89 274 89 274 b 89 720 89 274 89 720 b 211 720 89 720 211 720 b 211 321 211 720 211 321 b 218 192 211 257 214 214 b 218 192 218 192 218 192 b 267 117 226 160 242 135 b 359 89 292 98 323 89 b 359 89 359 89 359 89 b 463 117 396 89 431 98 b 531 194 494 136 517 161 b 551 334 544 226 551 273 b 551 334 551 334 551 334 b 551 720 551 334 551 720 b 673 720 551 720 673 720 b 673 0 673 720 673 0 "},"v":{"ha":694,"x_min":0,"x_max":0,"o":"m 406 0 b 292 0 406 0 292 0 b 18 720 292 0 18 720 b 146 720 18 720 146 720 b 301 289 146 720 301 289 b 347 144 318 242 333 194 b 347 144 347 144 347 144 b 393 281 358 182 373 227 b 393 281 393 281 393 281 b 553 720 393 281 553 720 b 678 720 553 720 678 720 b 406 0 678 720 406 0 "},"w":{"ha":1003,"x_min":0,"x_max":0,"o":"m 352 0 b 224 0 352 0 224 0 b 4 720 224 0 4 720 b 130 720 4 720 130 720 b 245 304 130 720 245 304 b 288 150 245 304 288 150 b 325 298 290 157 302 207 b 325 298 325 298 325 298 b 439 720 325 298 439 720 b 565 720 439 720 565 720 b 673 302 565 720 673 302 b 709 165 673 302 709 165 b 750 304 709 165 750 304 b 873 720 750 304 873 720 b 992 720 873 720 992 720 b 767 0 992 720 767 0 b 640 0 767 0 640 0 b 526 431 640 0 526 431 b 498 554 526 431 498 554 b 352 0 498 554 352 0 "},"x":{"ha":694,"x_min":0,"x_max":0,"o":"m 158 0 b 10 0 158 0 10 0 b 273 374 10 0 273 374 b 30 720 273 374 30 720 b 182 720 30 720 182 720 b 293 551 182 720 293 551 b 343 471 314 519 330 492 b 343 471 343 471 343 471 b 398 550 363 500 381 527 b 398 550 398 550 398 550 b 519 720 398 550 519 720 b 665 720 519 720 665 720 b 416 381 665 720 416 381 b 684 0 416 381 684 0 b 534 0 684 0 534 0 b 387 224 534 0 387 224 b 347 284 387 224 347 284 b 158 0 347 284 158 0 "},"y":{"ha":694,"x_min":0,"x_max":0,"o":"m 86 -277 b 86 -277 86 -277 86 -277 b 73 -163 86 -277 73 -163 b 142 -174 99 -170 123 -174 b 142 -174 142 -174 142 -174 b 208 -160 170 -174 191 -169 b 248 -122 224 -151 237 -138 b 248 -122 248 -122 248 -122 b 285 -31 255 -110 268 -79 b 285 -31 285 -31 285 -31 b 296 -1 287 -24 291 -14 b 296 -1 296 -1 296 -1 b 22 720 296 -1 22 720 b 154 720 22 720 154 720 b 304 303 154 720 304 303 b 356 136 323 250 340 195 b 356 136 356 136 356 136 b 406 300 370 193 387 247 b 406 300 406 300 406 300 b 560 720 406 300 560 720 b 682 720 560 720 682 720 b 408 -12 682 720 408 -12 b 340 -176 379 -92 356 -146 b 340 -176 340 -176 340 -176 b 265 -264 318 -216 293 -245 b 165 -292 237 -283 203 -292 b 165 -292 165 -292 165 -292 b 86 -277 141 -292 115 -288 "},"z":{"ha":694,"x_min":0,"x_max":0,"o":"m 665 0 b 27 0 665 0 27 0 b 27 99 27 0 27 99 b 486 625 27 99 486 625 b 348 621 433 623 388 621 b 348 621 348 621 348 621 b 54 621 348 621 54 621 b 54 720 54 621 54 720 b 643 720 54 720 643 720 b 643 640 643 720 643 640 b 253 182 643 640 253 182 b 178 99 253 182 178 99 b 332 105 233 103 283 105 b 332 105 332 105 332 105 b 665 105 332 105 665 105 b 665 0 665 105 665 0 "},"{":{"ha":464,"x_min":0,"x_max":0,"o":"m 39 304 b 39 415 39 304 39 415 b 124 444 73 416 102 425 b 168 517 146 461 160 486 b 179 677 175 548 178 602 b 183 826 180 752 181 802 b 183 826 183 826 183 826 b 206 918 187 864 195 895 b 247 973 217 941 231 959 b 309 1004 263 987 284 997 b 309 1004 309 1004 309 1004 b 393 1011 326 1009 355 1011 b 393 1011 393 1011 393 1011 b 431 1011 393 1011 431 1011 b 431 905 431 1011 431 905 b 410 905 431 905 410 905 b 317 880 363 905 332 897 b 294 766 301 863 294 825 b 294 766 294 766 294 766 b 286 541 294 647 291 572 b 286 541 286 541 286 541 b 245 429 278 493 264 456 b 152 359 225 403 194 380 b 152 359 152 359 152 359 b 260 264 201 338 238 307 b 294 54 283 222 294 151 b 294 54 294 54 294 54 b 296 -103 294 -34 294 -86 b 296 -103 296 -103 296 -103 b 324 -168 300 -134 309 -155 b 410 -186 338 -180 368 -186 b 410 -186 410 -186 410 -186 b 431 -186 410 -186 431 -186 b 431 -292 431 -186 431 -292 b 393 -292 431 -292 393 -292 b 297 -281 349 -292 317 -289 b 297 -281 297 -281 297 -281 b 225 -231 268 -271 244 -254 b 189 -142 206 -208 194 -178 b 179 33 182 -106 180 -48 b 168 202 178 115 175 171 b 124 276 160 233 146 258 b 39 304 102 294 73 304 b 39 304 39 304 39 304 "},"|":{"ha":361,"x_min":0,"x_max":0,"o":"m 234 -292 b 127 -292 234 -292 127 -292 b 127 1011 127 -292 127 1011 b 234 1011 127 1011 234 1011 b 234 -292 234 1011 234 -292 "},"}":{"ha":464,"x_min":0,"x_max":0,"o":"m 425 415 b 425 415 425 415 425 415 b 425 304 425 415 425 304 b 340 276 390 304 361 294 b 296 203 317 258 303 233 b 284 43 288 172 285 118 b 280 -106 283 -33 282 -83 b 280 -106 280 -106 280 -106 b 258 -198 276 -145 269 -176 b 216 -253 246 -221 233 -239 b 154 -285 200 -267 179 -277 b 154 -285 154 -285 154 -285 b 70 -292 137 -290 109 -292 b 70 -292 70 -292 70 -292 b 32 -292 70 -292 32 -292 b 32 -186 32 -292 32 -186 b 53 -186 32 -186 53 -186 b 146 -160 100 -186 131 -177 b 170 -46 162 -143 170 -105 b 170 -46 170 -46 170 -46 b 176 169 170 67 172 138 b 176 169 176 169 176 169 b 219 290 183 219 197 259 b 311 359 241 319 271 342 b 311 359 311 359 311 359 b 201 458 259 385 222 417 b 170 665 180 499 170 568 b 170 665 170 665 170 665 b 166 823 170 753 168 806 b 166 823 166 823 166 823 b 140 887 163 854 154 875 b 53 905 125 899 96 905 b 53 905 53 905 53 905 b 32 905 53 905 32 905 b 32 1011 32 905 32 1011 b 70 1011 32 1011 70 1011 b 166 1000 114 1011 146 1008 b 166 1000 166 1000 166 1000 b 238 950 195 990 219 974 b 275 861 257 926 269 897 b 284 686 281 825 283 767 b 296 517 285 604 288 548 b 340 444 303 486 317 462 b 425 415 361 425 390 416 "},"~":{"ha":1085,"x_min":0,"x_max":0,"o":"m 1053 378 b 998 349 1040 347 1021 342 b 978 364 991 352 983 358 b 852 439 943 403 900 425 b 829 445 845 441 838 442 b 810 519 827 471 821 496 b 780 574 801 538 790 556 b 831 593 798 577 816 580 b 858 650 848 608 857 627 b 859 669 859 656 858 662 b 941 676 887 665 914 667 b 936 608 940 653 943 630 b 890 531 927 577 913 551 b 883 524 888 528 885 526 b 953 493 907 513 930 505 b 1042 423 986 475 1016 452 b 1053 406 1046 418 1048 412 b 1053 378 1053 396 1053 388 m 245 444 b 141 401 208 437 173 424 b 87 355 122 388 105 371 b 23 377 66 336 31 348 b 22 402 22 385 22 393 b 62 450 31 423 46 437 b 129 496 83 467 106 482 b 191 523 149 507 171 514 b 159 564 181 535 170 549 b 135 646 143 588 136 616 b 136 675 135 655 135 665 b 148 671 140 675 144 673 b 218 669 171 665 195 663 b 234 605 216 646 219 624 b 279 577 245 590 261 581 b 295 574 284 576 290 576 b 249 460 273 539 255 502 b 245 444 248 454 247 449 m 245 443 b 249 460 247 449 248 454 b 296 574 255 502 273 539 b 376 646 319 604 345 627 b 479 684 408 665 444 677 b 537 687 498 688 518 687 b 538 167 538 512 538 339 b 408 194 493 167 449 174 b 366 216 394 201 380 208 b 313 264 347 233 330 248 b 296 280 307 269 302 275 b 276 313 290 290 283 300 b 256 364 269 331 262 347 b 248 397 252 375 250 386 b 245 443 247 412 246 427 m 539 166 b 538 686 538 339 538 512 b 602 682 559 686 581 686 b 648 667 618 680 633 673 b 699 646 665 661 682 654 b 779 575 730 628 756 605 b 810 519 790 556 801 538 b 828 444 821 496 827 471 b 827 397 828 429 828 414 b 800 313 823 366 813 338 b 779 281 793 302 787 292 b 726 229 761 262 744 245 b 713 216 722 224 718 220 b 699 210 708 214 703 212 b 599 173 667 191 634 179 b 539 166 579 170 559 168 m 218 669 b 148 671 195 663 171 665 b 136 676 144 673 140 675 b 47 788 87 696 57 734 b 67 902 39 828 45 867 b 153 966 87 935 116 957 b 212 968 172 971 192 972 b 218 959 218 968 218 964 b 218 865 218 928 218 897 b 218 852 218 861 218 857 b 325 852 254 852 290 852 b 218 669 343 780 304 690 m 941 676 b 859 669 914 667 887 665 b 798 700 836 673 816 684 b 748 794 770 724 753 756 b 747 852 745 813 747 833 b 858 852 786 852 821 852 b 858 877 858 861 858 869 b 858 956 858 903 859 930 b 869 969 858 965 860 968 b 969 945 906 975 939 966 b 1031 825 1008 916 1030 876 b 941 676 1033 754 1002 705 m 247 397 b 256 364 250 386 252 375 b 276 313 262 347 269 331 b 231 296 261 307 245 302 b 132 217 192 278 159 251 b 113 191 125 209 119 199 b 54 186 98 172 75 170 b 47 243 39 197 37 226 b 172 363 79 295 120 335 b 247 397 195 376 221 385 m 800 313 b 827 396 813 338 823 366 b 952 332 873 382 914 361 b 1031 241 983 307 1009 276 b 1021 186 1040 225 1035 196 b 964 189 1000 168 977 174 b 919 244 949 208 935 227 b 840 298 897 268 869 285 b 800 313 827 303 814 307 m 296 280 b 313 264 302 275 307 269 b 365 217 330 248 347 233 b 278 161 333 202 304 184 b 222 87 256 140 237 115 b 199 57 216 76 209 64 b 150 62 180 44 166 49 b 141 114 136 73 132 96 b 184 185 155 138 169 162 b 265 261 206 216 235 239 b 296 280 275 268 285 273 m 713 215 b 726 229 718 220 722 224 b 779 280 744 245 761 262 b 833 244 798 269 815 257 b 923 136 870 216 900 179 b 939 91 931 122 940 109 b 913 54 937 73 929 60 b 872 61 898 47 883 49 b 846 102 861 73 854 87 b 718 214 814 153 770 188 b 713 215 716 214 715 214 "},"":{"ha":463,"x_min":0,"x_max":0,"o":"m 163 720 b 303 720 163 720 303 720 b 303 581 303 720 303 581 b 163 581 303 581 163 581 b 163 720 163 581 163 720 m 193 473 b 271 473 193 473 271 473 b 309 -54 271 473 309 -54 b 309 -274 309 -54 309 -274 b 157 -274 309 -274 157 -274 b 157 -54 157 -274 157 -54 b 193 473 157 -54 193 473 "},"":{"ha":772,"x_min":0,"x_max":0,"o":"m 505 606 b 505 606 505 606 505 606 b 354 87 505 606 354 87 b 395 81 369 83 382 81 b 395 81 395 81 395 81 b 517 129 442 81 483 97 b 580 264 551 161 572 206 b 580 264 580 264 580 264 b 701 250 580 264 701 250 b 595 53 686 167 651 101 b 397 -19 539 5 473 -19 b 397 -19 397 -19 397 -19 b 328 -9 375 -19 352 -16 b 328 -9 328 -9 328 -9 b 248 -277 328 -9 248 -277 b 172 -256 248 -277 172 -256 b 250 14 172 -256 250 14 b 122 139 197 39 155 81 b 73 357 89 197 73 269 b 73 357 73 357 73 357 b 113 564 73 437 86 507 b 231 694 139 622 178 665 b 392 737 283 723 337 737 b 392 737 392 737 392 737 b 460 732 408 737 431 735 b 460 732 460 732 460 732 b 536 994 460 732 536 994 b 611 972 536 994 611 972 b 535 710 611 972 535 710 b 638 632 580 690 614 665 b 688 509 662 599 679 558 b 688 509 688 509 688 509 b 570 490 688 509 570 490 b 505 606 558 541 536 580 m 281 120 b 433 637 281 120 433 637 b 399 640 418 639 407 640 b 399 640 399 640 399 640 b 295 609 361 640 327 629 b 222 513 262 588 238 556 b 198 363 206 470 198 420 b 198 363 198 363 198 363 b 220 212 198 303 205 253 b 281 120 234 170 255 140 b 281 120 281 120 281 120 "},"":{"ha":772,"x_min":0,"x_max":0,"o":"m 269 549 b 269 549 269 549 269 549 b 482 549 269 549 482 549 b 482 448 482 549 482 448 b 290 448 482 448 290 448 b 302 389 298 429 302 408 b 302 389 302 389 302 389 b 275 264 302 349 293 308 b 182 130 256 220 224 175 b 182 130 182 130 182 130 b 279 144 218 140 250 144 b 279 144 279 144 279 144 b 406 127 317 144 359 139 b 406 127 406 127 406 127 b 564 100 484 109 536 100 b 564 100 564 100 564 100 b 694 138 597 100 641 113 b 694 138 694 138 694 138 b 734 26 694 138 734 26 b 637 -9 692 8 660 -3 b 569 -17 614 -14 591 -17 b 569 -17 569 -17 569 -17 b 511 -12 550 -17 531 -15 b 511 -12 511 -12 511 -12 b 424 14 499 -9 470 -1 b 334 39 377 28 347 36 b 334 39 334 39 334 39 b 270 44 313 42 291 44 b 270 44 270 44 270 44 b 166 27 237 44 203 39 b 65 -19 129 16 96 1 b 65 -19 65 -19 65 -19 b 18 98 65 -19 18 98 b 129 201 62 122 98 157 b 174 364 159 245 174 300 b 174 364 174 364 174 364 b 163 448 174 392 170 420 b 163 448 163 448 163 448 b 30 448 163 448 30 448 b 30 549 30 448 30 549 b 134 549 30 549 134 549 b 106 660 119 600 110 636 b 100 728 102 683 100 705 b 100 728 100 728 100 728 b 204 948 100 822 134 895 b 204 948 204 948 204 948 b 408 1011 260 990 328 1011 b 408 1011 408 1011 408 1011 b 610 944 490 1011 557 989 b 708 754 663 899 696 836 b 708 754 708 754 708 754 b 587 736 708 754 587 736 b 526 864 580 790 559 833 b 405 911 492 895 452 911 b 405 911 405 911 405 911 b 280 863 355 911 313 895 b 230 745 247 830 230 791 b 230 745 230 745 230 745 b 269 549 230 695 243 629 "},"":{"ha":772,"x_min":0,"x_max":0,"o":"m 144 652 b 144 652 144 652 144 652 b 50 744 144 652 50 744 b 128 825 50 744 128 825 b 222 730 128 825 222 730 b 383 779 271 763 324 779 b 383 779 383 779 383 779 b 544 730 443 779 496 763 b 544 730 544 730 544 730 b 638 825 544 730 638 825 b 717 744 638 825 717 744 b 623 652 717 744 623 652 b 671 492 654 602 671 549 b 671 492 671 492 671 492 b 623 332 671 435 654 382 b 623 332 623 332 623 332 b 717 240 623 332 717 240 b 638 159 717 240 638 159 b 544 254 638 159 544 254 b 383 205 496 221 443 205 b 383 205 383 205 383 205 b 222 254 324 205 271 221 b 222 254 222 254 222 254 b 128 159 222 254 128 159 b 50 240 128 159 50 240 b 144 332 50 240 144 332 b 96 492 113 382 96 435 b 96 492 96 492 96 492 b 144 652 96 549 113 602 m 207 492 b 207 492 207 492 207 492 b 258 368 207 444 224 402 b 382 316 293 333 334 316 b 382 316 382 316 382 316 b 507 368 431 316 472 333 b 558 492 541 402 558 444 b 558 492 558 492 558 492 b 507 616 558 541 541 582 b 382 668 473 651 431 668 b 382 668 382 668 382 668 b 258 616 334 668 293 651 b 207 492 224 582 207 541 "},"":{"ha":772,"x_min":0,"x_max":0,"o":"m 446 0 b 323 0 446 0 323 0 b 323 220 323 0 323 220 b 42 220 323 220 42 220 b 42 315 42 220 42 315 b 323 315 42 315 323 315 b 323 412 323 315 323 412 b 42 412 323 412 42 412 b 42 512 42 412 42 512 b 273 512 42 512 273 512 b -2 994 273 512 -2 994 b 134 994 -2 994 134 994 b 330 644 134 994 330 644 b 382 540 353 604 370 570 b 382 540 382 540 382 540 b 437 650 392 564 411 601 b 437 650 437 650 437 650 b 623 994 437 650 623 994 b 768 994 623 994 768 994 b 494 512 768 994 494 512 b 725 512 494 512 725 512 b 725 412 725 512 725 412 b 446 412 725 412 446 412 b 446 315 446 412 446 315 b 725 315 446 315 725 315 b 725 220 725 315 725 220 b 446 220 725 220 446 220 b 446 0 446 220 446 0 "},"":{"ha":361,"x_min":0,"x_max":0,"o":"m 127 1011 b 234 1011 127 1011 234 1011 b 234 475 234 1011 234 475 b 127 475 234 475 127 475 b 127 1011 127 475 127 1011 m 127 244 b 234 244 127 244 234 244 b 234 -292 234 244 234 -292 b 127 -292 234 -292 127 -292 b 127 244 127 -292 127 244 "},"":{"ha":772,"x_min":0,"x_max":0,"o":"m 97 -47 b 97 -47 97 -47 97 -47 b 220 -30 97 -47 220 -30 b 280 -153 233 -89 252 -130 b 393 -189 308 -177 345 -189 b 393 -189 393 -189 393 -189 b 501 -154 439 -189 475 -178 b 540 -71 527 -130 540 -103 b 540 -71 540 -71 540 -71 b 515 -7 540 -48 532 -27 b 515 -7 515 -7 515 -7 b 285 159 488 26 410 82 b 285 159 285 159 285 159 b 145 256 218 200 172 232 b 80 338 119 279 97 306 b 55 437 63 370 55 402 b 55 437 55 437 55 437 b 96 555 55 480 68 519 b 208 629 123 590 160 614 b 208 629 208 629 208 629 b 140 714 176 659 153 688 b 120 797 127 740 120 768 b 120 797 120 797 120 797 b 188 947 120 854 142 905 b 368 1011 233 990 293 1011 b 368 1011 368 1011 368 1011 b 566 951 452 1011 518 991 b 651 776 613 911 642 852 b 651 776 651 776 651 776 b 524 763 651 776 524 763 b 475 878 515 818 498 857 b 378 911 451 900 418 911 b 378 911 378 911 378 911 b 278 878 337 911 303 900 b 239 803 252 855 239 830 b 239 803 239 803 239 803 b 264 738 239 779 248 758 b 264 738 264 738 264 738 b 471 589 289 707 358 657 b 471 589 471 589 471 589 b 615 493 543 545 590 513 b 615 493 615 493 615 493 b 686 409 647 466 671 438 b 709 315 701 380 709 349 b 709 315 709 315 709 315 b 659 184 709 264 692 220 b 659 184 659 184 659 184 b 555 121 640 163 606 142 b 555 121 555 121 555 121 b 636 32 591 93 618 64 b 663 -70 654 0 663 -34 b 663 -70 663 -70 663 -70 b 629 -182 663 -110 651 -147 b 531 -264 606 -218 574 -245 b 393 -292 488 -283 443 -292 b 393 -292 393 -292 393 -292 b 188 -227 307 -292 239 -271 b 97 -47 137 -184 107 -124 m 494 165 b 494 165 494 165 494 165 b 569 226 527 182 552 203 b 593 292 585 248 593 271 b 593 292 593 292 593 292 b 558 374 593 318 582 345 b 558 374 558 374 558 374 b 406 488 534 402 484 440 b 406 488 406 488 406 488 b 267 582 344 526 298 557 b 267 582 267 582 267 582 b 189 519 231 561 205 541 b 165 450 174 498 165 475 b 165 450 165 450 165 450 b 197 369 165 422 176 395 b 197 369 197 369 197 369 b 337 266 218 343 264 309 b 337 266 337 266 337 266 b 494 165 397 230 450 197 "},"":{"ha":463,"x_min":0,"x_max":0,"o":"m 169 861 b 41 861 169 861 41 861 b 41 1000 41 861 41 1000 b 169 1000 41 1000 169 1000 b 169 861 169 1000 169 861 m 422 861 b 294 861 422 861 294 861 b 294 1000 294 861 294 1000 b 422 1000 294 1000 422 1000 b 422 861 422 1000 422 861 "},"":{"ha":1023,"x_min":0,"x_max":0,"o":"m 514 1011 b 514 1011 514 1011 514 1011 b 766 945 600 1011 684 989 b 957 756 848 901 911 838 b 1025 499 1002 674 1025 588 b 1025 499 1025 499 1025 499 b 958 245 1025 411 1003 326 b 769 56 913 163 850 100 b 514 -12 688 10 603 -12 b 514 -12 514 -12 514 -12 b 260 56 425 -12 340 10 b 70 245 178 100 115 163 b 2 499 24 326 2 411 b 2 499 2 499 2 499 b 71 756 2 588 25 674 b 262 945 117 838 180 901 b 514 1011 345 989 428 1011 m 514 926 b 514 926 514 926 514 926 b 304 871 442 926 372 908 b 144 713 236 834 183 782 b 87 499 106 645 87 573 b 87 499 87 499 87 499 b 144 288 87 425 106 355 b 302 130 181 220 234 167 b 514 73 370 92 440 73 b 514 73 514 73 514 73 b 726 130 588 73 659 92 b 884 288 794 167 847 220 b 941 499 922 355 941 425 b 941 499 941 499 941 499 b 884 713 941 573 922 645 b 724 871 845 782 792 834 b 514 926 655 908 585 926 m 678 416 b 678 416 678 416 678 416 b 762 392 678 416 762 392 b 675 257 748 336 720 290 b 515 206 631 223 578 206 b 515 206 515 206 515 206 b 321 283 435 206 370 232 b 246 498 271 335 246 406 b 246 498 246 498 246 498 b 280 654 246 557 258 610 b 377 753 302 698 335 731 b 520 787 418 776 467 787 b 520 787 520 787 520 787 b 670 744 581 787 630 772 b 751 627 710 715 737 676 b 751 627 751 627 751 627 b 671 607 751 627 671 607 b 611 684 657 640 637 666 b 517 711 585 702 553 711 b 517 711 517 711 517 711 b 389 655 465 711 422 692 b 338 496 355 618 338 565 b 338 496 338 496 338 496 b 387 339 338 427 355 374 b 510 286 418 303 459 286 b 510 286 510 286 510 286 b 617 321 551 286 587 297 b 678 416 648 345 668 376 "},"":{"ha":514,"x_min":0,"x_max":0,"o":"m 372 578 b 372 578 372 578 372 578 b 198 506 317 530 258 506 b 198 506 198 506 198 506 b 77 548 147 506 106 520 b 32 654 47 576 32 611 b 32 654 32 654 32 654 b 43 711 32 676 35 695 b 75 755 50 728 61 742 b 130 785 90 768 108 778 b 130 785 130 785 130 785 b 197 800 146 790 168 795 b 197 800 197 800 197 800 b 297 814 197 800 297 814 b 362 828 330 821 351 825 b 362 828 362 828 362 828 b 353 892 361 860 359 881 b 320 920 347 903 336 912 b 256 932 304 928 282 932 b 256 932 256 932 256 932 b 176 910 220 932 193 924 b 143 847 158 895 147 874 b 143 847 143 847 143 847 b 50 870 143 847 50 870 b 110 971 56 910 75 944 b 257 1011 144 998 193 1011 b 257 1011 257 1011 257 1011 b 414 970 331 1011 384 998 b 414 970 414 970 414 970 b 460 847 445 942 460 901 b 460 847 460 847 460 847 b 460 684 460 847 460 684 b 459 643 460 684 459 643 b 487 518 459 583 469 541 b 487 518 487 518 487 518 b 387 518 487 518 387 518 b 372 578 378 536 372 556 m 361 749 b 361 749 361 749 361 749 b 231 724 338 743 294 734 b 231 724 231 724 231 724 b 152 698 191 718 164 709 b 152 698 152 698 152 698 b 133 654 139 686 133 671 b 133 654 133 654 133 654 b 156 607 133 636 140 620 b 221 587 172 594 193 587 b 221 587 221 587 221 587 b 307 614 254 587 283 596 b 356 679 332 631 348 653 b 356 679 356 679 356 679 b 361 749 359 688 361 711 "},"":{"ha":772,"x_min":0,"x_max":0,"o":"m 408 667 b 231 358 408 667 231 358 b 406 49 231 358 406 49 b 307 49 406 49 307 49 b 91 358 307 49 91 358 b 307 667 91 358 307 667 b 408 667 307 667 408 667 m 672 667 b 493 358 672 667 493 358 b 672 49 493 358 672 49 b 569 49 672 49 569 49 b 357 358 569 49 357 358 b 569 667 357 358 569 667 b 672 667 569 667 672 667 "},"":{"ha":811,"x_min":0,"x_max":0,"o":"m 734 699 b 734 288 734 699 734 288 b 618 288 734 288 618 288 b 618 585 618 288 618 585 b 77 585 618 585 77 585 b 77 699 77 585 77 699 b 734 699 77 699 734 699 "},"":{"ha":1023,"x_min":0,"x_max":0,"o":"m 514 1011 b 514 1011 514 1011 514 1011 b 766 945 600 1011 684 989 b 957 756 848 901 911 838 b 1025 499 1002 674 1025 588 b 1025 499 1025 499 1025 499 b 958 245 1025 411 1003 326 b 769 56 913 163 850 100 b 514 -12 688 10 603 -12 b 514 -12 514 -12 514 -12 b 260 56 425 -12 340 10 b 70 245 178 100 115 163 b 2 499 24 326 2 411 b 2 499 2 499 2 499 b 71 756 2 588 25 674 b 262 945 117 838 180 901 b 514 1011 345 989 428 1011 m 514 926 b 514 926 514 926 514 926 b 304 871 442 926 372 908 b 144 713 236 834 183 782 b 87 499 106 645 87 573 b 87 499 87 499 87 499 b 144 288 87 425 106 355 b 302 130 181 220 234 167 b 514 73 370 92 440 73 b 514 73 514 73 514 73 b 726 130 588 73 659 92 b 884 288 794 167 847 220 b 941 499 922 355 941 425 b 941 499 941 499 941 499 b 884 713 941 573 922 645 b 724 871 845 782 792 834 b 514 926 655 908 585 926 m 378 216 b 290 216 378 216 290 216 b 290 767 290 216 290 767 b 479 767 290 767 479 767 b 619 752 543 767 590 762 b 688 699 648 742 671 724 b 714 618 705 673 714 646 b 714 618 714 618 714 618 b 671 513 714 578 700 543 b 557 463 642 483 604 466 b 557 463 557 463 557 463 b 604 433 576 454 592 445 b 604 433 604 433 604 433 b 685 324 626 412 653 375 b 685 324 685 324 685 324 b 752 216 685 324 752 216 b 644 216 752 216 644 216 b 595 303 644 216 595 303 b 502 431 556 372 526 414 b 502 431 502 431 502 431 b 431 450 486 444 462 450 b 431 450 431 450 431 450 b 378 450 431 450 378 450 b 378 216 378 450 378 216 m 378 692 b 378 526 378 692 378 526 b 486 526 378 526 486 526 b 592 549 538 526 573 534 b 620 610 610 565 620 585 b 620 610 620 610 620 610 b 606 654 620 627 615 642 b 569 683 597 667 585 677 b 479 692 553 689 523 692 b 479 692 479 692 479 692 b 378 692 479 692 378 692 "},"":{"ha":767,"x_min":0,"x_max":0,"o":"m 788 1062 b -21 1062 788 1062 -21 1062 b -21 1149 -21 1062 -21 1149 b 788 1149 -21 1149 788 1149 b 788 1062 788 1149 788 1062 "},"":{"ha":555,"x_min":0,"x_max":0,"o":"m 87 823 b 87 823 87 823 87 823 b 142 956 87 876 105 920 b 275 1011 179 993 223 1011 b 275 1011 275 1011 275 1011 b 408 956 327 1011 372 993 b 463 823 445 920 463 876 b 463 823 463 823 463 823 b 408 690 463 771 445 727 b 275 635 371 653 327 635 b 275 635 275 635 275 635 b 142 690 223 635 179 653 b 87 823 105 726 87 771 m 161 823 b 161 823 161 823 161 823 b 195 743 161 791 172 765 b 275 709 217 720 243 709 b 275 709 275 709 275 709 b 356 743 307 709 334 720 b 389 823 378 765 389 791 b 389 823 389 823 389 823 b 356 905 389 855 378 882 b 275 938 334 927 307 938 b 275 938 275 938 275 938 b 195 905 243 938 217 927 b 161 823 172 882 161 855 "},"":{"ha":762,"x_min":0,"x_max":0,"o":"m 439 176 b 323 176 439 176 323 176 b 323 450 323 176 323 450 b 53 450 323 450 53 450 b 53 563 53 450 53 563 b 323 563 53 563 323 563 b 323 833 323 563 323 833 b 439 833 323 833 439 833 b 439 563 439 833 439 563 b 709 563 439 563 709 563 b 709 450 709 563 709 450 b 439 450 709 450 439 450 b 439 176 439 450 439 176 m 709 114 b 709 0 709 114 709 0 b 53 0 709 0 53 0 b 53 114 53 0 53 114 b 709 114 53 114 709 114 "},"":{"ha":463,"x_min":0,"x_max":0,"o":"m 439 497 b 17 497 439 497 17 497 b 49 574 20 523 31 549 b 49 574 49 574 49 574 b 189 704 77 613 124 656 b 305 795 254 751 293 781 b 305 795 305 795 305 795 b 330 852 322 813 330 832 b 330 852 330 852 330 852 b 307 905 330 873 322 891 b 237 926 291 920 267 926 b 237 926 237 926 237 926 b 170 911 207 926 184 921 b 134 849 155 900 143 880 b 134 849 134 849 134 849 b 31 860 134 849 31 860 b 100 971 44 910 67 947 b 239 1006 132 995 178 1006 b 239 1006 239 1006 239 1006 b 389 966 307 1006 357 993 b 437 869 421 940 437 907 b 437 869 437 869 437 869 b 397 761 437 831 423 795 b 397 761 397 761 397 761 b 258 645 376 736 330 697 b 258 645 258 645 258 645 b 178 579 220 617 193 595 b 178 579 178 579 178 579 b 439 579 178 579 439 579 b 439 497 439 579 439 497 "},"":{"ha":463,"x_min":0,"x_max":0,"o":"m 22 630 b 22 630 22 630 22 630 b 121 640 22 630 121 640 b 157 585 130 613 142 595 b 157 585 157 585 157 585 b 226 564 176 571 199 564 b 226 564 226 564 226 564 b 303 591 258 564 283 573 b 332 654 323 608 332 629 b 332 654 332 654 332 654 b 308 709 332 677 324 695 b 224 729 292 722 264 729 b 224 729 224 729 224 729 b 202 728 219 729 212 728 b 202 728 202 728 202 728 b 187 727 196 727 191 727 b 187 727 187 727 187 727 b 202 802 187 727 202 802 b 283 821 239 801 266 808 b 308 871 300 835 308 851 b 308 871 308 871 308 871 b 288 913 308 888 301 902 b 227 931 274 925 254 931 b 227 931 227 931 227 931 b 168 916 202 931 182 926 b 131 862 154 906 141 888 b 131 862 131 862 131 862 b 34 878 131 862 34 878 b 104 978 52 926 76 959 b 228 1006 132 997 174 1006 b 228 1006 228 1006 228 1006 b 370 970 293 1006 340 994 b 414 880 399 946 414 916 b 414 880 414 880 414 880 b 391 813 414 854 406 833 b 321 771 374 793 351 780 b 321 771 321 771 321 771 b 410 722 361 761 391 745 b 438 642 429 699 438 672 b 438 642 438 642 438 642 b 385 532 438 600 420 563 b 232 485 349 500 298 485 b 232 485 232 485 232 485 b 87 523 169 485 120 498 b 22 630 54 548 32 583 "},"":{"ha":463,"x_min":0,"x_max":0,"o":"m 252 810 b 151 810 252 810 151 810 b 241 1000 151 810 241 1000 b 401 1000 241 1000 401 1000 b 252 810 401 1000 252 810 "},"":{"ha":800,"x_min":0,"x_max":0,"o":"m 570 720 b 690 720 570 720 690 720 b 690 0 690 720 690 0 b 581 0 690 0 581 0 b 581 85 581 0 581 85 b 511 11 557 50 534 24 b 511 11 511 11 511 11 b 401 -17 479 -7 443 -17 b 401 -17 401 -17 401 -17 b 301 5 363 -17 330 -9 b 301 5 301 5 301 5 b 229 73 279 17 256 39 b 229 73 229 73 229 73 b 229 -276 229 73 229 -276 b 109 -276 229 -276 109 -276 b 109 720 109 -276 109 720 b 229 720 109 720 229 720 b 229 415 229 720 229 415 b 247 200 229 304 235 233 b 304 122 258 167 278 141 b 395 94 331 103 361 94 b 395 94 395 94 395 94 b 492 123 431 94 464 104 b 553 201 521 143 541 169 b 570 413 564 232 570 302 b 570 413 570 413 570 413 b 570 720 570 413 570 720 "},"":{"ha":746,"x_min":0,"x_max":0,"o":"m 387 -276 b 275 -276 387 -276 275 -276 b 275 433 275 -276 275 433 b 75 515 190 437 123 465 b 1 708 25 566 1 630 b 1 708 1 708 1 708 b 83 917 1 795 28 865 b 321 994 137 968 216 994 b 321 994 321 994 321 994 b 751 994 321 994 751 994 b 751 877 751 994 751 877 b 653 877 751 877 653 877 b 653 -276 653 877 653 -276 b 538 -276 653 -276 538 -276 b 538 877 538 -276 538 877 b 387 877 538 877 387 877 b 387 -276 387 877 387 -276 "},"":{"ha":463,"x_min":0,"x_max":0,"o":"m 300 432 b 161 432 300 432 161 432 b 161 571 161 432 161 571 b 300 571 161 571 300 571 b 300 432 300 571 300 432 "},"":{"ha":463,"x_min":0,"x_max":0,"o":"m 146 -104 b 146 -104 146 -104 146 -104 b 182 16 146 -104 182 16 b 273 16 182 16 273 16 b 250 -57 273 16 250 -57 b 337 -92 289 -62 317 -73 b 366 -157 357 -112 366 -133 b 366 -157 366 -157 366 -157 b 317 -246 366 -191 350 -220 b 170 -286 285 -273 236 -286 b 170 -286 170 -286 170 -286 b 73 -277 133 -286 100 -283 b 73 -277 73 -277 73 -277 b 80 -198 73 -277 80 -198 b 144 -201 109 -200 130 -201 b 144 -201 144 -201 144 -201 b 233 -183 186 -201 216 -195 b 233 -183 233 -183 233 -183 b 253 -150 246 -174 253 -163 b 253 -150 253 -150 253 -150 b 245 -128 253 -142 250 -134 b 216 -112 240 -122 231 -117 b 146 -104 202 -107 179 -105 "},"":{"ha":463,"x_min":0,"x_max":0,"o":"m 323 497 b 224 497 323 497 224 497 b 224 873 224 497 224 873 b 73 796 178 836 127 810 b 73 796 73 796 73 796 b 73 880 73 796 73 880 b 166 929 100 888 132 905 b 250 1006 201 953 229 979 b 250 1006 250 1006 250 1006 b 323 1006 250 1006 323 1006 b 323 497 323 1006 323 497 "},"":{"ha":507,"x_min":0,"x_max":0,"o":"m 253 1011 b 253 1011 253 1011 253 1011 b 414 943 319 1011 372 989 b 475 756 455 898 475 836 b 475 756 475 756 475 756 b 413 570 475 677 454 615 b 254 502 372 524 318 502 b 254 502 254 502 254 502 b 93 568 188 502 134 524 b 31 753 52 612 31 674 b 31 753 31 753 31 753 b 93 943 31 835 52 898 b 253 1011 134 989 187 1011 m 253 921 b 253 921 253 921 253 921 b 165 882 216 921 187 908 b 131 756 142 857 131 814 b 131 756 131 756 131 756 b 165 631 131 699 142 658 b 253 591 188 605 217 591 b 253 591 253 591 253 591 b 341 631 289 591 319 605 b 375 760 363 658 375 701 b 375 760 375 760 375 760 b 341 882 375 814 363 855 b 253 921 318 908 289 921 "},"":{"ha":772,"x_min":0,"x_max":0,"o":"m 360 49 b 536 358 360 49 536 358 b 359 667 536 358 359 667 b 460 667 359 667 460 667 b 676 358 460 667 676 358 b 460 49 676 358 460 49 b 360 49 460 49 360 49 m 95 49 b 274 358 95 49 274 358 b 95 667 274 358 95 667 b 197 667 95 667 197 667 b 410 358 197 667 410 358 b 197 49 410 358 197 49 b 95 49 197 49 95 49 "},"":{"ha":1158,"x_min":0,"x_max":0,"o":"m 277 -39 b 171 -39 277 -39 171 -39 b 918 1011 171 -39 918 1011 b 1024 1011 918 1011 1024 1011 b 277 -39 1024 1011 277 -39 m 323 497 b 224 497 323 497 224 497 b 224 873 224 497 224 873 b 73 796 178 836 127 810 b 73 796 73 796 73 796 b 73 880 73 796 73 880 b 166 929 100 888 132 905 b 250 1006 201 953 229 979 b 250 1006 250 1006 250 1006 b 323 1006 250 1006 323 1006 b 323 497 323 1006 323 497 m 1067 -21 b 970 -21 1067 -21 970 -21 b 970 83 970 -21 970 83 b 710 83 970 83 710 83 b 710 167 710 83 710 167 b 985 488 710 167 985 488 b 1067 488 985 488 1067 488 b 1067 157 1067 488 1067 157 b 1138 157 1067 157 1138 157 b 1138 83 1138 157 1138 83 b 1067 83 1138 83 1067 83 b 1067 -21 1067 83 1067 -21 m 814 157 b 970 157 814 157 970 157 b 970 335 970 157 970 335 b 814 157 970 335 814 157 "},"":{"ha":1158,"x_min":0,"x_max":0,"o":"m 261 -39 b 155 -39 261 -39 155 -39 b 901 1011 155 -39 901 1011 b 1008 1011 901 1011 1008 1011 b 261 -39 1008 1011 261 -39 m 323 497 b 224 497 323 497 224 497 b 224 873 224 497 224 873 b 73 796 178 836 127 810 b 73 796 73 796 73 796 b 73 880 73 796 73 880 b 166 929 100 888 132 905 b 250 1006 201 953 229 979 b 250 1006 250 1006 250 1006 b 323 1006 250 1006 323 1006 b 323 497 323 1006 323 497 m 1134 -21 b 711 -21 1134 -21 711 -21 b 744 56 714 4 725 30 b 744 56 744 56 744 56 b 884 185 772 95 819 138 b 1000 277 949 232 987 262 b 1000 277 1000 277 1000 277 b 1025 334 1017 295 1025 314 b 1025 334 1025 334 1025 334 b 1002 387 1025 355 1017 373 b 931 408 986 401 962 408 b 931 408 931 408 931 408 b 865 392 901 408 879 402 b 828 331 850 381 838 361 b 828 331 828 331 828 331 b 726 341 828 331 726 341 b 794 453 739 392 762 429 b 933 488 827 477 873 488 b 933 488 933 488 933 488 b 1084 448 1002 488 1052 475 b 1131 351 1116 422 1131 389 b 1131 351 1131 351 1131 351 b 1091 243 1131 313 1118 277 b 1091 243 1091 243 1091 243 b 953 126 1071 218 1025 178 b 953 126 953 126 953 126 b 872 61 915 98 888 77 b 872 61 872 61 872 61 b 1134 61 872 61 1134 61 b 1134 -21 1134 61 1134 -21 "},"":{"ha":1158,"x_min":0,"x_max":0,"o":"m 277 -39 b 171 -39 277 -39 171 -39 b 918 1011 171 -39 918 1011 b 1024 1011 918 1011 1024 1011 b 277 -39 1024 1011 277 -39 m 22 630 b 22 630 22 630 22 630 b 121 640 22 630 121 640 b 157 585 130 613 142 595 b 157 585 157 585 157 585 b 226 564 176 571 199 564 b 226 564 226 564 226 564 b 303 591 258 564 283 573 b 332 654 323 608 332 629 b 332 654 332 654 332 654 b 308 709 332 677 324 695 b 227 729 292 722 264 729 b 227 729 227 729 227 729 b 187 727 204 728 191 727 b 187 727 187 727 187 727 b 202 802 187 727 202 802 b 283 821 239 801 266 808 b 308 871 300 835 308 851 b 308 871 308 871 308 871 b 288 913 308 888 301 902 b 227 931 274 925 254 931 b 227 931 227 931 227 931 b 168 916 202 931 182 926 b 131 862 154 906 141 888 b 131 862 131 862 131 862 b 34 878 131 862 34 878 b 104 978 52 926 76 959 b 228 1006 132 997 174 1006 b 228 1006 228 1006 228 1006 b 370 970 293 1006 340 994 b 414 880 399 946 414 916 b 414 880 414 880 414 880 b 391 813 414 854 406 833 b 321 771 374 793 351 780 b 321 771 321 771 321 771 b 410 722 361 761 391 745 b 438 642 429 699 438 672 b 438 642 438 642 438 642 b 385 532 438 600 420 563 b 232 485 349 500 298 485 b 232 485 232 485 232 485 b 87 523 169 485 120 498 b 22 630 54 548 32 583 m 1067 -21 b 969 -21 1067 -21 969 -21 b 969 83 969 -21 969 83 b 710 83 969 83 710 83 b 710 167 710 83 710 167 b 984 488 710 167 984 488 b 1067 488 984 488 1067 488 b 1067 157 1067 488 1067 157 b 1138 157 1067 157 1138 157 b 1138 83 1138 157 1138 83 b 1067 83 1138 83 1067 83 b 1067 -21 1067 83 1067 -21 m 814 157 b 969 157 814 157 969 157 b 969 335 969 157 969 335 b 814 157 969 335 814 157 "},"":{"ha":848,"x_min":0,"x_max":0,"o":"m 358 720 b 497 720 358 720 497 720 b 497 581 497 720 497 581 b 358 581 497 581 358 581 b 358 720 358 581 358 720 m 372 475 b 489 475 372 475 489 475 b 490 441 490 460 490 448 b 490 441 490 441 490 441 b 469 314 490 391 483 349 b 469 314 469 314 469 314 b 421 235 459 288 444 261 b 421 235 421 235 421 235 b 334 150 405 215 376 187 b 252 61 291 113 264 83 b 233 -12 239 39 233 15 b 233 -12 233 -12 233 -12 b 288 -137 233 -60 251 -101 b 425 -191 326 -173 371 -191 b 425 -191 425 -191 425 -191 b 555 -142 476 -191 519 -174 b 623 10 589 -109 612 -58 b 623 10 623 10 623 10 b 748 -4 623 10 748 -4 b 648 -216 736 -96 703 -167 b 427 -291 591 -266 518 -291 b 427 -291 427 -291 427 -291 b 194 -212 329 -291 252 -264 b 107 -20 136 -159 107 -95 b 107 -20 107 -20 107 -20 b 138 100 107 24 117 64 b 256 233 157 136 197 181 b 256 233 256 233 256 233 b 335 312 296 269 323 295 b 362 370 347 329 356 348 b 372 475 368 391 371 427 b 372 475 372 475 372 475 "},"":{"ha":926,"x_min":0,"x_max":0,"o":"m 138 0 b -2 0 138 0 -2 0 b 380 994 -2 0 380 994 b 522 994 380 994 522 994 b 928 0 522 994 928 0 b 779 0 928 0 779 0 b 663 301 779 0 663 301 b 247 301 663 301 247 301 b 138 0 247 301 138 0 m 394 700 b 285 408 394 700 285 408 b 622 408 285 408 622 408 b 518 684 622 408 518 684 b 448 890 486 767 463 836 b 448 890 448 890 448 890 b 394 700 435 826 417 763 b 394 700 394 700 394 700 m 467 1245 b 559 1055 467 1245 559 1055 b 460 1055 559 1055 460 1055 b 304 1245 460 1055 304 1245 b 467 1245 304 1245 467 1245 "},"":{"ha":926,"x_min":0,"x_max":0,"o":"m 138 0 b -2 0 138 0 -2 0 b 380 994 -2 0 380 994 b 522 994 380 994 522 994 b 928 0 522 994 928 0 b 779 0 928 0 779 0 b 663 301 779 0 663 301 b 247 301 663 301 247 301 b 138 0 247 301 138 0 m 394 700 b 285 408 394 700 285 408 b 622 408 285 408 622 408 b 518 684 622 408 518 684 b 448 890 486 767 463 836 b 448 890 448 890 448 890 b 394 700 435 826 417 763 b 394 700 394 700 394 700 m 468 1055 b 367 1055 468 1055 367 1055 b 457 1245 367 1055 457 1245 b 617 1245 457 1245 617 1245 b 468 1055 617 1245 468 1055 "},"":{"ha":926,"x_min":0,"x_max":0,"o":"m 138 0 b -2 0 138 0 -2 0 b 380 994 -2 0 380 994 b 522 994 380 994 522 994 b 928 0 522 994 928 0 b 779 0 928 0 779 0 b 663 301 779 0 663 301 b 247 301 663 301 247 301 b 138 0 247 301 138 0 m 394 700 b 285 408 394 700 285 408 b 622 408 285 408 622 408 b 518 684 622 408 518 684 b 448 890 486 767 463 836 b 448 890 448 890 448 890 b 394 700 435 826 417 763 b 394 700 394 700 394 700 m 525 1055 b 450 1171 525 1055 450 1171 b 374 1055 450 1171 374 1055 b 234 1055 374 1055 234 1055 b 380 1245 234 1055 380 1245 b 511 1245 380 1245 511 1245 b 663 1055 511 1245 663 1055 b 525 1055 663 1055 525 1055 "},"":{"ha":926,"x_min":0,"x_max":0,"o":"m 138 0 b -2 0 138 0 -2 0 b 380 994 -2 0 380 994 b 522 994 380 994 522 994 b 928 0 522 994 928 0 b 779 0 928 0 779 0 b 663 301 779 0 663 301 b 247 301 663 301 247 301 b 138 0 247 301 138 0 m 394 700 b 285 408 394 700 285 408 b 622 408 285 408 622 408 b 518 684 622 408 518 684 b 448 890 486 767 463 836 b 448 890 448 890 448 890 b 394 700 435 826 417 763 b 394 700 394 700 394 700 m 327 1055 b 237 1055 327 1055 237 1055 b 275 1168 236 1102 249 1140 b 275 1168 275 1168 275 1168 b 374 1210 301 1196 334 1210 b 374 1210 374 1210 374 1210 b 489 1173 402 1210 441 1198 b 489 1173 489 1173 489 1173 b 553 1153 515 1160 537 1153 b 553 1153 553 1153 553 1153 b 586 1165 567 1153 578 1157 b 602 1212 593 1173 599 1188 b 602 1212 602 1212 602 1212 b 690 1212 602 1212 690 1212 b 652 1096 689 1160 676 1122 b 557 1057 627 1070 595 1057 b 557 1057 557 1057 557 1057 b 445 1095 529 1057 492 1070 b 445 1095 445 1095 445 1095 b 378 1120 414 1112 393 1120 b 378 1120 378 1120 378 1120 b 341 1103 363 1120 351 1114 b 341 1103 341 1103 341 1103 b 327 1055 331 1093 326 1076 b 327 1055 327 1055 327 1055 "},"":{"ha":926,"x_min":0,"x_max":0,"o":"m 138 0 b -2 0 138 0 -2 0 b 380 994 -2 0 380 994 b 522 994 380 994 522 994 b 928 0 522 994 928 0 b 779 0 928 0 779 0 b 663 301 779 0 663 301 b 247 301 663 301 247 301 b 138 0 247 301 138 0 m 394 700 b 285 408 394 700 285 408 b 622 408 285 408 622 408 b 518 684 622 408 518 684 b 448 890 486 767 463 836 b 448 890 448 890 448 890 b 394 700 435 826 417 763 b 394 700 394 700 394 700 m 385 1055 b 257 1055 385 1055 257 1055 b 257 1194 257 1055 257 1194 b 385 1194 257 1194 385 1194 b 385 1055 385 1194 385 1055 m 637 1055 b 510 1055 637 1055 510 1055 b 510 1194 510 1055 510 1194 b 637 1194 510 1194 637 1194 b 637 1055 637 1194 637 1055 "},"":{"ha":926,"x_min":0,"x_max":0,"o":"m 138 0 b -2 0 138 0 -2 0 b 380 994 -2 0 380 994 b 522 994 380 994 522 994 b 928 0 522 994 928 0 b 779 0 928 0 779 0 b 663 301 779 0 663 301 b 247 301 663 301 247 301 b 138 0 247 301 138 0 m 394 700 b 285 408 394 700 285 408 b 622 408 285 408 622 408 b 518 684 622 408 518 684 b 448 890 486 767 463 836 b 448 890 448 890 448 890 b 394 700 435 826 417 763 b 394 700 394 700 394 700 m 326 1086 b 326 1086 326 1086 326 1086 b 363 1171 326 1119 338 1147 b 448 1207 387 1195 415 1207 b 448 1207 448 1207 448 1207 b 534 1171 481 1207 511 1195 b 570 1083 558 1147 570 1118 b 570 1083 570 1083 570 1083 b 534 995 570 1048 558 1019 b 449 959 511 971 482 959 b 449 959 449 959 449 959 b 362 996 415 959 386 971 b 326 1086 338 1019 326 1050 m 378 1085 b 378 1085 378 1085 378 1085 b 399 1031 378 1064 385 1046 b 450 1010 414 1017 430 1010 b 450 1010 450 1010 450 1010 b 500 1031 469 1010 486 1017 b 522 1084 515 1046 522 1063 b 522 1084 522 1084 522 1084 b 500 1136 522 1104 515 1122 b 450 1158 486 1150 469 1158 b 450 1158 450 1158 450 1158 b 399 1137 430 1158 414 1151 b 378 1085 385 1122 378 1105 "},"":{"ha":1389,"x_min":0,"x_max":0,"o":"m 143 0 b 1 0 143 0 1 0 b 479 994 1 0 479 994 b 1295 994 479 994 1295 994 b 1295 877 1295 994 1295 877 b 795 877 1295 877 795 877 b 795 571 795 877 795 571 b 1259 571 795 571 1259 571 b 1259 454 1259 571 1259 454 b 795 454 1259 454 795 454 b 795 117 795 454 795 117 b 1313 117 795 117 1313 117 b 1313 0 1313 117 1313 0 b 663 0 1313 0 663 0 b 663 287 663 0 663 287 b 279 287 663 287 279 287 b 143 0 279 287 143 0 m 564 877 b 334 404 564 877 334 404 b 663 404 334 404 663 404 b 663 877 663 404 663 877 b 564 877 663 877 564 877 "},"":{"ha":1003,"x_min":0,"x_max":0,"o":"m 817 349 b 817 349 817 349 817 349 b 948 315 817 349 948 315 b 800 68 920 208 871 125 b 536 -17 728 12 640 -17 b 536 -17 536 -17 536 -17 b 275 49 429 -17 342 5 b 122 238 208 92 157 155 b 69 505 87 321 69 410 b 69 505 69 505 69 505 b 129 776 69 608 89 699 b 298 951 168 852 224 911 b 538 1011 370 991 451 1011 b 538 1011 538 1011 538 1011 b 789 935 638 1011 722 986 b 931 722 857 884 905 813 b 931 722 931 722 931 722 b 802 691 931 722 802 691 b 701 849 779 764 745 816 b 536 899 657 882 602 899 b 536 899 536 899 536 899 b 345 844 459 899 395 880 b 236 696 293 807 257 758 b 205 505 215 635 205 571 b 205 505 205 505 205 505 b 242 284 205 420 217 347 b 357 142 267 221 304 174 b 526 96 409 111 465 96 b 526 96 526 96 526 96 b 713 159 600 96 662 117 b 817 349 764 202 798 265 m 420 -104 b 420 -104 420 -104 420 -104 b 456 16 420 -104 456 16 b 547 16 456 16 547 16 b 524 -57 547 16 524 -57 b 611 -92 563 -62 591 -73 b 640 -157 631 -112 640 -133 b 640 -157 640 -157 640 -157 b 591 -246 640 -191 624 -220 b 444 -286 559 -273 510 -286 b 444 -286 444 -286 444 -286 b 347 -277 407 -286 374 -283 b 347 -277 347 -277 347 -277 b 354 -198 347 -277 354 -198 b 418 -201 383 -200 404 -201 b 418 -201 418 -201 418 -201 b 507 -183 460 -201 490 -195 b 507 -183 507 -183 507 -183 b 527 -150 520 -174 527 -163 b 527 -150 527 -150 527 -150 b 519 -128 527 -142 524 -134 b 490 -112 514 -122 505 -117 b 420 -104 476 -107 453 -105 "},"":{"ha":926,"x_min":0,"x_max":0,"o":"m 852 0 b 110 0 852 0 110 0 b 110 994 110 0 110 994 b 829 994 110 994 829 994 b 829 877 829 994 829 877 b 241 877 829 877 241 877 b 241 572 241 877 241 572 b 791 572 241 572 791 572 b 791 456 791 572 791 456 b 241 456 791 456 241 456 b 241 117 241 456 241 117 b 852 117 241 117 852 117 b 852 0 852 117 852 0 m 485 1245 b 576 1055 485 1245 576 1055 b 478 1055 576 1055 478 1055 b 321 1245 478 1055 321 1245 b 485 1245 321 1245 485 1245 "},"":{"ha":926,"x_min":0,"x_max":0,"o":"m 852 0 b 110 0 852 0 110 0 b 110 994 110 0 110 994 b 829 994 110 994 829 994 b 829 877 829 994 829 877 b 241 877 829 877 241 877 b 241 572 241 877 241 572 b 791 572 241 572 791 572 b 791 456 791 572 791 456 b 241 456 791 456 241 456 b 241 117 241 456 241 117 b 852 117 241 117 852 117 b 852 0 852 117 852 0 m 482 1055 b 381 1055 482 1055 381 1055 b 471 1245 381 1055 471 1245 b 631 1245 471 1245 631 1245 b 482 1055 631 1245 482 1055 "},"":{"ha":926,"x_min":0,"x_max":0,"o":"m 852 0 b 110 0 852 0 110 0 b 110 994 110 0 110 994 b 829 994 110 994 829 994 b 829 877 829 994 829 877 b 241 877 829 877 241 877 b 241 572 241 877 241 572 b 791 572 241 572 791 572 b 791 456 791 572 791 456 b 241 456 791 456 241 456 b 241 117 241 456 241 117 b 852 117 241 117 852 117 b 852 0 852 117 852 0 m 554 1055 b 479 1171 554 1055 479 1171 b 403 1055 479 1171 403 1055 b 263 1055 403 1055 263 1055 b 410 1245 263 1055 410 1245 b 540 1245 410 1245 540 1245 b 692 1055 540 1245 692 1055 b 554 1055 692 1055 554 1055 "},"":{"ha":926,"x_min":0,"x_max":0,"o":"m 852 0 b 110 0 852 0 110 0 b 110 994 110 0 110 994 b 829 994 110 994 829 994 b 829 877 829 994 829 877 b 241 877 829 877 241 877 b 241 572 241 877 241 572 b 791 572 241 572 791 572 b 791 456 791 572 791 456 b 241 456 791 456 241 456 b 241 117 241 456 241 117 b 852 117 241 117 852 117 b 852 0 852 117 852 0 m 416 1055 b 288 1055 416 1055 288 1055 b 288 1194 288 1055 288 1194 b 416 1194 288 1194 416 1194 b 416 1055 416 1194 416 1055 m 669 1055 b 541 1055 669 1055 541 1055 b 541 1194 541 1055 541 1194 b 669 1194 541 1194 669 1194 b 669 1055 669 1194 669 1055 "},"":{"ha":386,"x_min":0,"x_max":0,"o":"m 261 0 b 130 0 261 0 130 0 b 130 994 130 0 130 994 b 261 994 130 994 261 994 b 261 0 261 994 261 0 m 200 1245 b 292 1055 200 1245 292 1055 b 193 1055 292 1055 193 1055 b 37 1245 193 1055 37 1245 b 200 1245 37 1245 200 1245 "},"":{"ha":386,"x_min":0,"x_max":0,"o":"m 261 0 b 130 0 261 0 130 0 b 130 994 130 0 130 994 b 261 994 130 994 261 994 b 261 0 261 994 261 0 m 197 1055 b 96 1055 197 1055 96 1055 b 186 1245 96 1055 186 1245 b 346 1245 186 1245 346 1245 b 197 1055 346 1245 197 1055 "},"":{"ha":386,"x_min":0,"x_max":0,"o":"m 261 0 b 130 0 261 0 130 0 b 130 994 130 0 130 994 b 261 994 130 994 261 994 b 261 0 261 994 261 0 m 269 1055 b 195 1171 269 1055 195 1171 b 118 1055 195 1171 118 1055 b -22 1055 118 1055 -22 1055 b 125 1245 -22 1055 125 1245 b 255 1245 125 1245 255 1245 b 408 1055 255 1245 408 1055 b 269 1055 408 1055 269 1055 "},"":{"ha":386,"x_min":0,"x_max":0,"o":"m 261 0 b 130 0 261 0 130 0 b 130 994 130 0 130 994 b 261 994 130 994 261 994 b 261 0 261 994 261 0 m 130 1055 b 3 1055 130 1055 3 1055 b 3 1194 3 1055 3 1194 b 130 1194 3 1194 130 1194 b 130 1055 130 1194 130 1055 m 383 1055 b 256 1055 383 1055 256 1055 b 256 1194 256 1055 256 1194 b 383 1194 256 1194 383 1194 b 383 1055 383 1194 383 1055 "},"":{"ha":1003,"x_min":0,"x_max":0,"o":"m 466 0 b 107 0 466 0 107 0 b 107 452 107 0 107 452 b -2 452 107 452 -2 452 b -2 542 -2 452 -2 542 b 107 542 -2 542 107 542 b 107 994 107 542 107 994 b 450 994 107 994 450 994 b 627 980 527 994 586 989 b 627 980 627 980 627 980 b 772 909 684 967 732 943 b 772 909 772 909 772 909 b 890 739 825 865 864 808 b 929 503 916 670 929 591 b 929 503 929 503 929 503 b 881 241 929 401 913 314 b 766 82 849 168 810 115 b 611 12 721 49 669 26 b 611 12 611 12 611 12 b 466 0 579 4 530 0 b 466 0 466 0 466 0 m 239 452 b 239 117 239 452 239 117 b 451 117 239 117 451 117 b 606 136 517 117 568 123 b 694 186 643 148 672 165 b 694 186 694 186 694 186 b 767 312 725 218 749 260 b 793 504 785 364 793 429 b 793 504 793 504 793 504 b 768 690 793 582 785 644 b 699 802 750 737 727 774 b 606 861 671 830 640 850 b 448 877 571 871 519 877 b 448 877 448 877 448 877 b 239 877 448 877 239 877 b 239 542 239 877 239 542 b 513 542 239 542 513 542 b 513 452 513 542 513 452 b 239 452 513 452 239 452 "},"":{"ha":1003,"x_min":0,"x_max":0,"o":"m 232 0 b 106 0 232 0 106 0 b 106 994 106 0 106 994 b 241 994 106 994 241 994 b 763 214 241 994 763 214 b 763 994 763 214 763 994 b 889 994 763 994 889 994 b 889 0 889 994 889 0 b 754 0 889 0 754 0 b 232 781 754 0 232 781 b 232 0 232 781 232 0 m 382 1055 b 292 1055 382 1055 292 1055 b 330 1168 291 1102 304 1140 b 330 1168 330 1168 330 1168 b 429 1210 356 1196 389 1210 b 429 1210 429 1210 429 1210 b 544 1173 457 1210 496 1198 b 544 1173 544 1173 544 1173 b 608 1153 570 1160 592 1153 b 608 1153 608 1153 608 1153 b 641 1165 622 1153 633 1157 b 657 1212 648 1173 654 1188 b 657 1212 657 1212 657 1212 b 745 1212 657 1212 745 1212 b 707 1096 744 1160 731 1122 b 612 1057 682 1070 650 1057 b 612 1057 612 1057 612 1057 b 500 1095 584 1057 547 1070 b 500 1095 500 1095 500 1095 b 433 1120 469 1112 448 1120 b 433 1120 433 1120 433 1120 b 396 1103 418 1120 406 1114 b 396 1103 396 1103 396 1103 b 382 1055 386 1093 381 1076 b 382 1055 382 1055 382 1055 "},"":{"ha":1080,"x_min":0,"x_max":0,"o":"m 67 484 b 67 484 67 484 67 484 b 200 872 67 649 111 779 b 543 1012 289 965 403 1012 b 543 1012 543 1012 543 1012 b 791 946 635 1012 718 990 b 960 763 865 902 922 841 b 1018 496 999 684 1018 595 b 1018 496 1018 496 1018 496 b 957 225 1018 395 998 304 b 784 45 916 146 859 85 b 543 -17 709 3 629 -17 b 543 -17 543 -17 543 -17 b 292 51 449 -17 366 5 b 124 236 218 96 162 158 b 67 484 86 314 67 397 m 203 482 b 203 482 203 482 203 482 b 300 199 203 362 235 268 b 542 96 364 130 445 96 b 542 96 542 96 542 96 b 787 200 641 96 722 130 b 882 496 850 270 882 368 b 882 496 882 496 882 496 b 842 709 882 577 869 648 b 722 849 814 769 774 816 b 544 899 669 882 610 899 b 544 899 544 899 544 899 b 304 803 451 899 371 867 b 203 482 237 739 203 632 m 530 1245 b 621 1055 530 1245 621 1055 b 523 1055 621 1055 523 1055 b 366 1245 523 1055 366 1245 b 530 1245 366 1245 530 1245 "},"":{"ha":1080,"x_min":0,"x_max":0,"o":"m 67 484 b 67 484 67 484 67 484 b 200 872 67 649 111 779 b 543 1012 289 965 403 1012 b 543 1012 543 1012 543 1012 b 791 946 635 1012 718 990 b 960 763 865 902 922 841 b 1018 496 999 684 1018 595 b 1018 496 1018 496 1018 496 b 957 225 1018 395 998 304 b 784 45 916 146 859 85 b 543 -17 709 3 629 -17 b 543 -17 543 -17 543 -17 b 292 51 449 -17 366 5 b 124 236 218 96 162 158 b 67 484 86 314 67 397 m 203 482 b 203 482 203 482 203 482 b 300 199 203 362 235 268 b 542 96 364 130 445 96 b 542 96 542 96 542 96 b 787 200 641 96 722 130 b 882 496 850 270 882 368 b 882 496 882 496 882 496 b 842 709 882 577 869 648 b 722 849 814 769 774 816 b 544 899 669 882 610 899 b 544 899 544 899 544 899 b 304 803 451 899 371 867 b 203 482 237 739 203 632 m 560 1055 b 459 1055 560 1055 459 1055 b 549 1245 459 1055 549 1245 b 709 1245 549 1245 709 1245 b 560 1055 709 1245 560 1055 "},"":{"ha":1080,"x_min":0,"x_max":0,"o":"m 67 484 b 67 484 67 484 67 484 b 200 872 67 649 111 779 b 543 1012 289 965 403 1012 b 543 1012 543 1012 543 1012 b 791 946 635 1012 718 990 b 960 763 865 902 922 841 b 1018 496 999 684 1018 595 b 1018 496 1018 496 1018 496 b 957 225 1018 395 998 304 b 784 45 916 146 859 85 b 543 -17 709 3 629 -17 b 543 -17 543 -17 543 -17 b 292 51 449 -17 366 5 b 124 236 218 96 162 158 b 67 484 86 314 67 397 m 203 482 b 203 482 203 482 203 482 b 300 199 203 362 235 268 b 542 96 364 130 445 96 b 542 96 542 96 542 96 b 787 200 641 96 722 130 b 882 496 850 270 882 368 b 882 496 882 496 882 496 b 842 709 882 577 869 648 b 722 849 814 769 774 816 b 544 899 669 882 610 899 b 544 899 544 899 544 899 b 304 803 451 899 371 867 b 203 482 237 739 203 632 m 616 1055 b 541 1171 616 1055 541 1171 b 465 1055 541 1171 465 1055 b 325 1055 465 1055 325 1055 b 471 1245 325 1055 471 1245 b 602 1245 471 1245 602 1245 b 754 1055 602 1245 754 1055 b 616 1055 754 1055 616 1055 "},"":{"ha":1080,"x_min":0,"x_max":0,"o":"m 67 484 b 67 484 67 484 67 484 b 200 872 67 649 111 779 b 543 1012 289 965 403 1012 b 543 1012 543 1012 543 1012 b 791 946 635 1012 718 990 b 960 763 865 902 922 841 b 1018 496 999 684 1018 595 b 1018 496 1018 496 1018 496 b 957 225 1018 395 998 304 b 784 45 916 146 859 85 b 543 -17 709 3 629 -17 b 543 -17 543 -17 543 -17 b 292 51 449 -17 366 5 b 124 236 218 96 162 158 b 67 484 86 314 67 397 m 203 482 b 203 482 203 482 203 482 b 300 199 203 362 235 268 b 542 96 364 130 445 96 b 542 96 542 96 542 96 b 787 200 641 96 722 130 b 882 496 850 270 882 368 b 882 496 882 496 882 496 b 842 709 882 577 869 648 b 722 849 814 769 774 816 b 544 899 669 882 610 899 b 544 899 544 899 544 899 b 304 803 451 899 371 867 b 203 482 237 739 203 632 m 406 1055 b 316 1055 406 1055 316 1055 b 355 1168 315 1102 328 1140 b 355 1168 355 1168 355 1168 b 454 1210 380 1196 414 1210 b 454 1210 454 1210 454 1210 b 568 1173 481 1210 520 1198 b 568 1173 568 1173 568 1173 b 632 1153 595 1160 616 1153 b 632 1153 632 1153 632 1153 b 665 1165 646 1153 658 1157 b 682 1212 673 1173 678 1188 b 682 1212 682 1212 682 1212 b 770 1212 682 1212 770 1212 b 731 1096 768 1160 755 1122 b 637 1057 706 1070 675 1057 b 637 1057 637 1057 637 1057 b 524 1095 608 1057 571 1070 b 524 1095 524 1095 524 1095 b 458 1120 494 1112 472 1120 b 458 1120 458 1120 458 1120 b 420 1103 442 1120 430 1114 b 420 1103 420 1103 420 1103 b 406 1055 410 1093 406 1076 b 406 1055 406 1055 406 1055 "},"":{"ha":1080,"x_min":0,"x_max":0,"o":"m 67 484 b 67 484 67 484 67 484 b 200 872 67 649 111 779 b 543 1012 289 965 403 1012 b 543 1012 543 1012 543 1012 b 791 946 635 1012 718 990 b 960 763 865 902 922 841 b 1018 496 999 684 1018 595 b 1018 496 1018 496 1018 496 b 957 225 1018 395 998 304 b 784 45 916 146 859 85 b 543 -17 709 3 629 -17 b 543 -17 543 -17 543 -17 b 292 51 449 -17 366 5 b 124 236 218 96 162 158 b 67 484 86 314 67 397 m 203 482 b 203 482 203 482 203 482 b 300 199 203 362 235 268 b 542 96 364 130 445 96 b 542 96 542 96 542 96 b 787 200 641 96 722 130 b 882 496 850 270 882 368 b 882 496 882 496 882 496 b 842 709 882 577 869 648 b 722 849 814 769 774 816 b 544 899 669 882 610 899 b 544 899 544 899 544 899 b 304 803 451 899 371 867 b 203 482 237 739 203 632 m 477 1055 b 350 1055 477 1055 350 1055 b 350 1194 350 1055 350 1194 b 477 1194 350 1194 477 1194 b 477 1055 477 1194 477 1055 m 730 1055 b 603 1055 730 1055 603 1055 b 603 1194 603 1055 603 1194 b 730 1194 603 1194 730 1194 b 730 1055 730 1194 730 1055 "},"":{"ha":811,"x_min":0,"x_max":0,"o":"m 191 195 b 109 277 191 195 109 277 b 323 491 109 277 323 491 b 110 704 323 491 110 704 b 193 787 110 704 193 787 b 406 574 193 787 406 574 b 618 786 406 574 618 786 b 699 704 618 786 699 704 b 488 492 699 704 488 492 b 701 279 488 492 701 279 b 618 196 701 279 618 196 b 405 409 618 196 405 409 b 191 195 405 409 191 195 "},"":{"ha":1080,"x_min":0,"x_max":0,"o":"m 848 903 b 848 903 848 903 848 903 b 962 1031 848 903 962 1031 b 1029 974 962 1031 1029 974 b 909 840 1029 974 909 840 b 988 688 948 782 975 731 b 988 688 988 688 988 688 b 1015 496 1006 631 1015 567 b 1015 496 1015 496 1015 496 b 954 224 1015 395 995 304 b 781 44 912 145 854 85 b 543 -17 706 3 627 -17 b 543 -17 543 -17 543 -17 b 374 9 481 -17 425 -8 b 374 9 374 9 374 9 b 237 87 335 23 290 49 b 237 87 237 87 237 87 b 123 -40 237 87 123 -40 b 56 17 123 -40 56 17 b 176 151 56 17 176 151 b 87 323 132 218 102 275 b 64 495 72 371 64 428 b 64 495 64 495 64 495 b 125 768 64 597 85 688 b 297 949 166 848 223 908 b 542 1011 370 991 452 1011 b 542 1011 542 1011 542 1011 b 701 987 602 1011 656 1003 b 848 903 747 971 795 943 m 260 245 b 766 812 260 245 766 812 b 655 880 724 845 687 868 b 543 899 623 892 585 899 b 543 899 543 899 543 899 b 297 798 444 899 361 865 b 200 497 233 731 200 631 b 200 497 200 497 200 497 b 215 357 200 445 205 398 b 215 357 215 357 215 357 b 260 245 222 327 237 290 b 260 245 260 245 260 245 m 822 742 b 822 742 822 742 822 742 b 318 178 822 742 318 178 b 414 118 353 149 385 130 b 414 118 414 118 414 118 b 539 96 453 103 494 96 b 539 96 539 96 539 96 b 783 200 637 96 719 130 b 880 493 848 270 880 368 b 880 493 880 493 880 493 b 822 742 880 587 861 670 "},"":{"ha":1003,"x_min":0,"x_max":0,"o":"m 760 420 b 760 994 760 420 760 994 b 891 994 760 994 891 994 b 891 420 891 994 891 420 b 857 182 891 320 880 241 b 735 39 835 123 794 75 b 503 -17 676 1 598 -17 b 503 -17 503 -17 503 -17 b 274 31 410 -17 333 -1 b 147 171 215 63 172 110 b 109 420 122 231 109 315 b 109 420 109 420 109 420 b 109 994 109 420 109 994 b 241 994 109 994 241 994 b 241 420 241 994 241 420 b 265 230 241 334 249 271 b 348 135 281 189 309 157 b 491 102 387 113 435 102 b 491 102 491 102 491 102 b 698 168 588 102 656 123 b 760 420 739 212 760 296 b 760 420 760 420 760 420 m 488 1245 b 579 1055 488 1245 579 1055 b 481 1055 579 1055 481 1055 b 324 1245 481 1055 324 1245 b 488 1245 324 1245 488 1245 "},"":{"ha":1003,"x_min":0,"x_max":0,"o":"m 760 420 b 760 994 760 420 760 994 b 891 994 760 994 891 994 b 891 420 891 994 891 420 b 857 182 891 320 880 241 b 735 39 835 123 794 75 b 503 -17 676 1 598 -17 b 503 -17 503 -17 503 -17 b 274 31 410 -17 333 -1 b 147 171 215 63 172 110 b 109 420 122 231 109 315 b 109 420 109 420 109 420 b 109 994 109 420 109 994 b 241 994 109 994 241 994 b 241 420 241 994 241 420 b 265 230 241 334 249 271 b 348 135 281 189 309 157 b 491 102 387 113 435 102 b 491 102 491 102 491 102 b 698 168 588 102 656 123 b 760 420 739 212 760 296 b 760 420 760 420 760 420 m 517 1055 b 416 1055 517 1055 416 1055 b 507 1245 416 1055 507 1245 b 667 1245 507 1245 667 1245 b 517 1055 667 1245 517 1055 "},"":{"ha":1003,"x_min":0,"x_max":0,"o":"m 760 420 b 760 994 760 420 760 994 b 891 994 760 994 891 994 b 891 420 891 994 891 420 b 857 182 891 320 880 241 b 735 39 835 123 794 75 b 503 -17 676 1 598 -17 b 503 -17 503 -17 503 -17 b 274 31 410 -17 333 -1 b 147 171 215 63 172 110 b 109 420 122 231 109 315 b 109 420 109 420 109 420 b 109 994 109 420 109 994 b 241 994 109 994 241 994 b 241 420 241 994 241 420 b 265 230 241 334 249 271 b 348 135 281 189 309 157 b 491 102 387 113 435 102 b 491 102 491 102 491 102 b 698 168 588 102 656 123 b 760 420 739 212 760 296 b 760 420 760 420 760 420 m 574 1055 b 499 1171 574 1055 499 1171 b 422 1055 499 1171 422 1055 b 283 1055 422 1055 283 1055 b 429 1245 283 1055 429 1245 b 559 1245 429 1245 559 1245 b 712 1055 559 1245 712 1055 b 574 1055 712 1055 574 1055 "},"":{"ha":1003,"x_min":0,"x_max":0,"o":"m 760 420 b 760 994 760 420 760 994 b 891 994 760 994 891 994 b 891 420 891 994 891 420 b 857 182 891 320 880 241 b 735 39 835 123 794 75 b 503 -17 676 1 598 -17 b 503 -17 503 -17 503 -17 b 274 31 410 -17 333 -1 b 147 171 215 63 172 110 b 109 420 122 231 109 315 b 109 420 109 420 109 420 b 109 994 109 420 109 994 b 241 994 109 994 241 994 b 241 420 241 994 241 420 b 265 230 241 334 249 271 b 348 135 281 189 309 157 b 491 102 387 113 435 102 b 491 102 491 102 491 102 b 698 168 588 102 656 123 b 760 420 739 212 760 296 b 760 420 760 420 760 420 m 435 1055 b 308 1055 435 1055 308 1055 b 308 1194 308 1055 308 1194 b 435 1194 308 1194 435 1194 b 435 1055 435 1194 435 1055 m 688 1055 b 561 1055 688 1055 561 1055 b 561 1194 561 1055 561 1194 b 688 1194 561 1194 688 1194 b 688 1055 688 1194 688 1055 "},"":{"ha":926,"x_min":0,"x_max":0,"o":"m 519 0 b 387 0 519 0 387 0 b 387 421 387 0 387 421 b 4 994 387 421 4 994 b 164 994 4 994 164 994 b 360 694 164 994 360 694 b 461 526 396 638 430 583 b 461 526 461 526 461 526 b 570 702 491 578 527 637 b 570 702 570 702 570 702 b 762 994 570 702 762 994 b 916 994 762 994 916 994 b 519 421 916 994 519 421 b 519 0 519 421 519 0 m 477 1055 b 376 1055 477 1055 376 1055 b 467 1245 376 1055 467 1245 b 627 1245 467 1245 627 1245 b 477 1055 627 1245 477 1055 "},"":{"ha":926,"x_min":0,"x_max":0,"o":"m 239 0 b 107 0 239 0 107 0 b 107 994 107 0 107 994 b 239 994 107 994 239 994 b 239 792 239 994 239 792 b 482 792 239 792 482 792 b 634 783 548 792 599 789 b 634 783 634 783 634 783 b 757 736 683 774 724 758 b 836 640 790 713 817 681 b 866 504 856 598 866 553 b 866 504 866 504 866 504 b 785 290 866 420 839 349 b 494 202 732 231 634 202 b 494 202 494 202 494 202 b 239 202 494 202 239 202 b 239 0 239 202 239 0 m 239 675 b 239 319 239 675 239 319 b 496 319 239 319 496 319 b 677 367 581 319 641 335 b 730 500 713 399 730 443 b 730 500 730 500 730 500 b 699 606 730 541 720 576 b 616 665 678 636 651 656 b 616 665 616 665 616 665 b 493 675 594 671 553 675 b 493 675 493 675 493 675 b 239 675 493 675 239 675 "},"":{"ha":848,"x_min":0,"x_max":0,"o":"m 226 0 b 104 0 226 0 104 0 b 104 677 104 0 104 677 b 134 869 104 760 114 824 b 235 973 154 913 188 948 b 393 1011 281 998 334 1011 b 393 1011 393 1011 393 1011 b 578 953 471 1011 533 991 b 645 817 623 913 645 868 b 645 817 645 817 645 817 b 633 745 645 793 641 770 b 589 654 625 721 610 690 b 550 578 568 618 555 593 b 542 541 545 564 542 551 b 542 541 542 541 542 541 b 557 498 542 526 547 512 b 557 498 557 498 557 498 b 639 432 566 484 593 461 b 639 432 639 432 639 432 b 762 335 701 392 741 359 b 762 335 762 335 762 335 b 805 212 791 300 805 259 b 805 212 805 212 805 212 b 736 50 805 149 782 95 b 557 -17 689 5 630 -17 b 557 -17 557 -17 557 -17 b 408 29 500 -17 450 -1 b 311 146 365 60 332 98 b 311 146 311 146 311 146 b 416 195 311 146 416 195 b 484 108 439 153 462 124 b 555 83 507 92 530 83 b 555 83 555 83 555 83 b 644 119 590 83 619 95 b 680 201 668 142 680 170 b 680 201 680 201 680 201 b 659 267 680 227 673 248 b 659 267 659 267 659 267 b 583 326 649 278 624 298 b 583 326 583 326 583 326 b 444 442 507 378 461 416 b 444 442 444 442 444 442 b 416 522 425 468 416 494 b 416 522 416 522 416 522 b 426 575 416 539 420 557 b 470 662 432 593 446 622 b 515 751 493 702 508 732 b 526 804 523 771 526 789 b 526 804 526 804 526 804 b 490 879 526 832 514 857 b 391 911 465 900 432 911 b 391 911 391 911 391 911 b 272 866 342 911 302 896 b 226 672 241 836 226 772 b 226 672 226 672 226 672 b 226 0 226 672 226 0 "},"":{"ha":772,"x_min":0,"x_max":0,"o":"m 562 89 b 562 89 562 89 562 89 b 431 7 516 50 473 23 b 296 -16 389 -8 345 -16 b 296 -16 296 -16 296 -16 b 114 42 217 -16 157 3 b 50 190 71 81 50 130 b 50 190 50 190 50 190 b 75 287 50 225 58 258 b 138 357 90 316 111 339 b 225 397 163 374 193 388 b 225 397 225 397 225 397 b 334 415 249 403 286 409 b 334 415 334 415 334 415 b 551 457 432 427 505 441 b 551 457 551 457 551 457 b 552 489 552 474 552 484 b 552 489 552 489 552 489 b 517 594 552 538 541 574 b 517 594 517 594 517 594 b 378 635 486 622 440 635 b 378 635 378 635 378 635 b 252 606 321 635 279 625 b 191 498 224 585 203 549 b 191 498 191 498 191 498 b 71 515 191 498 71 515 b 125 639 82 566 100 607 b 233 711 150 670 186 694 b 396 736 279 728 334 736 b 396 736 396 736 396 736 b 546 715 458 736 507 729 b 631 661 585 701 612 682 b 669 577 649 638 661 610 b 669 577 669 577 669 577 b 675 465 673 556 675 519 b 675 465 675 465 675 465 b 675 302 675 465 675 302 b 683 87 675 189 677 117 b 713 0 688 56 698 28 b 713 0 713 0 713 0 b 586 0 713 0 586 0 b 562 89 573 25 565 55 m 551 317 b 551 361 551 317 551 361 b 352 315 507 343 441 328 b 352 315 352 315 352 315 b 245 291 302 308 267 300 b 197 252 224 282 209 269 b 180 193 186 234 180 214 b 180 193 180 193 180 193 b 218 112 180 161 193 134 b 326 79 242 90 278 79 b 326 79 326 79 326 79 b 451 111 372 79 414 90 b 532 195 488 131 515 159 b 532 195 532 195 532 195 b 551 317 545 222 551 263 b 551 317 551 317 551 317 m 393 1000 b 485 810 393 1000 485 810 b 387 810 485 810 387 810 b 230 1000 387 810 230 1000 b 393 1000 230 1000 393 1000 "},"":{"ha":772,"x_min":0,"x_max":0,"o":"m 562 89 b 562 89 562 89 562 89 b 431 7 516 50 473 23 b 296 -16 389 -8 345 -16 b 296 -16 296 -16 296 -16 b 114 42 217 -16 157 3 b 50 190 71 81 50 130 b 50 190 50 190 50 190 b 75 287 50 225 58 258 b 138 357 90 316 111 339 b 225 397 163 374 193 388 b 225 397 225 397 225 397 b 334 415 249 403 286 409 b 334 415 334 415 334 415 b 551 457 432 427 505 441 b 551 457 551 457 551 457 b 552 489 552 474 552 484 b 552 489 552 489 552 489 b 517 594 552 538 541 574 b 517 594 517 594 517 594 b 378 635 486 622 440 635 b 378 635 378 635 378 635 b 252 606 321 635 279 625 b 191 498 224 585 203 549 b 191 498 191 498 191 498 b 71 515 191 498 71 515 b 125 639 82 566 100 607 b 233 711 150 670 186 694 b 396 736 279 728 334 736 b 396 736 396 736 396 736 b 546 715 458 736 507 729 b 631 661 585 701 612 682 b 669 577 649 638 661 610 b 669 577 669 577 669 577 b 675 465 673 556 675 519 b 675 465 675 465 675 465 b 675 302 675 465 675 302 b 683 87 675 189 677 117 b 713 0 688 56 698 28 b 713 0 713 0 713 0 b 586 0 713 0 586 0 b 562 89 573 25 565 55 m 551 317 b 551 361 551 317 551 361 b 352 315 507 343 441 328 b 352 315 352 315 352 315 b 245 291 302 308 267 300 b 197 252 224 282 209 269 b 180 193 186 234 180 214 b 180 193 180 193 180 193 b 218 112 180 161 193 134 b 326 79 242 90 278 79 b 326 79 326 79 326 79 b 451 111 372 79 414 90 b 532 195 488 131 515 159 b 532 195 532 195 532 195 b 551 317 545 222 551 263 b 551 317 551 317 551 317 m 415 810 b 314 810 415 810 314 810 b 404 1000 314 810 404 1000 b 564 1000 404 1000 564 1000 b 415 810 564 1000 415 810 "},"":{"ha":772,"x_min":0,"x_max":0,"o":"m 562 89 b 562 89 562 89 562 89 b 431 7 516 50 473 23 b 296 -16 389 -8 345 -16 b 296 -16 296 -16 296 -16 b 114 42 217 -16 157 3 b 50 190 71 81 50 130 b 50 190 50 190 50 190 b 75 287 50 225 58 258 b 138 357 90 316 111 339 b 225 397 163 374 193 388 b 225 397 225 397 225 397 b 334 415 249 403 286 409 b 334 415 334 415 334 415 b 551 457 432 427 505 441 b 551 457 551 457 551 457 b 552 489 552 474 552 484 b 552 489 552 489 552 489 b 517 594 552 538 541 574 b 517 594 517 594 517 594 b 378 635 486 622 440 635 b 378 635 378 635 378 635 b 252 606 321 635 279 625 b 191 498 224 585 203 549 b 191 498 191 498 191 498 b 71 515 191 498 71 515 b 125 639 82 566 100 607 b 233 711 150 670 186 694 b 396 736 279 728 334 736 b 396 736 396 736 396 736 b 546 715 458 736 507 729 b 631 661 585 701 612 682 b 669 577 649 638 661 610 b 669 577 669 577 669 577 b 675 465 673 556 675 519 b 675 465 675 465 675 465 b 675 302 675 465 675 302 b 683 87 675 189 677 117 b 713 0 688 56 698 28 b 713 0 713 0 713 0 b 586 0 713 0 586 0 b 562 89 573 25 565 55 m 551 317 b 551 361 551 317 551 361 b 352 315 507 343 441 328 b 352 315 352 315 352 315 b 245 291 302 308 267 300 b 197 252 224 282 209 269 b 180 193 186 234 180 214 b 180 193 180 193 180 193 b 218 112 180 161 193 134 b 326 79 242 90 278 79 b 326 79 326 79 326 79 b 451 111 372 79 414 90 b 532 195 488 131 515 159 b 532 195 532 195 532 195 b 551 317 545 222 551 263 b 551 317 551 317 551 317 m 458 810 b 384 925 458 810 384 925 b 307 810 384 925 307 810 b 168 810 307 810 168 810 b 314 1000 168 810 314 1000 b 444 1000 314 1000 444 1000 b 597 810 444 1000 597 810 b 458 810 597 810 458 810 "},"":{"ha":772,"x_min":0,"x_max":0,"o":"m 562 89 b 562 89 562 89 562 89 b 431 7 516 50 473 23 b 296 -16 389 -8 345 -16 b 296 -16 296 -16 296 -16 b 114 42 217 -16 157 3 b 50 190 71 81 50 130 b 50 190 50 190 50 190 b 75 287 50 225 58 258 b 138 357 90 316 111 339 b 225 397 163 374 193 388 b 225 397 225 397 225 397 b 334 415 249 403 286 409 b 334 415 334 415 334 415 b 551 457 432 427 505 441 b 551 457 551 457 551 457 b 552 489 552 474 552 484 b 552 489 552 489 552 489 b 517 594 552 538 541 574 b 517 594 517 594 517 594 b 378 635 486 622 440 635 b 378 635 378 635 378 635 b 252 606 321 635 279 625 b 191 498 224 585 203 549 b 191 498 191 498 191 498 b 71 515 191 498 71 515 b 125 639 82 566 100 607 b 233 711 150 670 186 694 b 396 736 279 728 334 736 b 396 736 396 736 396 736 b 546 715 458 736 507 729 b 631 661 585 701 612 682 b 669 577 649 638 661 610 b 669 577 669 577 669 577 b 675 465 673 556 675 519 b 675 465 675 465 675 465 b 675 302 675 465 675 302 b 683 87 675 189 677 117 b 713 0 688 56 698 28 b 713 0 713 0 713 0 b 586 0 713 0 586 0 b 562 89 573 25 565 55 m 551 317 b 551 361 551 317 551 361 b 352 315 507 343 441 328 b 352 315 352 315 352 315 b 245 291 302 308 267 300 b 197 252 224 282 209 269 b 180 193 186 234 180 214 b 180 193 180 193 180 193 b 218 112 180 161 193 134 b 326 79 242 90 278 79 b 326 79 326 79 326 79 b 451 111 372 79 414 90 b 532 195 488 131 515 159 b 532 195 532 195 532 195 b 551 317 545 222 551 263 b 551 317 551 317 551 317 m 245 827 b 155 827 245 827 155 827 b 194 939 155 873 168 911 b 194 939 194 939 194 939 b 293 981 220 967 253 981 b 293 981 293 981 293 981 b 408 945 321 981 359 969 b 408 945 408 945 408 945 b 471 924 434 931 456 924 b 471 924 471 924 471 924 b 505 937 486 924 497 928 b 521 983 512 944 517 960 b 521 983 521 983 521 983 b 609 983 521 983 609 983 b 570 867 608 932 595 893 b 476 829 545 842 514 829 b 476 829 476 829 476 829 b 363 867 448 829 410 842 b 363 867 363 867 363 867 b 297 891 333 883 311 891 b 297 891 297 891 297 891 b 260 875 281 891 269 886 b 260 875 260 875 260 875 b 245 827 250 864 245 848 b 245 827 245 827 245 827 "},"":{"ha":772,"x_min":0,"x_max":0,"o":"m 562 89 b 562 89 562 89 562 89 b 431 7 516 50 473 23 b 296 -16 389 -8 345 -16 b 296 -16 296 -16 296 -16 b 114 42 217 -16 157 3 b 50 190 71 81 50 130 b 50 190 50 190 50 190 b 75 287 50 225 58 258 b 138 357 90 316 111 339 b 225 397 163 374 193 388 b 225 397 225 397 225 397 b 334 415 249 403 286 409 b 334 415 334 415 334 415 b 551 457 432 427 505 441 b 551 457 551 457 551 457 b 552 489 552 474 552 484 b 552 489 552 489 552 489 b 517 594 552 538 541 574 b 517 594 517 594 517 594 b 378 635 486 622 440 635 b 378 635 378 635 378 635 b 252 606 321 635 279 625 b 191 498 224 585 203 549 b 191 498 191 498 191 498 b 71 515 191 498 71 515 b 125 639 82 566 100 607 b 233 711 150 670 186 694 b 396 736 279 728 334 736 b 396 736 396 736 396 736 b 546 715 458 736 507 729 b 631 661 585 701 612 682 b 669 577 649 638 661 610 b 669 577 669 577 669 577 b 675 465 673 556 675 519 b 675 465 675 465 675 465 b 675 302 675 465 675 302 b 683 87 675 189 677 117 b 713 0 688 56 698 28 b 713 0 713 0 713 0 b 586 0 713 0 586 0 b 562 89 573 25 565 55 m 551 317 b 551 361 551 317 551 361 b 352 315 507 343 441 328 b 352 315 352 315 352 315 b 245 291 302 308 267 300 b 197 252 224 282 209 269 b 180 193 186 234 180 214 b 180 193 180 193 180 193 b 218 112 180 161 193 134 b 326 79 242 90 278 79 b 326 79 326 79 326 79 b 451 111 372 79 414 90 b 532 195 488 131 515 159 b 532 195 532 195 532 195 b 551 317 545 222 551 263 b 551 317 551 317 551 317 m 319 861 b 192 861 319 861 192 861 b 192 1000 192 861 192 1000 b 319 1000 192 1000 319 1000 b 319 861 319 1000 319 861 m 572 861 b 445 861 572 861 445 861 b 445 1000 445 861 445 1000 b 572 1000 445 1000 572 1000 b 572 861 572 1000 572 861 "},"":{"ha":772,"x_min":0,"x_max":0,"o":"m 562 89 b 562 89 562 89 562 89 b 431 7 516 50 473 23 b 296 -16 389 -8 345 -16 b 296 -16 296 -16 296 -16 b 114 42 217 -16 157 3 b 50 190 71 81 50 130 b 50 190 50 190 50 190 b 75 287 50 225 58 258 b 138 357 90 316 111 339 b 225 397 163 374 193 388 b 225 397 225 397 225 397 b 334 415 249 403 286 409 b 334 415 334 415 334 415 b 551 457 432 427 505 441 b 551 457 551 457 551 457 b 552 489 552 474 552 484 b 552 489 552 489 552 489 b 517 594 552 538 541 574 b 517 594 517 594 517 594 b 378 635 486 622 440 635 b 378 635 378 635 378 635 b 252 606 321 635 279 625 b 191 498 224 585 203 549 b 191 498 191 498 191 498 b 71 515 191 498 71 515 b 125 639 82 566 100 607 b 233 711 150 670 186 694 b 396 736 279 728 334 736 b 396 736 396 736 396 736 b 546 715 458 736 507 729 b 631 661 585 701 612 682 b 669 577 649 638 661 610 b 669 577 669 577 669 577 b 675 465 673 556 675 519 b 675 465 675 465 675 465 b 675 302 675 465 675 302 b 683 87 675 189 677 117 b 713 0 688 56 698 28 b 713 0 713 0 713 0 b 586 0 713 0 586 0 b 562 89 573 25 565 55 m 551 317 b 551 361 551 317 551 361 b 352 315 507 343 441 328 b 352 315 352 315 352 315 b 245 291 302 308 267 300 b 197 252 224 282 209 269 b 180 193 186 234 180 214 b 180 193 180 193 180 193 b 218 112 180 161 193 134 b 326 79 242 90 278 79 b 326 79 326 79 326 79 b 451 111 372 79 414 90 b 532 195 488 131 515 159 b 532 195 532 195 532 195 b 551 317 545 222 551 263 b 551 317 551 317 551 317 m 260 907 b 260 907 260 907 260 907 b 296 993 260 941 272 969 b 382 1029 320 1017 349 1029 b 382 1029 382 1029 382 1029 b 468 993 415 1029 444 1017 b 504 905 492 968 504 939 b 504 905 504 905 504 905 b 468 817 504 870 492 840 b 382 781 444 793 416 781 b 382 781 382 781 382 781 b 296 817 349 781 319 793 b 260 907 272 841 260 871 m 311 907 b 311 907 311 907 311 907 b 333 853 311 886 319 867 b 383 831 347 839 363 831 b 383 831 383 831 383 831 b 434 853 403 831 420 839 b 455 905 448 867 455 885 b 455 905 455 905 455 905 b 434 958 455 926 448 943 b 383 979 420 972 403 979 b 383 979 383 979 383 979 b 333 958 363 979 347 972 b 311 907 319 944 311 926 "},"":{"ha":1235,"x_min":0,"x_max":0,"o":"m 1048 237 b 1176 220 1048 237 1176 220 b 1061 45 1154 145 1115 87 b 859 -16 1006 4 939 -16 b 859 -16 859 -16 859 -16 b 708 16 801 -16 751 -5 b 591 118 665 38 625 72 b 591 118 591 118 591 118 b 448 16 544 72 496 38 b 292 -16 400 -5 348 -16 b 292 -16 292 -16 292 -16 b 111 44 214 -16 154 4 b 46 190 68 84 46 132 b 46 190 46 190 46 190 b 80 300 46 229 58 265 b 174 377 102 334 134 359 b 365 420 214 395 277 409 b 365 420 365 420 365 420 b 536 454 433 429 490 441 b 536 454 536 454 536 454 b 536 481 536 465 536 474 b 536 481 536 481 536 481 b 501 602 536 538 525 578 b 376 635 477 624 435 635 b 376 635 376 635 376 635 b 277 621 337 635 304 631 b 217 581 250 612 230 598 b 184 497 204 564 193 536 b 184 497 184 497 184 497 b 66 511 184 497 66 511 b 121 637 79 564 97 606 b 222 710 144 668 178 692 b 378 736 267 728 319 736 b 378 736 378 736 378 736 b 560 703 453 736 514 725 b 560 703 560 703 560 703 b 627 640 587 690 609 669 b 627 640 627 640 627 640 b 726 712 656 671 689 695 b 859 736 762 728 806 736 b 859 736 859 736 859 736 b 1040 684 932 736 992 719 b 1145 543 1088 648 1123 601 b 1179 370 1168 484 1179 427 b 1179 370 1179 370 1179 370 b 1177 329 1179 361 1178 348 b 1177 329 1177 329 1177 329 b 657 329 1177 329 657 329 b 682 187 658 264 666 216 b 754 114 696 158 721 134 b 863 84 787 94 823 84 b 863 84 863 84 863 84 b 982 124 910 84 949 98 b 1048 237 1014 151 1036 189 b 1048 237 1048 237 1048 237 m 657 429 b 657 429 657 429 657 429 b 1053 429 657 429 1053 429 b 992 586 1047 500 1027 553 b 858 635 958 619 913 635 b 858 635 858 635 858 635 b 718 581 801 635 754 617 b 657 429 682 545 661 494 m 538 361 b 538 361 538 361 538 361 b 319 312 502 346 429 330 b 319 312 319 312 319 312 b 216 277 270 304 235 293 b 216 277 216 277 216 277 b 176 194 189 256 176 229 b 176 194 176 194 176 194 b 212 113 176 162 188 135 b 316 80 235 91 271 80 b 316 80 316 80 316 80 b 452 119 368 80 414 93 b 528 215 491 144 516 176 b 528 215 528 215 528 215 b 538 361 534 239 538 288 "},"":{"ha":694,"x_min":0,"x_max":0,"o":"m 562 264 b 562 264 562 264 562 264 b 682 248 562 264 682 248 b 581 54 669 165 635 101 b 382 -16 527 7 460 -16 b 382 -16 382 -16 382 -16 b 144 81 283 -16 204 16 b 54 357 84 145 54 237 b 54 357 54 357 54 357 b 93 562 54 435 67 503 b 211 693 119 620 158 664 b 382 736 263 722 321 736 b 382 736 382 736 382 736 b 574 677 460 736 525 717 b 670 509 624 637 656 581 b 670 509 670 509 670 509 b 551 490 670 509 551 490 b 492 600 540 538 520 575 b 387 636 463 624 428 636 b 387 636 387 636 387 636 b 237 570 326 636 276 614 b 180 361 199 526 180 456 b 180 361 180 361 180 361 b 235 150 180 264 198 194 b 380 84 273 106 321 84 b 380 84 380 84 380 84 b 500 128 429 84 469 99 b 562 264 532 157 553 203 m 279 -91 b 279 -91 279 -91 279 -91 b 314 29 279 -91 314 29 b 405 29 314 29 405 29 b 382 -43 405 29 382 -43 b 469 -79 421 -48 450 -60 b 498 -143 489 -98 498 -119 b 498 -143 498 -143 498 -143 b 450 -233 498 -177 482 -207 b 302 -272 417 -259 368 -272 b 302 -272 302 -272 302 -272 b 205 -264 265 -272 233 -269 b 205 -264 205 -264 205 -264 b 212 -184 205 -264 212 -184 b 276 -187 241 -186 262 -187 b 276 -187 276 -187 276 -187 b 366 -170 319 -187 349 -181 b 366 -170 366 -170 366 -170 b 385 -136 378 -161 385 -149 b 385 -136 385 -136 385 -136 b 378 -115 385 -128 382 -121 b 349 -98 372 -109 363 -103 b 279 -91 334 -94 311 -92 "},"":{"ha":772,"x_min":0,"x_max":0,"o":"m 585 232 b 585 232 585 232 585 232 b 711 216 585 232 711 216 b 600 45 691 142 654 85 b 394 -16 547 4 477 -16 b 394 -16 394 -16 394 -16 b 144 81 289 -16 205 16 b 51 354 82 146 51 237 b 51 354 51 354 51 354 b 144 636 51 475 82 569 b 387 736 207 703 288 736 b 387 736 387 736 387 736 b 623 638 484 736 562 704 b 715 361 684 572 715 480 b 715 361 715 361 715 361 b 714 329 715 354 715 343 b 714 329 714 329 714 329 b 177 329 714 329 177 329 b 244 147 182 250 204 189 b 395 84 284 105 334 84 b 395 84 395 84 395 84 b 509 119 439 84 477 96 b 585 232 541 143 566 180 m 184 429 b 184 429 184 429 184 429 b 586 429 184 429 586 429 b 540 566 581 490 565 535 b 540 566 540 566 540 566 b 389 636 501 612 450 636 b 389 636 389 636 389 636 b 248 580 332 636 286 617 b 184 429 209 543 188 492 m 374 1000 b 465 810 374 1000 465 810 b 367 810 465 810 367 810 b 210 1000 367 810 210 1000 b 374 1000 210 1000 374 1000 "},"":{"ha":772,"x_min":0,"x_max":0,"o":"m 585 232 b 585 232 585 232 585 232 b 711 216 585 232 711 216 b 600 45 691 142 654 85 b 394 -16 547 4 477 -16 b 394 -16 394 -16 394 -16 b 144 81 289 -16 205 16 b 51 354 82 146 51 237 b 51 354 51 354 51 354 b 144 636 51 475 82 569 b 387 736 207 703 288 736 b 387 736 387 736 387 736 b 623 638 484 736 562 704 b 715 361 684 572 715 480 b 715 361 715 361 715 361 b 714 329 715 354 715 343 b 714 329 714 329 714 329 b 177 329 714 329 177 329 b 244 147 182 250 204 189 b 395 84 284 105 334 84 b 395 84 395 84 395 84 b 509 119 439 84 477 96 b 585 232 541 143 566 180 m 184 429 b 184 429 184 429 184 429 b 586 429 184 429 586 429 b 540 566 581 490 565 535 b 540 566 540 566 540 566 b 389 636 501 612 450 636 b 389 636 389 636 389 636 b 248 580 332 636 286 617 b 184 429 209 543 188 492 m 416 810 b 315 810 416 810 315 810 b 406 1000 315 810 406 1000 b 566 1000 406 1000 566 1000 b 416 810 566 1000 416 810 "},"":{"ha":772,"x_min":0,"x_max":0,"o":"m 585 232 b 585 232 585 232 585 232 b 711 216 585 232 711 216 b 600 45 691 142 654 85 b 394 -16 547 4 477 -16 b 394 -16 394 -16 394 -16 b 144 81 289 -16 205 16 b 51 354 82 146 51 237 b 51 354 51 354 51 354 b 144 636 51 475 82 569 b 387 736 207 703 288 736 b 387 736 387 736 387 736 b 623 638 484 736 562 704 b 715 361 684 572 715 480 b 715 361 715 361 715 361 b 714 329 715 354 715 343 b 714 329 714 329 714 329 b 177 329 714 329 177 329 b 244 147 182 250 204 189 b 395 84 284 105 334 84 b 395 84 395 84 395 84 b 509 119 439 84 477 96 b 585 232 541 143 566 180 m 184 429 b 184 429 184 429 184 429 b 586 429 184 429 586 429 b 540 566 581 490 565 535 b 540 566 540 566 540 566 b 389 636 501 612 450 636 b 389 636 389 636 389 636 b 248 580 332 636 286 617 b 184 429 209 543 188 492 m 459 810 b 385 925 459 810 385 925 b 308 810 385 925 308 810 b 168 810 308 810 168 810 b 315 1000 168 810 315 1000 b 445 1000 315 1000 445 1000 b 597 810 445 1000 597 810 b 459 810 597 810 459 810 "},"":{"ha":772,"x_min":0,"x_max":0,"o":"m 585 232 b 585 232 585 232 585 232 b 711 216 585 232 711 216 b 600 45 691 142 654 85 b 394 -16 547 4 477 -16 b 394 -16 394 -16 394 -16 b 144 81 289 -16 205 16 b 51 354 82 146 51 237 b 51 354 51 354 51 354 b 144 636 51 475 82 569 b 387 736 207 703 288 736 b 387 736 387 736 387 736 b 623 638 484 736 562 704 b 715 361 684 572 715 480 b 715 361 715 361 715 361 b 714 329 715 354 715 343 b 714 329 714 329 714 329 b 177 329 714 329 177 329 b 244 147 182 250 204 189 b 395 84 284 105 334 84 b 395 84 395 84 395 84 b 509 119 439 84 477 96 b 585 232 541 143 566 180 m 184 429 b 184 429 184 429 184 429 b 586 429 184 429 586 429 b 540 566 581 490 565 535 b 540 566 540 566 540 566 b 389 636 501 612 450 636 b 389 636 389 636 389 636 b 248 580 332 636 286 617 b 184 429 209 543 188 492 m 320 861 b 193 861 320 861 193 861 b 193 1000 193 861 193 1000 b 320 1000 193 1000 320 1000 b 320 861 320 1000 320 861 m 573 861 b 446 861 573 861 446 861 b 446 1000 446 861 446 1000 b 573 1000 446 1000 573 1000 b 573 861 573 1000 573 861 "},"":{"ha":386,"x_min":0,"x_max":0,"o":"m 256 0 b 134 0 256 0 134 0 b 134 720 134 0 134 720 b 256 720 134 720 256 720 b 256 0 256 720 256 0 m 187 1000 b 279 810 187 1000 279 810 b 180 810 279 810 180 810 b 24 1000 180 810 24 1000 b 187 1000 24 1000 187 1000 "},"":{"ha":386,"x_min":0,"x_max":0,"o":"m 256 0 b 134 0 256 0 134 0 b 134 720 134 0 134 720 b 256 720 134 720 256 720 b 256 0 256 720 256 0 m 229 810 b 128 810 229 810 128 810 b 218 1000 128 810 218 1000 b 378 1000 218 1000 378 1000 b 229 810 378 1000 229 810 "},"":{"ha":386,"x_min":0,"x_max":0,"o":"m 256 0 b 134 0 256 0 134 0 b 134 720 134 0 134 720 b 256 720 134 720 256 720 b 256 0 256 720 256 0 m 279 810 b 205 925 279 810 205 925 b 128 810 205 925 128 810 b -12 810 128 810 -12 810 b 135 1000 -12 810 135 1000 b 265 1000 135 1000 265 1000 b 418 810 265 1000 418 810 b 279 810 418 810 279 810 "},"":{"ha":386,"x_min":0,"x_max":0,"o":"m 256 0 b 134 0 256 0 134 0 b 134 720 134 0 134 720 b 256 720 134 720 256 720 b 256 0 256 720 256 0 m 134 861 b 6 861 134 861 6 861 b 6 1000 6 861 6 1000 b 134 1000 6 1000 134 1000 b 134 861 134 1000 134 861 m 387 861 b 259 861 387 861 259 861 b 259 1000 259 861 259 1000 b 387 1000 259 1000 387 1000 b 387 861 387 1000 387 861 "},"":{"ha":772,"x_min":0,"x_max":0,"o":"m 209 994 b 209 994 209 994 209 994 b 356 994 209 994 356 994 b 441 925 389 970 417 947 b 441 925 441 925 441 925 b 586 994 441 925 586 994 b 616 925 586 994 616 925 b 500 869 616 925 500 869 b 717 353 644 703 717 530 b 717 353 717 353 717 353 b 623 83 717 239 686 149 b 382 -17 559 16 479 -17 b 382 -17 382 -17 382 -17 b 113 115 267 -17 177 27 b 113 115 113 115 113 115 b 50 351 71 172 50 251 b 50 351 50 351 50 351 b 137 624 50 469 79 559 b 356 720 195 688 269 720 b 356 720 356 720 356 720 b 425 712 382 720 406 718 b 500 680 445 707 470 696 b 500 680 500 680 500 680 b 457 758 484 713 469 739 b 404 825 445 776 427 798 b 404 825 404 825 404 825 b 217 739 404 825 217 739 b 187 808 217 739 187 808 b 349 882 187 808 349 882 b 209 994 305 923 258 960 m 590 359 b 590 359 590 359 590 359 b 529 558 590 446 570 512 b 378 627 488 604 437 627 b 378 627 378 627 378 627 b 232 558 319 627 271 604 b 174 347 193 512 174 441 b 174 347 174 347 174 347 b 234 149 174 260 194 193 b 382 83 273 105 323 83 b 382 83 382 83 382 83 b 530 153 439 83 489 106 b 590 359 570 200 590 269 "},"":{"ha":772,"x_min":0,"x_max":0,"o":"m 214 0 b 92 0 214 0 92 0 b 92 720 92 0 92 720 b 201 720 92 720 201 720 b 201 618 201 720 201 618 b 431 736 254 697 331 736 b 431 736 431 736 431 736 b 551 713 474 736 514 729 b 632 652 587 698 614 677 b 670 562 650 627 663 596 b 670 562 670 562 670 562 b 677 443 675 539 677 499 b 677 443 677 443 677 443 b 677 0 677 443 677 0 b 555 0 677 0 555 0 b 555 438 555 0 555 438 b 541 550 555 488 550 525 b 490 609 531 574 514 594 b 405 631 466 623 437 631 b 405 631 405 631 405 631 b 271 581 353 631 308 614 b 214 393 233 548 214 486 b 214 393 214 393 214 393 b 214 0 214 393 214 0 m 268 827 b 178 827 268 827 178 827 b 216 939 177 873 190 911 b 216 939 216 939 216 939 b 315 981 242 967 275 981 b 315 981 315 981 315 981 b 430 945 343 981 382 969 b 430 945 430 945 430 945 b 494 924 456 931 478 924 b 494 924 494 924 494 924 b 527 937 508 924 519 928 b 543 983 534 944 540 960 b 543 983 543 983 543 983 b 631 983 543 983 631 983 b 593 867 630 932 617 893 b 498 829 568 842 536 829 b 498 829 498 829 498 829 b 386 867 470 829 433 842 b 386 867 386 867 386 867 b 319 891 355 883 334 891 b 319 891 319 891 319 891 b 282 875 304 891 292 886 b 282 875 282 875 282 875 b 268 827 272 864 267 848 b 268 827 268 827 268 827 "},"":{"ha":772,"x_min":0,"x_max":0,"o":"m 46 360 b 46 360 46 360 46 360 b 157 656 46 494 83 592 b 157 656 157 656 157 656 b 384 736 219 710 295 736 b 384 736 384 736 384 736 b 627 640 483 736 564 704 b 721 370 690 574 721 485 b 721 370 721 370 721 370 b 680 152 721 277 707 205 b 558 28 652 98 611 57 b 384 -16 505 -1 447 -16 b 384 -16 384 -16 384 -16 b 140 81 283 -16 201 16 b 46 360 77 145 46 239 m 172 360 b 172 360 172 360 172 360 b 232 153 172 268 192 199 b 384 84 272 107 323 84 b 384 84 384 84 384 84 b 535 153 444 84 495 107 b 595 364 575 199 595 270 b 595 364 595 364 595 364 b 535 567 595 453 575 521 b 384 635 494 612 444 635 b 384 635 384 635 384 635 b 232 567 323 635 272 612 b 172 360 192 522 172 452 m 374 1000 b 466 810 374 1000 466 810 b 368 810 466 810 368 810 b 211 1000 368 810 211 1000 b 374 1000 211 1000 374 1000 "},"":{"ha":772,"x_min":0,"x_max":0,"o":"m 46 360 b 46 360 46 360 46 360 b 157 656 46 494 83 592 b 157 656 157 656 157 656 b 384 736 219 710 295 736 b 384 736 384 736 384 736 b 627 640 483 736 564 704 b 721 370 690 574 721 485 b 721 370 721 370 721 370 b 680 152 721 277 707 205 b 558 28 652 98 611 57 b 384 -16 505 -1 447 -16 b 384 -16 384 -16 384 -16 b 140 81 283 -16 201 16 b 46 360 77 145 46 239 m 172 360 b 172 360 172 360 172 360 b 232 153 172 268 192 199 b 384 84 272 107 323 84 b 384 84 384 84 384 84 b 535 153 444 84 495 107 b 595 364 575 199 595 270 b 595 364 595 364 595 364 b 535 567 595 453 575 521 b 384 635 494 612 444 635 b 384 635 384 635 384 635 b 232 567 323 635 272 612 b 172 360 192 522 172 452 m 417 810 b 316 810 417 810 316 810 b 406 1000 316 810 406 1000 b 566 1000 406 1000 566 1000 b 417 810 566 1000 417 810 "},"":{"ha":772,"x_min":0,"x_max":0,"o":"m 46 360 b 46 360 46 360 46 360 b 157 656 46 494 83 592 b 157 656 157 656 157 656 b 384 736 219 710 295 736 b 384 736 384 736 384 736 b 627 640 483 736 564 704 b 721 370 690 574 721 485 b 721 370 721 370 721 370 b 680 152 721 277 707 205 b 558 28 652 98 611 57 b 384 -16 505 -1 447 -16 b 384 -16 384 -16 384 -16 b 140 81 283 -16 201 16 b 46 360 77 145 46 239 m 172 360 b 172 360 172 360 172 360 b 232 153 172 268 192 199 b 384 84 272 107 323 84 b 384 84 384 84 384 84 b 535 153 444 84 495 107 b 595 364 575 199 595 270 b 595 364 595 364 595 364 b 535 567 595 453 575 521 b 384 635 494 612 444 635 b 384 635 384 635 384 635 b 232 567 323 635 272 612 b 172 360 192 522 172 452 m 460 810 b 385 925 460 810 385 925 b 309 810 385 925 309 810 b 169 810 309 810 169 810 b 315 1000 169 810 315 1000 b 446 1000 315 1000 446 1000 b 598 810 446 1000 598 810 b 460 810 598 810 460 810 "},"":{"ha":772,"x_min":0,"x_max":0,"o":"m 46 360 b 46 360 46 360 46 360 b 157 656 46 494 83 592 b 157 656 157 656 157 656 b 384 736 219 710 295 736 b 384 736 384 736 384 736 b 627 640 483 736 564 704 b 721 370 690 574 721 485 b 721 370 721 370 721 370 b 680 152 721 277 707 205 b 558 28 652 98 611 57 b 384 -16 505 -1 447 -16 b 384 -16 384 -16 384 -16 b 140 81 283 -16 201 16 b 46 360 77 145 46 239 m 172 360 b 172 360 172 360 172 360 b 232 153 172 268 192 199 b 384 84 272 107 323 84 b 384 84 384 84 384 84 b 535 153 444 84 495 107 b 595 364 575 199 595 270 b 595 364 595 364 595 364 b 535 567 595 453 575 521 b 384 635 494 612 444 635 b 384 635 384 635 384 635 b 232 567 323 635 272 612 b 172 360 192 522 172 452 m 247 827 b 157 827 247 827 157 827 b 195 939 156 873 169 911 b 195 939 195 939 195 939 b 294 981 221 967 254 981 b 294 981 294 981 294 981 b 409 945 322 981 361 969 b 409 945 409 945 409 945 b 473 924 435 931 457 924 b 473 924 473 924 473 924 b 506 937 487 924 498 928 b 522 983 513 944 519 960 b 522 983 522 983 522 983 b 610 983 522 983 610 983 b 572 867 609 932 596 893 b 477 829 547 842 515 829 b 477 829 477 829 477 829 b 365 867 449 829 412 842 b 365 867 365 867 365 867 b 298 891 334 883 313 891 b 298 891 298 891 298 891 b 261 875 283 891 271 886 b 261 875 261 875 261 875 b 247 827 251 864 246 848 b 247 827 247 827 247 827 "},"":{"ha":772,"x_min":0,"x_max":0,"o":"m 46 360 b 46 360 46 360 46 360 b 157 656 46 494 83 592 b 157 656 157 656 157 656 b 384 736 219 710 295 736 b 384 736 384 736 384 736 b 627 640 483 736 564 704 b 721 370 690 574 721 485 b 721 370 721 370 721 370 b 680 152 721 277 707 205 b 558 28 652 98 611 57 b 384 -16 505 -1 447 -16 b 384 -16 384 -16 384 -16 b 140 81 283 -16 201 16 b 46 360 77 145 46 239 m 172 360 b 172 360 172 360 172 360 b 232 153 172 268 192 199 b 384 84 272 107 323 84 b 384 84 384 84 384 84 b 535 153 444 84 495 107 b 595 364 575 199 595 270 b 595 364 595 364 595 364 b 535 567 595 453 575 521 b 384 635 494 612 444 635 b 384 635 384 635 384 635 b 232 567 323 635 272 612 b 172 360 192 522 172 452 m 321 861 b 193 861 321 861 193 861 b 193 1000 193 861 193 1000 b 321 1000 193 1000 321 1000 b 321 861 321 1000 321 861 m 574 861 b 446 861 574 861 446 861 b 446 1000 446 861 446 1000 b 574 1000 446 1000 574 1000 b 574 861 574 1000 574 861 "},"":{"ha":762,"x_min":0,"x_max":0,"o":"m 450 625 b 311 625 450 625 311 625 b 311 764 311 625 311 764 b 450 764 311 764 450 764 b 450 625 450 764 450 625 m 709 547 b 709 433 709 547 709 433 b 53 433 709 433 53 433 b 53 547 53 433 53 547 b 709 547 53 547 709 547 m 450 216 b 311 216 450 216 311 216 b 311 355 311 216 311 355 b 450 355 311 355 450 355 b 450 216 450 355 450 216 "},"":{"ha":848,"x_min":0,"x_max":0,"o":"m 623 677 b 623 677 623 677 623 677 b 690 764 623 677 690 764 b 755 717 690 764 755 717 b 683 623 755 717 683 623 b 741 517 711 585 731 549 b 741 517 741 517 741 517 b 762 359 755 472 762 420 b 762 359 762 359 762 359 b 648 60 762 224 724 124 b 648 60 648 60 648 60 b 424 -16 586 9 511 -16 b 424 -16 424 -16 424 -16 b 233 38 352 -16 288 2 b 233 38 233 38 233 38 b 162 -54 233 38 162 -54 b 98 -5 162 -54 98 -5 b 172 90 98 -5 172 90 b 115 182 145 121 126 152 b 115 182 115 182 115 182 b 87 350 96 232 87 288 b 87 350 87 350 87 350 b 187 646 87 486 121 585 b 421 736 254 706 332 736 b 421 736 421 736 421 736 b 524 722 458 736 492 732 b 623 677 555 713 588 698 m 248 190 b 555 588 248 190 555 588 b 425 635 513 620 471 635 b 425 635 425 635 425 635 b 274 566 365 635 315 612 b 213 360 233 520 213 452 b 213 360 213 360 213 360 b 248 190 213 292 224 235 b 248 190 248 190 248 190 m 606 522 b 606 522 606 522 606 522 b 301 127 606 522 301 127 b 420 84 336 98 376 84 b 420 84 420 84 420 84 b 576 153 484 84 535 107 b 637 361 617 199 637 269 b 637 361 637 361 637 361 b 629 451 637 395 635 425 b 629 451 629 451 629 451 b 606 522 626 470 618 494 "},"":{"ha":772,"x_min":0,"x_max":0,"o":"m 673 0 b 564 0 673 0 564 0 b 564 106 564 0 564 106 b 335 -16 507 24 431 -16 b 335 -16 335 -16 335 -16 b 216 8 292 -16 253 -8 b 134 70 179 24 152 45 b 96 160 116 94 104 124 b 96 160 96 160 96 160 b 89 274 92 184 89 222 b 89 274 89 274 89 274 b 89 720 89 274 89 720 b 211 720 89 720 211 720 b 211 321 211 720 211 321 b 218 192 211 257 214 214 b 218 192 218 192 218 192 b 267 117 226 160 242 135 b 359 89 292 98 323 89 b 359 89 359 89 359 89 b 463 117 396 89 431 98 b 531 194 494 136 517 161 b 551 334 544 226 551 273 b 551 334 551 334 551 334 b 551 720 551 334 551 720 b 673 720 551 720 673 720 b 673 0 673 720 673 0 m 402 1000 b 494 810 402 1000 494 810 b 395 810 494 810 395 810 b 239 1000 395 810 239 1000 b 402 1000 239 1000 402 1000 "},"":{"ha":772,"x_min":0,"x_max":0,"o":"m 673 0 b 564 0 673 0 564 0 b 564 106 564 0 564 106 b 335 -16 507 24 431 -16 b 335 -16 335 -16 335 -16 b 216 8 292 -16 253 -8 b 134 70 179 24 152 45 b 96 160 116 94 104 124 b 96 160 96 160 96 160 b 89 274 92 184 89 222 b 89 274 89 274 89 274 b 89 720 89 274 89 720 b 211 720 89 720 211 720 b 211 321 211 720 211 321 b 218 192 211 257 214 214 b 218 192 218 192 218 192 b 267 117 226 160 242 135 b 359 89 292 98 323 89 b 359 89 359 89 359 89 b 463 117 396 89 431 98 b 531 194 494 136 517 161 b 551 334 544 226 551 273 b 551 334 551 334 551 334 b 551 720 551 334 551 720 b 673 720 551 720 673 720 b 673 0 673 720 673 0 m 408 810 b 307 810 408 810 307 810 b 397 1000 307 810 397 1000 b 557 1000 397 1000 557 1000 b 408 810 557 1000 408 810 "},"":{"ha":772,"x_min":0,"x_max":0,"o":"m 673 0 b 564 0 673 0 564 0 b 564 106 564 0 564 106 b 335 -16 507 24 431 -16 b 335 -16 335 -16 335 -16 b 216 8 292 -16 253 -8 b 134 70 179 24 152 45 b 96 160 116 94 104 124 b 96 160 96 160 96 160 b 89 274 92 184 89 222 b 89 274 89 274 89 274 b 89 720 89 274 89 720 b 211 720 89 720 211 720 b 211 321 211 720 211 321 b 218 192 211 257 214 214 b 218 192 218 192 218 192 b 267 117 226 160 242 135 b 359 89 292 98 323 89 b 359 89 359 89 359 89 b 463 117 396 89 431 98 b 531 194 494 136 517 161 b 551 334 544 226 551 273 b 551 334 551 334 551 334 b 551 720 551 334 551 720 b 673 720 551 720 673 720 b 673 0 673 720 673 0 m 457 810 b 382 925 457 810 382 925 b 306 810 382 925 306 810 b 166 810 306 810 166 810 b 313 1000 166 810 313 1000 b 443 1000 313 1000 443 1000 b 595 810 443 1000 595 810 b 457 810 595 810 457 810 "},"":{"ha":772,"x_min":0,"x_max":0,"o":"m 673 0 b 564 0 673 0 564 0 b 564 106 564 0 564 106 b 335 -16 507 24 431 -16 b 335 -16 335 -16 335 -16 b 216 8 292 -16 253 -8 b 134 70 179 24 152 45 b 96 160 116 94 104 124 b 96 160 96 160 96 160 b 89 274 92 184 89 222 b 89 274 89 274 89 274 b 89 720 89 274 89 720 b 211 720 89 720 211 720 b 211 321 211 720 211 321 b 218 192 211 257 214 214 b 218 192 218 192 218 192 b 267 117 226 160 242 135 b 359 89 292 98 323 89 b 359 89 359 89 359 89 b 463 117 396 89 431 98 b 531 194 494 136 517 161 b 551 334 544 226 551 273 b 551 334 551 334 551 334 b 551 720 551 334 551 720 b 673 720 551 720 673 720 b 673 0 673 720 673 0 m 318 861 b 191 861 318 861 191 861 b 191 1000 191 861 191 1000 b 318 1000 191 1000 318 1000 b 318 861 318 1000 318 861 m 571 861 b 444 861 571 861 444 861 b 444 1000 444 861 444 1000 b 571 1000 444 1000 571 1000 b 571 861 571 1000 571 861 "},"":{"ha":694,"x_min":0,"x_max":0,"o":"m 86 -277 b 86 -277 86 -277 86 -277 b 73 -163 86 -277 73 -163 b 142 -174 99 -170 123 -174 b 142 -174 142 -174 142 -174 b 208 -160 170 -174 191 -169 b 248 -122 224 -151 237 -138 b 248 -122 248 -122 248 -122 b 285 -31 255 -110 268 -79 b 285 -31 285 -31 285 -31 b 296 -1 287 -24 291 -14 b 296 -1 296 -1 296 -1 b 22 720 296 -1 22 720 b 154 720 22 720 154 720 b 304 303 154 720 304 303 b 356 136 323 250 340 195 b 356 136 356 136 356 136 b 406 300 370 193 387 247 b 406 300 406 300 406 300 b 560 720 406 300 560 720 b 682 720 560 720 682 720 b 408 -12 682 720 408 -12 b 340 -176 379 -92 356 -146 b 340 -176 340 -176 340 -176 b 265 -264 318 -216 293 -245 b 165 -292 237 -283 203 -292 b 165 -292 165 -292 165 -292 b 86 -277 141 -292 115 -288 m 386 810 b 285 810 386 810 285 810 b 375 1000 285 810 375 1000 b 535 1000 375 1000 535 1000 b 386 810 535 1000 386 810 "},"":{"ha":772,"x_min":0,"x_max":0,"o":"m 214 -276 b 92 -276 214 -276 92 -276 b 92 994 92 -276 92 994 b 214 994 92 994 214 994 b 214 644 214 994 214 644 b 300 713 247 679 275 702 b 300 713 300 713 300 713 b 412 736 333 729 370 736 b 412 736 412 736 412 736 b 574 689 473 736 528 721 b 681 555 621 657 657 613 b 717 366 705 498 717 434 b 717 366 717 366 717 366 b 677 166 717 292 704 225 b 562 31 651 107 612 62 b 404 -16 511 -1 458 -16 b 404 -16 404 -16 404 -16 b 299 6 366 -16 331 -9 b 299 6 299 6 299 6 b 214 75 275 18 246 41 b 214 75 214 75 214 75 b 214 -276 214 75 214 -276 m 202 356 b 202 356 202 356 202 356 b 258 151 202 263 221 195 b 395 84 296 106 341 84 b 395 84 395 84 395 84 b 534 153 449 84 496 107 b 592 366 573 199 592 270 b 592 366 592 366 592 366 b 536 572 592 458 573 527 b 400 641 498 618 452 641 b 400 641 400 641 400 641 b 262 568 348 641 302 616 b 202 356 222 519 202 449 "},"":{"ha":694,"x_min":0,"x_max":0,"o":"m 86 -277 b 86 -277 86 -277 86 -277 b 73 -163 86 -277 73 -163 b 142 -174 99 -170 123 -174 b 142 -174 142 -174 142 -174 b 208 -160 170 -174 191 -169 b 248 -122 224 -151 237 -138 b 248 -122 248 -122 248 -122 b 285 -31 255 -110 268 -79 b 285 -31 285 -31 285 -31 b 296 -1 287 -24 291 -14 b 296 -1 296 -1 296 -1 b 22 720 296 -1 22 720 b 154 720 22 720 154 720 b 304 303 154 720 304 303 b 356 136 323 250 340 195 b 356 136 356 136 356 136 b 406 300 370 193 387 247 b 406 300 406 300 406 300 b 560 720 406 300 560 720 b 682 720 560 720 682 720 b 408 -12 682 720 408 -12 b 340 -176 379 -92 356 -146 b 340 -176 340 -176 340 -176 b 265 -264 318 -216 293 -245 b 165 -292 237 -283 203 -292 b 165 -292 165 -292 165 -292 b 86 -277 141 -292 115 -288 m 292 861 b 165 861 292 861 165 861 b 165 1000 165 861 165 1000 b 292 1000 165 1000 292 1000 b 292 861 292 1000 292 861 m 545 861 b 418 861 545 861 418 861 b 418 1000 418 861 418 1000 b 545 1000 418 1000 545 1000 b 545 861 545 1000 545 861 "},"":{"ha":926,"x_min":0,"x_max":0,"o":"m 138 0 b -2 0 138 0 -2 0 b 380 994 -2 0 380 994 b 522 994 380 994 522 994 b 928 0 522 994 928 0 b 779 0 928 0 779 0 b 663 301 779 0 663 301 b 247 301 663 301 247 301 b 138 0 247 301 138 0 m 394 700 b 285 408 394 700 285 408 b 622 408 285 408 622 408 b 518 684 622 408 518 684 b 448 890 486 767 463 836 b 448 890 448 890 448 890 b 394 700 435 826 417 763 b 394 700 394 700 394 700 m 667 1070 b 243 1070 667 1070 243 1070 b 243 1171 243 1070 243 1171 b 667 1171 243 1171 667 1171 b 667 1070 667 1171 667 1070 "},"":{"ha":772,"x_min":0,"x_max":0,"o":"m 562 89 b 562 89 562 89 562 89 b 431 7 516 50 473 23 b 296 -16 389 -8 345 -16 b 296 -16 296 -16 296 -16 b 114 42 217 -16 157 3 b 50 190 71 81 50 130 b 50 190 50 190 50 190 b 75 287 50 225 58 258 b 138 357 90 316 111 339 b 225 397 163 374 193 388 b 225 397 225 397 225 397 b 334 415 249 403 286 409 b 334 415 334 415 334 415 b 551 457 432 427 505 441 b 551 457 551 457 551 457 b 552 489 552 474 552 484 b 552 489 552 489 552 489 b 517 594 552 538 541 574 b 517 594 517 594 517 594 b 378 635 486 622 440 635 b 378 635 378 635 378 635 b 252 606 321 635 279 625 b 191 498 224 585 203 549 b 191 498 191 498 191 498 b 71 515 191 498 71 515 b 125 639 82 566 100 607 b 233 711 150 670 186 694 b 396 736 279 728 334 736 b 396 736 396 736 396 736 b 546 715 458 736 507 729 b 631 661 585 701 612 682 b 669 577 649 638 661 610 b 669 577 669 577 669 577 b 675 465 673 556 675 519 b 675 465 675 465 675 465 b 675 302 675 465 675 302 b 683 87 675 189 677 117 b 713 0 688 56 698 28 b 713 0 713 0 713 0 b 586 0 713 0 586 0 b 562 89 573 25 565 55 m 551 317 b 551 361 551 317 551 361 b 352 315 507 343 441 328 b 352 315 352 315 352 315 b 245 291 302 308 267 300 b 197 252 224 282 209 269 b 180 193 186 234 180 214 b 180 193 180 193 180 193 b 218 112 180 161 193 134 b 326 79 242 90 278 79 b 326 79 326 79 326 79 b 451 111 372 79 414 90 b 532 195 488 131 515 159 b 532 195 532 195 532 195 b 551 317 545 222 551 263 b 551 317 551 317 551 317 m 609 832 b 186 832 609 832 186 832 b 186 932 186 832 186 932 b 609 932 186 932 609 932 b 609 832 609 932 609 832 "},"":{"ha":926,"x_min":0,"x_max":0,"o":"m 138 0 b -2 0 138 0 -2 0 b 380 994 -2 0 380 994 b 522 994 380 994 522 994 b 928 0 522 994 928 0 b 779 0 928 0 779 0 b 663 301 779 0 663 301 b 247 301 663 301 247 301 b 138 0 247 301 138 0 m 394 700 b 285 408 394 700 285 408 b 622 408 285 408 622 408 b 518 684 622 408 518 684 b 448 890 486 767 463 836 b 448 890 448 890 448 890 b 394 700 435 826 417 763 b 394 700 394 700 394 700 m 578 1231 b 578 1231 578 1231 578 1231 b 661 1231 578 1231 661 1231 b 600 1101 654 1175 634 1131 b 461 1055 565 1070 519 1055 b 461 1055 461 1055 461 1055 b 323 1101 404 1055 357 1070 b 260 1231 288 1131 267 1174 b 260 1231 260 1231 260 1231 b 344 1231 260 1231 344 1231 b 382 1162 350 1200 363 1177 b 457 1139 400 1147 425 1139 b 457 1139 457 1139 457 1139 b 541 1162 494 1139 522 1147 b 578 1231 559 1176 572 1199 "},"":{"ha":772,"x_min":0,"x_max":0,"o":"m 562 89 b 562 89 562 89 562 89 b 431 7 516 50 473 23 b 296 -16 389 -8 345 -16 b 296 -16 296 -16 296 -16 b 114 42 217 -16 157 3 b 50 190 71 81 50 130 b 50 190 50 190 50 190 b 75 287 50 225 58 258 b 138 357 90 316 111 339 b 225 397 163 374 193 388 b 225 397 225 397 225 397 b 334 415 249 403 286 409 b 334 415 334 415 334 415 b 551 457 432 427 505 441 b 551 457 551 457 551 457 b 552 489 552 474 552 484 b 552 489 552 489 552 489 b 517 594 552 538 541 574 b 517 594 517 594 517 594 b 378 635 486 622 440 635 b 378 635 378 635 378 635 b 252 606 321 635 279 625 b 191 498 224 585 203 549 b 191 498 191 498 191 498 b 71 515 191 498 71 515 b 125 639 82 566 100 607 b 233 711 150 670 186 694 b 396 736 279 728 334 736 b 396 736 396 736 396 736 b 546 715 458 736 507 729 b 631 661 585 701 612 682 b 669 577 649 638 661 610 b 669 577 669 577 669 577 b 675 465 673 556 675 519 b 675 465 675 465 675 465 b 675 302 675 465 675 302 b 683 87 675 189 677 117 b 713 0 688 56 698 28 b 713 0 713 0 713 0 b 586 0 713 0 586 0 b 562 89 573 25 565 55 m 551 317 b 551 361 551 317 551 361 b 352 315 507 343 441 328 b 352 315 352 315 352 315 b 245 291 302 308 267 300 b 197 252 224 282 209 269 b 180 193 186 234 180 214 b 180 193 180 193 180 193 b 218 112 180 161 193 134 b 326 79 242 90 278 79 b 326 79 326 79 326 79 b 451 111 372 79 414 90 b 532 195 488 131 515 159 b 532 195 532 195 532 195 b 551 317 545 222 551 263 b 551 317 551 317 551 317 m 515 993 b 515 993 515 993 515 993 b 598 993 515 993 598 993 b 536 863 591 937 571 893 b 398 817 502 832 456 817 b 398 817 398 817 398 817 b 260 863 340 817 294 832 b 197 993 225 892 204 936 b 197 993 197 993 197 993 b 281 993 197 993 281 993 b 319 924 287 962 300 939 b 394 901 337 909 362 901 b 394 901 394 901 394 901 b 477 924 431 901 458 909 b 515 993 496 938 509 961 "},"":{"ha":926,"x_min":0,"x_max":0,"o":"m 138 0 b -2 0 138 0 -2 0 b 380 994 -2 0 380 994 b 522 994 380 994 522 994 b 928 0 522 994 928 0 b 779 0 928 0 779 0 b 663 301 779 0 663 301 b 247 301 663 301 247 301 b 138 0 247 301 138 0 m 394 700 b 285 408 394 700 285 408 b 622 408 285 408 622 408 b 518 684 622 408 518 684 b 448 890 486 767 463 836 b 448 890 448 890 448 890 b 394 700 435 826 417 763 b 394 700 394 700 394 700 m 795 0 b 885 0 795 0 885 0 b 825 -58 859 -16 840 -35 b 804 -130 811 -82 804 -106 b 804 -130 804 -130 804 -130 b 819 -178 804 -149 809 -165 b 870 -197 829 -191 846 -197 b 870 -197 870 -197 870 -197 b 902 -193 880 -197 891 -196 b 932 -181 913 -190 923 -186 b 932 -181 932 -181 932 -181 b 932 -268 932 -181 932 -268 b 840 -292 899 -283 868 -292 b 840 -292 840 -292 840 -292 b 779 -281 817 -292 796 -288 b 736 -254 762 -275 748 -266 b 711 -215 725 -243 716 -230 b 702 -167 705 -200 702 -184 b 702 -167 702 -167 702 -167 b 726 -79 702 -138 710 -109 b 795 0 743 -50 766 -24 b 795 0 795 0 795 0 "},"":{"ha":772,"x_min":0,"x_max":0,"o":"m 562 89 b 562 89 562 89 562 89 b 431 7 516 50 473 23 b 296 -16 389 -8 345 -16 b 296 -16 296 -16 296 -16 b 114 42 217 -16 157 3 b 50 190 71 81 50 130 b 50 190 50 190 50 190 b 75 287 50 225 58 258 b 138 357 90 316 111 339 b 225 397 163 374 193 388 b 225 397 225 397 225 397 b 334 415 249 403 286 409 b 334 415 334 415 334 415 b 551 457 432 427 505 441 b 551 457 551 457 551 457 b 552 489 552 474 552 484 b 552 489 552 489 552 489 b 517 594 552 538 541 574 b 517 594 517 594 517 594 b 378 635 486 622 440 635 b 378 635 378 635 378 635 b 252 606 321 635 279 625 b 191 498 224 585 203 549 b 191 498 191 498 191 498 b 71 515 191 498 71 515 b 125 639 82 566 100 607 b 233 711 150 670 186 694 b 396 736 279 728 334 736 b 396 736 396 736 396 736 b 546 715 458 736 507 729 b 631 661 585 701 612 682 b 669 577 649 638 661 610 b 669 577 669 577 669 577 b 675 465 673 556 675 519 b 675 465 675 465 675 465 b 675 302 675 465 675 302 b 683 87 675 189 677 117 b 713 0 688 56 698 28 b 713 0 713 0 713 0 b 586 0 713 0 586 0 b 562 89 573 25 565 55 m 551 317 b 551 361 551 317 551 361 b 352 315 507 343 441 328 b 352 315 352 315 352 315 b 245 291 302 308 267 300 b 197 252 224 282 209 269 b 180 193 186 234 180 214 b 180 193 180 193 180 193 b 218 112 180 161 193 134 b 326 79 242 90 278 79 b 326 79 326 79 326 79 b 451 111 372 79 414 90 b 532 195 488 131 515 159 b 532 195 532 195 532 195 b 551 317 545 222 551 263 b 551 317 551 317 551 317 m 599 0 b 688 0 599 0 688 0 b 629 -58 663 -16 643 -35 b 607 -130 614 -82 607 -106 b 607 -130 607 -130 607 -130 b 623 -178 607 -149 612 -165 b 673 -197 633 -191 650 -197 b 673 -197 673 -197 673 -197 b 705 -193 684 -197 694 -196 b 735 -181 716 -190 726 -186 b 735 -181 735 -181 735 -181 b 735 -268 735 -181 735 -268 b 643 -292 702 -283 671 -292 b 643 -292 643 -292 643 -292 b 583 -281 620 -292 600 -288 b 540 -254 566 -275 551 -266 b 514 -215 528 -243 519 -230 b 505 -167 508 -200 505 -184 b 505 -167 505 -167 505 -167 b 530 -79 505 -138 513 -109 b 599 0 546 -50 569 -24 b 599 0 599 0 599 0 "},"":{"ha":1003,"x_min":0,"x_max":0,"o":"m 817 349 b 817 349 817 349 817 349 b 948 315 817 349 948 315 b 800 68 920 208 871 125 b 536 -17 728 12 640 -17 b 536 -17 536 -17 536 -17 b 275 49 429 -17 342 5 b 122 238 208 92 157 155 b 69 505 87 321 69 410 b 69 505 69 505 69 505 b 129 776 69 608 89 699 b 298 951 168 852 224 911 b 538 1011 370 991 451 1011 b 538 1011 538 1011 538 1011 b 789 935 638 1011 722 986 b 931 722 857 884 905 813 b 931 722 931 722 931 722 b 802 691 931 722 802 691 b 701 849 779 764 745 816 b 536 899 657 882 602 899 b 536 899 536 899 536 899 b 345 844 459 899 395 880 b 236 696 293 807 257 758 b 205 505 215 635 205 571 b 205 505 205 505 205 505 b 242 284 205 420 217 347 b 357 142 267 221 304 174 b 526 96 409 111 465 96 b 526 96 526 96 526 96 b 713 159 600 96 662 117 b 817 349 764 202 798 265 m 551 1055 b 450 1055 551 1055 450 1055 b 540 1245 450 1055 540 1245 b 700 1245 540 1245 700 1245 b 551 1055 700 1245 551 1055 "},"":{"ha":694,"x_min":0,"x_max":0,"o":"m 562 264 b 562 264 562 264 562 264 b 682 248 562 264 682 248 b 581 54 669 165 635 101 b 382 -16 527 7 460 -16 b 382 -16 382 -16 382 -16 b 144 81 283 -16 204 16 b 54 357 84 145 54 237 b 54 357 54 357 54 357 b 93 562 54 435 67 503 b 211 693 119 620 158 664 b 382 736 263 722 321 736 b 382 736 382 736 382 736 b 574 677 460 736 525 717 b 670 509 624 637 656 581 b 670 509 670 509 670 509 b 551 490 670 509 551 490 b 492 600 540 538 520 575 b 387 636 463 624 428 636 b 387 636 387 636 387 636 b 237 570 326 636 276 614 b 180 361 199 526 180 456 b 180 361 180 361 180 361 b 235 150 180 264 198 194 b 380 84 273 106 321 84 b 380 84 380 84 380 84 b 500 128 429 84 469 99 b 562 264 532 157 553 203 m 389 810 b 288 810 389 810 288 810 b 378 1000 288 810 378 1000 b 538 1000 378 1000 538 1000 b 389 810 538 1000 389 810 "},"":{"ha":1003,"x_min":0,"x_max":0,"o":"m 817 349 b 817 349 817 349 817 349 b 948 315 817 349 948 315 b 800 68 920 208 871 125 b 536 -17 728 12 640 -17 b 536 -17 536 -17 536 -17 b 275 49 429 -17 342 5 b 122 238 208 92 157 155 b 69 505 87 321 69 410 b 69 505 69 505 69 505 b 129 776 69 608 89 699 b 298 951 168 852 224 911 b 538 1011 370 991 451 1011 b 538 1011 538 1011 538 1011 b 789 935 638 1011 722 986 b 931 722 857 884 905 813 b 931 722 931 722 931 722 b 802 691 931 722 802 691 b 701 849 779 764 745 816 b 536 899 657 882 602 899 b 536 899 536 899 536 899 b 345 844 459 899 395 880 b 236 696 293 807 257 758 b 205 505 215 635 205 571 b 205 505 205 505 205 505 b 242 284 205 420 217 347 b 357 142 267 221 304 174 b 526 96 409 111 465 96 b 526 96 526 96 526 96 b 713 159 600 96 662 117 b 817 349 764 202 798 265 m 601 1051 b 526 1166 601 1051 526 1166 b 450 1051 526 1166 450 1051 b 310 1051 450 1051 310 1051 b 456 1241 310 1051 456 1241 b 587 1241 456 1241 587 1241 b 739 1051 587 1241 739 1051 b 601 1051 739 1051 601 1051 "},"":{"ha":694,"x_min":0,"x_max":0,"o":"m 562 264 b 562 264 562 264 562 264 b 682 248 562 264 682 248 b 581 54 669 165 635 101 b 382 -16 527 7 460 -16 b 382 -16 382 -16 382 -16 b 144 81 283 -16 204 16 b 54 357 84 145 54 237 b 54 357 54 357 54 357 b 93 562 54 435 67 503 b 211 693 119 620 158 664 b 382 736 263 722 321 736 b 382 736 382 736 382 736 b 574 677 460 736 525 717 b 670 509 624 637 656 581 b 670 509 670 509 670 509 b 551 490 670 509 551 490 b 492 600 540 538 520 575 b 387 636 463 624 428 636 b 387 636 387 636 387 636 b 237 570 326 636 276 614 b 180 361 199 526 180 456 b 180 361 180 361 180 361 b 235 150 180 264 198 194 b 380 84 273 106 321 84 b 380 84 380 84 380 84 b 500 128 429 84 469 99 b 562 264 532 157 553 203 m 477 810 b 403 925 477 810 403 925 b 326 810 403 925 326 810 b 186 810 326 810 186 810 b 333 1000 186 810 333 1000 b 463 1000 333 1000 463 1000 b 616 810 463 1000 616 810 b 477 810 616 810 477 810 "},"":{"ha":1003,"x_min":0,"x_max":0,"o":"m 817 349 b 817 349 817 349 817 349 b 948 315 817 349 948 315 b 800 68 920 208 871 125 b 536 -17 728 12 640 -17 b 536 -17 536 -17 536 -17 b 275 49 429 -17 342 5 b 122 238 208 92 157 155 b 69 505 87 321 69 410 b 69 505 69 505 69 505 b 129 776 69 608 89 699 b 298 951 168 852 224 911 b 538 1011 370 991 451 1011 b 538 1011 538 1011 538 1011 b 789 935 638 1011 722 986 b 931 722 857 884 905 813 b 931 722 931 722 931 722 b 802 691 931 722 802 691 b 701 849 779 764 745 816 b 536 899 657 882 602 899 b 536 899 536 899 536 899 b 345 844 459 899 395 880 b 236 696 293 807 257 758 b 205 505 215 635 205 571 b 205 505 205 505 205 505 b 242 284 205 420 217 347 b 357 142 267 221 304 174 b 526 96 409 111 465 96 b 526 96 526 96 526 96 b 713 159 600 96 662 117 b 817 349 764 202 798 265 m 600 1081 b 448 1081 600 1081 448 1081 b 448 1233 448 1081 448 1233 b 600 1233 448 1233 600 1233 b 600 1081 600 1233 600 1081 "},"":{"ha":694,"x_min":0,"x_max":0,"o":"m 562 264 b 562 264 562 264 562 264 b 682 248 562 264 682 248 b 581 54 669 165 635 101 b 382 -16 527 7 460 -16 b 382 -16 382 -16 382 -16 b 144 81 283 -16 204 16 b 54 357 84 145 54 237 b 54 357 54 357 54 357 b 93 562 54 435 67 503 b 211 693 119 620 158 664 b 382 736 263 722 321 736 b 382 736 382 736 382 736 b 574 677 460 736 525 717 b 670 509 624 637 656 581 b 670 509 670 509 670 509 b 551 490 670 509 551 490 b 492 600 540 538 520 575 b 387 636 463 624 428 636 b 387 636 387 636 387 636 b 237 570 326 636 276 614 b 180 361 199 526 180 456 b 180 361 180 361 180 361 b 235 150 180 264 198 194 b 380 84 273 106 321 84 b 380 84 380 84 380 84 b 500 128 429 84 469 99 b 562 264 532 157 553 203 m 469 810 b 318 810 469 810 318 810 b 318 962 318 810 318 962 b 469 962 318 962 469 962 b 469 810 469 962 469 810 "},"":{"ha":1003,"x_min":0,"x_max":0,"o":"m 817 349 b 817 349 817 349 817 349 b 948 315 817 349 948 315 b 800 68 920 208 871 125 b 536 -17 728 12 640 -17 b 536 -17 536 -17 536 -17 b 275 49 429 -17 342 5 b 122 238 208 92 157 155 b 69 505 87 321 69 410 b 69 505 69 505 69 505 b 129 776 69 608 89 699 b 298 951 168 852 224 911 b 538 1011 370 991 451 1011 b 538 1011 538 1011 538 1011 b 789 935 638 1011 722 986 b 931 722 857 884 905 813 b 931 722 931 722 931 722 b 802 691 931 722 802 691 b 701 849 779 764 745 816 b 536 899 657 882 602 899 b 536 899 536 899 536 899 b 345 844 459 899 395 880 b 236 696 293 807 257 758 b 205 505 215 635 205 571 b 205 505 205 505 205 505 b 242 284 205 420 217 347 b 357 142 267 221 304 174 b 526 96 409 111 465 96 b 526 96 526 96 526 96 b 713 159 600 96 662 117 b 817 349 764 202 798 265 m 460 1241 b 536 1126 460 1241 536 1126 b 611 1241 536 1126 611 1241 b 749 1241 611 1241 749 1241 b 597 1051 749 1241 597 1051 b 467 1051 597 1051 467 1051 b 320 1241 467 1051 320 1241 b 460 1241 320 1241 460 1241 "},"":{"ha":694,"x_min":0,"x_max":0,"o":"m 562 264 b 562 264 562 264 562 264 b 682 248 562 264 682 248 b 581 54 669 165 635 101 b 382 -16 527 7 460 -16 b 382 -16 382 -16 382 -16 b 144 81 283 -16 204 16 b 54 357 84 145 54 237 b 54 357 54 357 54 357 b 93 562 54 435 67 503 b 211 693 119 620 158 664 b 382 736 263 722 321 736 b 382 736 382 736 382 736 b 574 677 460 736 525 717 b 670 509 624 637 656 581 b 670 509 670 509 670 509 b 551 490 670 509 551 490 b 492 600 540 538 520 575 b 387 636 463 624 428 636 b 387 636 387 636 387 636 b 237 570 326 636 276 614 b 180 361 199 526 180 456 b 180 361 180 361 180 361 b 235 150 180 264 198 194 b 380 84 273 106 321 84 b 380 84 380 84 380 84 b 500 128 429 84 469 99 b 562 264 532 157 553 203 m 304 1000 b 380 884 304 1000 380 884 b 455 1000 380 884 455 1000 b 593 1000 455 1000 593 1000 b 441 810 593 1000 441 810 b 311 810 441 810 311 810 b 164 1000 311 810 164 1000 b 304 1000 164 1000 304 1000 "},"":{"ha":1003,"x_min":0,"x_max":0,"o":"m 466 0 b 107 0 466 0 107 0 b 107 994 107 0 107 994 b 450 994 107 994 450 994 b 627 980 527 994 586 989 b 627 980 627 980 627 980 b 772 909 684 967 732 943 b 772 909 772 909 772 909 b 890 739 825 865 864 808 b 929 503 916 670 929 591 b 929 503 929 503 929 503 b 903 302 929 427 920 360 b 835 157 885 243 863 195 b 745 67 807 119 777 89 b 626 17 711 45 672 28 b 466 0 579 5 526 0 b 466 0 466 0 466 0 m 239 877 b 239 117 239 877 239 117 b 451 117 239 117 451 117 b 606 136 517 117 568 123 b 694 187 643 148 672 165 b 694 187 694 187 694 187 b 768 313 726 218 750 260 b 793 505 785 366 793 429 b 793 505 793 505 793 505 b 743 745 793 608 777 688 b 618 857 708 800 667 838 b 618 857 618 857 618 857 b 448 877 583 870 526 877 b 448 877 448 877 448 877 b 239 877 448 877 239 877 m 351 1241 b 427 1126 351 1241 427 1126 b 502 1241 427 1126 502 1241 b 640 1241 502 1241 640 1241 b 488 1051 640 1241 488 1051 b 357 1051 488 1051 357 1051 b 211 1241 357 1051 211 1241 b 351 1241 211 1241 351 1241 "},"":{"ha":854,"x_min":0,"x_max":0,"o":"m 793 869 b 731 869 793 869 731 869 b 731 994 731 869 731 994 b 856 994 731 994 856 994 b 856 869 856 994 856 869 b 831 758 856 823 848 786 b 754 692 815 730 789 708 b 754 692 754 692 754 692 b 724 739 754 692 724 739 b 775 784 747 749 764 764 b 793 869 786 804 792 831 b 793 869 793 869 793 869 m 673 0 b 559 0 673 0 559 0 b 559 91 559 0 559 91 b 358 -16 514 20 447 -16 b 358 -16 358 -16 358 -16 b 200 31 300 -16 248 -1 b 88 164 152 63 115 107 b 48 359 62 220 48 286 b 48 359 48 359 48 359 b 84 555 48 431 60 496 b 192 690 108 614 144 659 b 353 736 240 721 294 736 b 353 736 353 736 353 736 b 469 709 396 736 435 728 b 551 637 503 691 530 667 b 551 637 551 637 551 637 b 551 994 551 637 551 994 b 673 994 551 994 673 994 b 673 0 673 994 673 0 m 174 359 b 174 359 174 359 174 359 b 232 153 174 267 193 198 b 370 84 271 107 317 84 b 370 84 370 84 370 84 b 506 150 423 84 469 106 b 562 349 543 193 562 260 b 562 349 562 349 562 349 b 505 566 562 448 543 520 b 364 635 467 612 420 635 b 364 635 364 635 364 635 b 229 569 310 635 264 613 b 174 359 192 525 174 455 "},"":{"ha":1003,"x_min":0,"x_max":0,"o":"m 466 0 b 107 0 466 0 107 0 b 107 452 107 0 107 452 b -2 452 107 452 -2 452 b -2 542 -2 452 -2 542 b 107 542 -2 542 107 542 b 107 994 107 542 107 994 b 450 994 107 994 450 994 b 627 980 527 994 586 989 b 627 980 627 980 627 980 b 772 909 684 967 732 943 b 772 909 772 909 772 909 b 890 739 825 865 864 808 b 929 503 916 670 929 591 b 929 503 929 503 929 503 b 881 241 929 401 913 314 b 766 82 849 168 810 115 b 611 12 721 49 669 26 b 611 12 611 12 611 12 b 466 0 579 4 530 0 b 466 0 466 0 466 0 m 239 452 b 239 117 239 452 239 117 b 451 117 239 117 451 117 b 606 136 517 117 568 123 b 694 186 643 148 672 165 b 694 186 694 186 694 186 b 767 312 725 218 749 260 b 793 504 785 364 793 429 b 793 504 793 504 793 504 b 768 690 793 582 785 644 b 699 802 750 737 727 774 b 606 861 671 830 640 850 b 448 877 571 871 519 877 b 448 877 448 877 448 877 b 239 877 448 877 239 877 b 239 542 239 877 239 542 b 513 542 239 542 513 542 b 513 452 513 542 513 452 b 239 452 513 452 239 452 "},"":{"ha":772,"x_min":0,"x_max":0,"o":"m 551 637 b 551 827 551 637 551 827 b 316 827 551 827 316 827 b 316 916 316 827 316 916 b 551 916 316 916 551 916 b 551 994 551 916 551 994 b 672 994 551 994 672 994 b 672 916 672 994 672 916 b 770 916 672 916 770 916 b 770 827 770 916 770 827 b 672 827 770 827 672 827 b 672 0 672 827 672 0 b 559 0 672 0 559 0 b 559 91 559 0 559 91 b 357 -16 513 20 446 -16 b 357 -16 357 -16 357 -16 b 199 31 300 -16 248 -1 b 87 164 151 63 114 107 b 47 359 61 220 47 286 b 47 359 47 359 47 359 b 83 555 47 431 60 496 b 191 690 107 614 143 659 b 352 736 239 721 293 736 b 352 736 352 736 352 736 b 468 709 395 736 434 728 b 551 637 502 691 530 667 b 551 637 551 637 551 637 m 173 359 b 173 359 173 359 173 359 b 231 153 173 267 193 198 b 369 84 270 107 316 84 b 369 84 369 84 369 84 b 505 150 422 84 468 106 b 561 349 543 193 561 260 b 561 349 561 349 561 349 b 504 566 561 448 542 520 b 363 635 466 612 419 635 b 363 635 363 635 363 635 b 228 569 309 635 264 613 b 173 359 191 525 173 455 "},"":{"ha":926,"x_min":0,"x_max":0,"o":"m 852 0 b 110 0 852 0 110 0 b 110 994 110 0 110 994 b 829 994 110 994 829 994 b 829 877 829 994 829 877 b 241 877 829 877 241 877 b 241 572 241 877 241 572 b 791 572 241 572 791 572 b 791 456 791 572 791 456 b 241 456 791 456 241 456 b 241 117 241 456 241 117 b 852 117 241 117 852 117 b 852 0 852 117 852 0 m 704 1078 b 281 1078 704 1078 281 1078 b 281 1178 281 1078 281 1178 b 704 1178 281 1178 704 1178 b 704 1078 704 1178 704 1078 "},"":{"ha":772,"x_min":0,"x_max":0,"o":"m 585 232 b 585 232 585 232 585 232 b 711 216 585 232 711 216 b 600 45 691 142 654 85 b 394 -16 547 4 477 -16 b 394 -16 394 -16 394 -16 b 144 81 289 -16 205 16 b 51 354 82 146 51 237 b 51 354 51 354 51 354 b 144 636 51 475 82 569 b 387 736 207 703 288 736 b 387 736 387 736 387 736 b 623 638 484 736 562 704 b 715 361 684 572 715 480 b 715 361 715 361 715 361 b 714 329 715 354 715 343 b 714 329 714 329 714 329 b 177 329 714 329 177 329 b 244 147 182 250 204 189 b 395 84 284 105 334 84 b 395 84 395 84 395 84 b 509 119 439 84 477 96 b 585 232 541 143 566 180 m 184 429 b 184 429 184 429 184 429 b 586 429 184 429 586 429 b 540 566 581 490 565 535 b 540 566 540 566 540 566 b 389 636 501 612 450 636 b 389 636 389 636 389 636 b 248 580 332 636 286 617 b 184 429 209 543 188 492 m 595 832 b 172 832 595 832 172 832 b 172 932 172 832 172 932 b 595 932 172 932 595 932 b 595 832 595 932 595 832 "},"":{"ha":926,"x_min":0,"x_max":0,"o":"m 852 0 b 110 0 852 0 110 0 b 110 994 110 0 110 994 b 829 994 110 994 829 994 b 829 877 829 994 829 877 b 241 877 829 877 241 877 b 241 572 241 877 241 572 b 791 572 241 572 791 572 b 791 456 791 572 791 456 b 241 456 791 456 241 456 b 241 117 241 456 241 117 b 852 117 241 117 852 117 b 852 0 852 117 852 0 m 595 1238 b 595 1238 595 1238 595 1238 b 678 1238 595 1238 678 1238 b 616 1108 671 1182 651 1139 b 478 1063 582 1078 536 1063 b 478 1063 478 1063 478 1063 b 340 1108 420 1063 374 1078 b 277 1238 305 1138 284 1181 b 277 1238 277 1238 277 1238 b 361 1238 277 1238 361 1238 b 399 1170 367 1208 380 1185 b 474 1147 417 1154 442 1147 b 474 1147 474 1147 474 1147 b 557 1169 511 1147 538 1154 b 595 1238 576 1183 589 1206 "},"":{"ha":772,"x_min":0,"x_max":0,"o":"m 585 232 b 585 232 585 232 585 232 b 711 216 585 232 711 216 b 600 45 691 142 654 85 b 394 -16 547 4 477 -16 b 394 -16 394 -16 394 -16 b 144 81 289 -16 205 16 b 51 354 82 146 51 237 b 51 354 51 354 51 354 b 144 636 51 475 82 569 b 387 736 207 703 288 736 b 387 736 387 736 387 736 b 623 638 484 736 562 704 b 715 361 684 572 715 480 b 715 361 715 361 715 361 b 714 329 715 354 715 343 b 714 329 714 329 714 329 b 177 329 714 329 177 329 b 244 147 182 250 204 189 b 395 84 284 105 334 84 b 395 84 395 84 395 84 b 509 119 439 84 477 96 b 585 232 541 143 566 180 m 184 429 b 184 429 184 429 184 429 b 586 429 184 429 586 429 b 540 566 581 490 565 535 b 540 566 540 566 540 566 b 389 636 501 612 450 636 b 389 636 389 636 389 636 b 248 580 332 636 286 617 b 184 429 209 543 188 492 m 514 993 b 514 993 514 993 514 993 b 597 993 514 993 597 993 b 536 863 591 937 570 893 b 397 817 501 832 455 817 b 397 817 397 817 397 817 b 259 863 340 817 294 832 b 197 993 224 892 203 936 b 197 993 197 993 197 993 b 280 993 197 993 280 993 b 318 924 286 962 299 939 b 393 901 336 909 361 901 b 393 901 393 901 393 901 b 477 924 430 901 458 909 b 514 993 495 938 508 961 "},"":{"ha":926,"x_min":0,"x_max":0,"o":"m 852 0 b 110 0 852 0 110 0 b 110 994 110 0 110 994 b 829 994 110 994 829 994 b 829 877 829 994 829 877 b 241 877 829 877 241 877 b 241 572 241 877 241 572 b 791 572 241 572 791 572 b 791 456 791 572 791 456 b 241 456 791 456 241 456 b 241 117 241 456 241 117 b 852 117 241 117 852 117 b 852 0 852 117 852 0 m 568 1055 b 416 1055 568 1055 416 1055 b 416 1207 416 1055 416 1207 b 568 1207 416 1207 568 1207 b 568 1055 568 1207 568 1055 "},"":{"ha":772,"x_min":0,"x_max":0,"o":"m 585 232 b 585 232 585 232 585 232 b 711 216 585 232 711 216 b 600 45 691 142 654 85 b 394 -16 547 4 477 -16 b 394 -16 394 -16 394 -16 b 144 81 289 -16 205 16 b 51 354 82 146 51 237 b 51 354 51 354 51 354 b 144 636 51 475 82 569 b 387 736 207 703 288 736 b 387 736 387 736 387 736 b 623 638 484 736 562 704 b 715 361 684 572 715 480 b 715 361 715 361 715 361 b 714 329 715 354 715 343 b 714 329 714 329 714 329 b 177 329 714 329 177 329 b 244 147 182 250 204 189 b 395 84 284 105 334 84 b 395 84 395 84 395 84 b 509 119 439 84 477 96 b 585 232 541 143 566 180 m 184 429 b 184 429 184 429 184 429 b 586 429 184 429 586 429 b 540 566 581 490 565 535 b 540 566 540 566 540 566 b 389 636 501 612 450 636 b 389 636 389 636 389 636 b 248 580 332 636 286 617 b 184 429 209 543 188 492 m 476 810 b 325 810 476 810 325 810 b 325 962 325 810 325 962 b 476 962 325 962 476 962 b 476 810 476 962 476 810 "},"":{"ha":926,"x_min":0,"x_max":0,"o":"m 852 0 b 110 0 852 0 110 0 b 110 994 110 0 110 994 b 829 994 110 994 829 994 b 829 877 829 994 829 877 b 241 877 829 877 241 877 b 241 572 241 877 241 572 b 791 572 241 572 791 572 b 791 456 791 572 791 456 b 241 456 791 456 241 456 b 241 117 241 456 241 117 b 852 117 241 117 852 117 b 852 0 852 117 852 0 m 715 0 b 805 0 715 0 805 0 b 745 -58 779 -16 760 -35 b 724 -130 731 -82 724 -106 b 724 -130 724 -130 724 -130 b 739 -178 724 -149 729 -165 b 790 -197 749 -191 766 -197 b 790 -197 790 -197 790 -197 b 822 -193 800 -197 811 -196 b 852 -181 833 -190 843 -186 b 852 -181 852 -181 852 -181 b 852 -268 852 -181 852 -268 b 760 -292 819 -283 788 -292 b 760 -292 760 -292 760 -292 b 699 -281 736 -292 716 -288 b 656 -254 682 -275 668 -266 b 631 -215 645 -243 636 -230 b 622 -167 625 -200 622 -184 b 622 -167 622 -167 622 -167 b 646 -79 622 -138 630 -109 b 715 0 663 -50 686 -24 b 715 0 715 0 715 0 "},"":{"ha":772,"x_min":0,"x_max":0,"o":"m 585 232 b 585 232 585 232 585 232 b 711 216 585 232 711 216 b 600 45 691 142 654 85 b 394 -16 547 4 477 -16 b 394 -16 394 -16 394 -16 b 144 81 289 -16 205 16 b 51 354 82 146 51 237 b 51 354 51 354 51 354 b 144 636 51 475 82 569 b 387 736 207 703 288 736 b 387 736 387 736 387 736 b 623 638 484 736 562 704 b 715 361 684 572 715 480 b 715 361 715 361 715 361 b 714 329 715 354 715 343 b 714 329 714 329 714 329 b 177 329 714 329 177 329 b 244 147 182 250 204 189 b 395 84 284 105 334 84 b 395 84 395 84 395 84 b 509 119 439 84 477 96 b 585 232 541 143 566 180 m 184 429 b 184 429 184 429 184 429 b 586 429 184 429 586 429 b 540 566 581 490 565 535 b 540 566 540 566 540 566 b 389 636 501 612 450 636 b 389 636 389 636 389 636 b 248 580 332 636 286 617 b 184 429 209 543 188 492 m 409 0 b 498 0 409 0 498 0 b 439 -58 473 -16 453 -35 b 417 -130 425 -82 417 -106 b 417 -130 417 -130 417 -130 b 433 -178 417 -149 422 -165 b 484 -197 443 -191 460 -197 b 484 -197 484 -197 484 -197 b 515 -193 494 -197 505 -196 b 545 -181 526 -190 536 -186 b 545 -181 545 -181 545 -181 b 545 -268 545 -181 545 -268 b 453 -292 512 -283 481 -292 b 453 -292 453 -292 453 -292 b 393 -281 430 -292 410 -288 b 350 -254 376 -275 361 -266 b 324 -215 338 -243 330 -230 b 315 -167 318 -200 315 -184 b 315 -167 315 -167 315 -167 b 340 -79 315 -138 323 -109 b 409 0 356 -50 379 -24 b 409 0 409 0 409 0 "},"":{"ha":926,"x_min":0,"x_max":0,"o":"m 852 0 b 110 0 852 0 110 0 b 110 994 110 0 110 994 b 829 994 110 994 829 994 b 829 877 829 994 829 877 b 241 877 829 877 241 877 b 241 572 241 877 241 572 b 791 572 241 572 791 572 b 791 456 791 572 791 456 b 241 456 791 456 241 456 b 241 117 241 456 241 117 b 852 117 241 117 852 117 b 852 0 852 117 852 0 m 375 1241 b 452 1126 375 1241 452 1126 b 526 1241 452 1126 526 1241 b 665 1241 526 1241 665 1241 b 512 1051 665 1241 512 1051 b 382 1051 512 1051 382 1051 b 235 1241 382 1051 235 1241 b 375 1241 235 1241 375 1241 "},"":{"ha":772,"x_min":0,"x_max":0,"o":"m 585 232 b 585 232 585 232 585 232 b 711 216 585 232 711 216 b 600 45 691 142 654 85 b 394 -16 547 4 477 -16 b 394 -16 394 -16 394 -16 b 144 81 289 -16 205 16 b 51 354 82 146 51 237 b 51 354 51 354 51 354 b 144 636 51 475 82 569 b 387 736 207 703 288 736 b 387 736 387 736 387 736 b 623 638 484 736 562 704 b 715 361 684 572 715 480 b 715 361 715 361 715 361 b 714 329 715 354 715 343 b 714 329 714 329 714 329 b 177 329 714 329 177 329 b 244 147 182 250 204 189 b 395 84 284 105 334 84 b 395 84 395 84 395 84 b 509 119 439 84 477 96 b 585 232 541 143 566 180 m 184 429 b 184 429 184 429 184 429 b 586 429 184 429 586 429 b 540 566 581 490 565 535 b 540 566 540 566 540 566 b 389 636 501 612 450 636 b 389 636 389 636 389 636 b 248 580 332 636 286 617 b 184 429 209 543 188 492 m 319 1000 b 395 884 319 1000 395 884 b 470 1000 395 884 470 1000 b 608 1000 470 1000 608 1000 b 456 810 608 1000 456 810 b 326 810 456 810 326 810 b 179 1000 326 810 179 1000 b 319 1000 179 1000 319 1000 "},"":{"ha":1080,"x_min":0,"x_max":0,"o":"m 865 390 b 572 390 865 390 572 390 b 572 507 572 390 572 507 b 994 507 572 507 994 507 b 994 138 994 507 994 138 b 793 22 929 87 862 48 b 582 -17 725 -4 654 -17 b 582 -17 582 -17 582 -17 b 316 46 484 -17 395 4 b 135 227 236 87 176 148 b 74 492 94 307 74 395 b 74 492 74 492 74 492 b 135 764 74 589 94 680 b 309 950 175 847 233 909 b 572 1011 385 991 473 1011 b 572 1011 572 1011 572 1011 b 767 977 644 1011 709 1000 b 903 879 825 953 870 920 b 979 716 937 838 962 783 b 979 716 979 716 979 716 b 860 684 979 716 860 684 b 804 803 845 734 827 774 b 709 873 782 832 751 855 b 572 899 668 890 623 899 b 572 899 572 899 572 899 b 416 871 512 899 460 890 b 311 799 372 853 337 829 b 248 701 283 769 262 736 b 248 701 248 701 248 701 b 210 500 222 639 210 572 b 210 500 210 500 210 500 b 256 278 210 412 225 338 b 389 145 286 218 330 174 b 574 102 447 116 509 102 b 574 102 574 102 574 102 b 741 135 631 102 687 113 b 865 205 795 157 837 180 b 865 205 865 205 865 205 b 865 390 865 205 865 390 m 665 1048 b 590 1163 665 1048 590 1163 b 513 1048 590 1163 513 1048 b 374 1048 513 1048 374 1048 b 520 1238 374 1048 520 1238 b 650 1238 520 1238 650 1238 b 803 1048 650 1238 803 1048 b 665 1048 803 1048 665 1048 "},"":{"ha":772,"x_min":0,"x_max":0,"o":"m 69 -60 b 69 -60 69 -60 69 -60 b 188 -77 69 -60 188 -77 b 229 -157 193 -114 207 -140 b 229 -157 229 -157 229 -157 b 353 -191 260 -180 301 -191 b 353 -191 353 -191 353 -191 b 484 -157 410 -191 454 -180 b 547 -62 515 -135 536 -103 b 547 -62 547 -62 547 -62 b 555 94 553 -37 556 15 b 555 94 555 94 555 94 b 356 0 502 31 435 0 b 356 0 356 0 356 0 b 126 107 257 0 180 36 b 45 364 72 178 45 264 b 45 364 45 364 45 364 b 82 555 45 433 57 496 b 191 689 107 612 143 657 b 357 736 237 721 293 736 b 357 736 357 736 357 736 b 567 633 441 736 512 702 b 567 633 567 633 567 633 b 567 720 567 633 567 720 b 680 720 567 720 680 720 b 680 98 680 720 680 98 b 646 -140 680 -14 668 -94 b 537 -252 623 -187 587 -224 b 354 -292 488 -279 427 -292 b 354 -292 354 -292 354 -292 b 146 -234 268 -292 199 -273 b 69 -60 93 -195 67 -138 m 170 373 b 170 373 170 373 170 373 b 227 166 170 279 189 210 b 368 101 264 123 311 101 b 368 101 368 101 368 101 b 509 166 424 101 471 123 b 566 369 547 209 566 277 b 566 369 566 369 566 369 b 507 568 566 457 546 524 b 366 635 468 613 420 635 b 366 635 366 635 366 635 b 227 570 311 635 265 614 b 170 373 189 526 170 460 m 444 810 b 369 925 444 810 369 925 b 292 810 369 925 292 810 b 153 810 292 810 153 810 b 299 1000 153 810 299 1000 b 429 1000 299 1000 429 1000 b 582 810 429 1000 582 810 b 444 810 582 810 444 810 "},"":{"ha":1080,"x_min":0,"x_max":0,"o":"m 865 390 b 572 390 865 390 572 390 b 572 507 572 390 572 507 b 994 507 572 507 994 507 b 994 138 994 507 994 138 b 793 22 929 87 862 48 b 582 -17 725 -4 654 -17 b 582 -17 582 -17 582 -17 b 316 46 484 -17 395 4 b 135 227 236 87 176 148 b 74 492 94 307 74 395 b 74 492 74 492 74 492 b 135 764 74 589 94 680 b 309 950 175 847 233 909 b 572 1011 385 991 473 1011 b 572 1011 572 1011 572 1011 b 767 977 644 1011 709 1000 b 903 879 825 953 870 920 b 979 716 937 838 962 783 b 979 716 979 716 979 716 b 860 684 979 716 860 684 b 804 803 845 734 827 774 b 709 873 782 832 751 855 b 572 899 668 890 623 899 b 572 899 572 899 572 899 b 416 871 512 899 460 890 b 311 799 372 853 337 829 b 248 701 283 769 262 736 b 248 701 248 701 248 701 b 210 500 222 639 210 572 b 210 500 210 500 210 500 b 256 278 210 412 225 338 b 389 145 286 218 330 174 b 574 102 447 116 509 102 b 574 102 574 102 574 102 b 741 135 631 102 687 113 b 865 205 795 157 837 180 b 865 205 865 205 865 205 b 865 390 865 205 865 390 m 705 1231 b 705 1231 705 1231 705 1231 b 789 1231 705 1231 789 1231 b 727 1101 782 1175 762 1131 b 589 1055 692 1070 646 1055 b 589 1055 589 1055 589 1055 b 450 1101 531 1055 485 1070 b 388 1231 416 1131 395 1174 b 388 1231 388 1231 388 1231 b 471 1231 388 1231 471 1231 b 509 1162 477 1200 490 1177 b 585 1139 528 1147 553 1139 b 585 1139 585 1139 585 1139 b 668 1162 621 1139 649 1147 b 705 1231 686 1176 699 1199 "},"":{"ha":772,"x_min":0,"x_max":0,"o":"m 69 -60 b 69 -60 69 -60 69 -60 b 188 -77 69 -60 188 -77 b 229 -157 193 -114 207 -140 b 229 -157 229 -157 229 -157 b 353 -191 260 -180 301 -191 b 353 -191 353 -191 353 -191 b 484 -157 410 -191 454 -180 b 547 -62 515 -135 536 -103 b 547 -62 547 -62 547 -62 b 555 94 553 -37 556 15 b 555 94 555 94 555 94 b 356 0 502 31 435 0 b 356 0 356 0 356 0 b 126 107 257 0 180 36 b 45 364 72 178 45 264 b 45 364 45 364 45 364 b 82 555 45 433 57 496 b 191 689 107 612 143 657 b 357 736 237 721 293 736 b 357 736 357 736 357 736 b 567 633 441 736 512 702 b 567 633 567 633 567 633 b 567 720 567 633 567 720 b 680 720 567 720 680 720 b 680 98 680 720 680 98 b 646 -140 680 -14 668 -94 b 537 -252 623 -187 587 -224 b 354 -292 488 -279 427 -292 b 354 -292 354 -292 354 -292 b 146 -234 268 -292 199 -273 b 69 -60 93 -195 67 -138 m 170 373 b 170 373 170 373 170 373 b 227 166 170 279 189 210 b 368 101 264 123 311 101 b 368 101 368 101 368 101 b 509 166 424 101 471 123 b 566 369 547 209 566 277 b 566 369 566 369 566 369 b 507 568 566 457 546 524 b 366 635 468 613 420 635 b 366 635 366 635 366 635 b 227 570 311 635 265 614 b 170 373 189 526 170 460 m 503 993 b 503 993 503 993 503 993 b 587 993 503 993 587 993 b 525 863 580 937 559 893 b 387 817 490 832 444 817 b 387 817 387 817 387 817 b 248 863 329 817 283 832 b 186 993 214 892 193 936 b 186 993 186 993 186 993 b 269 993 186 993 269 993 b 307 924 275 962 288 939 b 382 901 326 909 351 901 b 382 901 382 901 382 901 b 466 924 419 901 447 909 b 503 993 484 938 497 961 "},"":{"ha":1080,"x_min":0,"x_max":0,"o":"m 865 390 b 572 390 865 390 572 390 b 572 507 572 390 572 507 b 994 507 572 507 994 507 b 994 138 994 507 994 138 b 793 22 929 87 862 48 b 582 -17 725 -4 654 -17 b 582 -17 582 -17 582 -17 b 316 46 484 -17 395 4 b 135 227 236 87 176 148 b 74 492 94 307 74 395 b 74 492 74 492 74 492 b 135 764 74 589 94 680 b 309 950 175 847 233 909 b 572 1011 385 991 473 1011 b 572 1011 572 1011 572 1011 b 767 977 644 1011 709 1000 b 903 879 825 953 870 920 b 979 716 937 838 962 783 b 979 716 979 716 979 716 b 860 684 979 716 860 684 b 804 803 845 734 827 774 b 709 873 782 832 751 855 b 572 899 668 890 623 899 b 572 899 572 899 572 899 b 416 871 512 899 460 890 b 311 799 372 853 337 829 b 248 701 283 769 262 736 b 248 701 248 701 248 701 b 210 500 222 639 210 572 b 210 500 210 500 210 500 b 256 278 210 412 225 338 b 389 145 286 218 330 174 b 574 102 447 116 509 102 b 574 102 574 102 574 102 b 741 135 631 102 687 113 b 865 205 795 157 837 180 b 865 205 865 205 865 205 b 865 390 865 205 865 390 m 663 1048 b 512 1048 663 1048 512 1048 b 512 1200 512 1048 512 1200 b 663 1200 512 1200 663 1200 b 663 1048 663 1200 663 1048 "},"":{"ha":772,"x_min":0,"x_max":0,"o":"m 69 -60 b 69 -60 69 -60 69 -60 b 188 -77 69 -60 188 -77 b 229 -157 193 -114 207 -140 b 229 -157 229 -157 229 -157 b 353 -191 260 -180 301 -191 b 353 -191 353 -191 353 -191 b 484 -157 410 -191 454 -180 b 547 -62 515 -135 536 -103 b 547 -62 547 -62 547 -62 b 555 94 553 -37 556 15 b 555 94 555 94 555 94 b 356 0 502 31 435 0 b 356 0 356 0 356 0 b 126 107 257 0 180 36 b 45 364 72 178 45 264 b 45 364 45 364 45 364 b 82 555 45 433 57 496 b 191 689 107 612 143 657 b 357 736 237 721 293 736 b 357 736 357 736 357 736 b 567 633 441 736 512 702 b 567 633 567 633 567 633 b 567 720 567 633 567 720 b 680 720 567 720 680 720 b 680 98 680 720 680 98 b 646 -140 680 -14 668 -94 b 537 -252 623 -187 587 -224 b 354 -292 488 -279 427 -292 b 354 -292 354 -292 354 -292 b 146 -234 268 -292 199 -273 b 69 -60 93 -195 67 -138 m 170 373 b 170 373 170 373 170 373 b 227 166 170 279 189 210 b 368 101 264 123 311 101 b 368 101 368 101 368 101 b 509 166 424 101 471 123 b 566 369 547 209 566 277 b 566 369 566 369 566 369 b 507 568 566 457 546 524 b 366 635 468 613 420 635 b 366 635 366 635 366 635 b 227 570 311 635 265 614 b 170 373 189 526 170 460 m 461 810 b 310 810 461 810 310 810 b 310 962 310 810 310 962 b 461 962 310 962 461 962 b 461 810 461 962 461 810 "},"":{"ha":1080,"x_min":0,"x_max":0,"o":"m 865 390 b 572 390 865 390 572 390 b 572 507 572 390 572 507 b 994 507 572 507 994 507 b 994 138 994 507 994 138 b 793 22 929 87 862 48 b 582 -17 725 -4 654 -17 b 582 -17 582 -17 582 -17 b 316 46 484 -17 395 4 b 135 227 236 87 176 148 b 74 492 94 307 74 395 b 74 492 74 492 74 492 b 135 764 74 589 94 680 b 309 950 175 847 233 909 b 572 1011 385 991 473 1011 b 572 1011 572 1011 572 1011 b 767 977 644 1011 709 1000 b 903 879 825 953 870 920 b 979 716 937 838 962 783 b 979 716 979 716 979 716 b 860 684 979 716 860 684 b 804 803 845 734 827 774 b 709 873 782 832 751 855 b 572 899 668 890 623 899 b 572 899 572 899 572 899 b 416 871 512 899 460 890 b 311 799 372 853 337 829 b 248 701 283 769 262 736 b 248 701 248 701 248 701 b 210 500 222 639 210 572 b 210 500 210 500 210 500 b 256 278 210 412 225 338 b 389 145 286 218 330 174 b 574 102 447 116 509 102 b 574 102 574 102 574 102 b 741 135 631 102 687 113 b 865 205 795 157 837 180 b 865 205 865 205 865 205 b 865 390 865 205 865 390 m 580 -217 b 515 -217 580 -217 515 -217 b 515 -98 515 -217 515 -98 b 656 -98 515 -98 656 -98 b 656 -178 656 -98 656 -178 b 631 -300 656 -227 648 -268 b 543 -374 614 -332 585 -357 b 543 -374 543 -374 543 -374 b 506 -317 543 -374 506 -317 b 580 -217 548 -298 572 -265 b 580 -217 580 -217 580 -217 "},"":{"ha":772,"x_min":0,"x_max":0,"o":"m 363 912 b 429 912 363 912 429 912 b 429 793 429 912 429 793 b 287 793 429 793 287 793 b 287 873 287 793 287 873 b 312 996 287 924 295 964 b 401 1069 329 1028 358 1052 b 401 1069 401 1069 401 1069 b 437 1013 401 1069 437 1013 b 363 912 395 995 371 962 b 363 912 363 912 363 912 m 69 -60 b 69 -60 69 -60 69 -60 b 188 -77 69 -60 188 -77 b 353 -191 195 -153 251 -191 b 353 -191 353 -191 353 -191 b 483 -159 408 -191 451 -180 b 543 -77 514 -137 534 -110 b 555 94 551 -45 555 12 b 555 94 555 94 555 94 b 358 0 503 31 437 0 b 358 0 358 0 358 0 b 127 107 258 0 182 36 b 45 363 72 178 45 263 b 45 363 45 363 45 363 b 127 631 45 472 72 562 b 358 736 182 701 258 736 b 358 736 358 736 358 736 b 567 633 442 736 512 702 b 567 633 567 633 567 633 b 567 720 567 633 567 720 b 680 720 567 720 680 720 b 680 98 680 720 680 98 b 648 -133 680 -7 669 -83 b 540 -250 627 -182 591 -221 b 357 -292 488 -278 427 -292 b 357 -292 357 -292 357 -292 b 139 -229 260 -292 187 -271 b 69 -60 91 -186 67 -130 m 170 373 b 170 373 170 373 170 373 b 228 165 170 277 189 208 b 368 101 267 122 313 101 b 368 101 368 101 368 101 b 511 168 426 101 473 123 b 566 372 547 212 566 280 b 566 372 566 372 566 372 b 513 562 566 448 548 512 b 366 635 478 611 429 635 b 366 635 366 635 366 635 b 224 566 307 635 260 612 b 170 373 188 519 170 454 "},"":{"ha":1003,"x_min":0,"x_max":0,"o":"m 243 0 b 111 0 243 0 111 0 b 111 994 111 0 111 994 b 243 994 111 994 243 994 b 243 586 243 994 243 586 b 760 586 243 586 760 586 b 760 994 760 586 760 994 b 891 994 760 994 891 994 b 891 0 891 994 891 0 b 760 0 891 0 760 0 b 760 469 760 0 760 469 b 243 469 760 469 243 469 b 243 0 243 469 243 0 m 600 1055 b 525 1171 600 1055 525 1171 b 448 1055 525 1171 448 1055 b 309 1055 448 1055 309 1055 b 455 1245 309 1055 455 1245 b 585 1245 455 1245 585 1245 b 738 1055 585 1245 738 1055 b 600 1055 738 1055 600 1055 "},"":{"ha":772,"x_min":0,"x_max":0,"o":"m 214 0 b 92 0 214 0 92 0 b 92 994 92 0 92 994 b 214 994 92 994 214 994 b 214 637 214 994 214 637 b 429 736 271 703 342 736 b 429 736 429 736 429 736 b 568 705 483 736 529 726 b 653 618 608 684 636 655 b 678 456 670 581 678 527 b 678 456 678 456 678 456 b 678 0 678 456 678 0 b 556 0 678 0 556 0 b 556 456 556 0 556 456 b 517 590 556 517 543 562 b 404 631 490 618 452 631 b 404 631 404 631 404 631 b 302 604 368 631 334 622 b 234 527 271 585 248 559 b 214 394 220 495 214 450 b 214 394 214 394 214 394 b 214 0 214 394 214 0 m 511 1055 b 437 1171 511 1055 437 1171 b 360 1055 437 1171 360 1055 b 220 1055 360 1055 220 1055 b 367 1245 220 1055 367 1245 b 497 1245 367 1245 497 1245 b 650 1055 497 1245 650 1055 b 511 1055 650 1055 511 1055 "},"":{"ha":1003,"x_min":0,"x_max":0,"o":"m 111 0 b 111 745 111 0 111 745 b 21 745 111 745 21 745 b 21 846 21 745 21 846 b 111 846 21 846 111 846 b 111 994 111 846 111 994 b 243 994 111 994 243 994 b 243 846 243 994 243 846 b 760 846 243 846 760 846 b 760 994 760 846 760 994 b 891 994 760 994 891 994 b 891 846 891 994 891 846 b 981 846 891 846 981 846 b 981 745 981 846 981 745 b 891 745 981 745 891 745 b 891 0 891 745 891 0 b 760 0 891 0 760 0 b 760 469 760 0 760 469 b 243 469 760 469 243 469 b 243 0 243 469 243 0 b 111 0 243 0 111 0 m 760 745 b 243 745 760 745 243 745 b 243 586 243 745 243 586 b 760 586 243 586 760 586 b 760 745 760 586 760 745 "},"":{"ha":772,"x_min":0,"x_max":0,"o":"m 92 0 b 92 813 92 0 92 813 b 4 813 92 813 4 813 b 4 904 4 813 4 904 b 92 904 4 904 92 904 b 92 994 92 904 92 994 b 214 994 92 994 214 994 b 214 904 214 994 214 904 b 463 904 214 904 463 904 b 463 813 463 904 463 813 b 214 813 463 813 214 813 b 214 637 214 813 214 637 b 431 736 269 703 341 736 b 431 736 431 736 431 736 b 601 685 492 736 549 720 b 678 456 652 650 678 574 b 678 456 678 456 678 456 b 678 0 678 456 678 0 b 556 0 678 0 556 0 b 556 456 556 0 556 456 b 404 631 556 573 505 631 b 404 631 404 631 404 631 b 267 577 348 631 302 613 b 214 394 231 541 214 479 b 214 394 214 394 214 394 b 214 0 214 394 214 0 b 92 0 214 0 92 0 "},"":{"ha":386,"x_min":0,"x_max":0,"o":"m 261 0 b 130 0 261 0 130 0 b 130 994 130 0 130 994 b 261 994 130 994 261 994 b 261 0 261 994 261 0 m 47 1072 b -43 1072 47 1072 -43 1072 b -4 1185 -43 1119 -31 1157 b -4 1185 -4 1185 -4 1185 b 95 1227 22 1213 55 1227 b 95 1227 95 1227 95 1227 b 210 1190 123 1227 161 1215 b 210 1190 210 1190 210 1190 b 273 1170 236 1177 258 1170 b 273 1170 273 1170 273 1170 b 307 1182 288 1170 299 1174 b 323 1229 314 1190 319 1205 b 323 1229 323 1229 323 1229 b 411 1229 323 1229 411 1229 b 372 1113 410 1177 397 1139 b 278 1074 347 1087 316 1074 b 278 1074 278 1074 278 1074 b 165 1112 250 1074 212 1087 b 165 1112 165 1112 165 1112 b 99 1137 135 1128 113 1137 b 99 1137 99 1137 99 1137 b 62 1120 83 1137 71 1131 b 62 1120 62 1120 62 1120 b 47 1072 52 1109 47 1093 b 47 1072 47 1072 47 1072 "},"":{"ha":386,"x_min":0,"x_max":0,"o":"m 256 0 b 134 0 256 0 134 0 b 134 720 134 0 134 720 b 256 720 134 720 256 720 b 256 0 256 720 256 0 m 60 827 b -31 827 60 827 -31 827 b 8 939 -31 873 -18 911 b 8 939 8 939 8 939 b 107 981 34 967 67 981 b 107 981 107 981 107 981 b 222 945 135 981 174 969 b 222 945 222 945 222 945 b 286 924 248 931 270 924 b 286 924 286 924 286 924 b 319 937 300 924 311 928 b 335 983 326 944 332 960 b 335 983 335 983 335 983 b 423 983 335 983 423 983 b 385 867 422 932 409 893 b 290 829 359 842 328 829 b 290 829 290 829 290 829 b 178 867 262 829 224 842 b 178 867 178 867 178 867 b 111 891 147 883 125 891 b 111 891 111 891 111 891 b 74 875 96 891 83 886 b 74 875 74 875 74 875 b 60 827 64 864 59 848 b 60 827 60 827 60 827 "},"":{"ha":386,"x_min":0,"x_max":0,"o":"m 261 0 b 130 0 261 0 130 0 b 130 994 130 0 130 994 b 261 994 130 994 261 994 b 261 0 261 994 261 0 m 404 1060 b -19 1060 404 1060 -19 1060 b -19 1160 -19 1060 -19 1160 b 404 1160 -19 1160 404 1160 b 404 1060 404 1160 404 1060 "},"":{"ha":386,"x_min":0,"x_max":0,"o":"m 256 0 b 134 0 256 0 134 0 b 134 720 134 0 134 720 b 256 720 134 720 256 720 b 256 0 256 720 256 0 m 408 832 b -16 832 408 832 -16 832 b -16 932 -16 832 -16 932 b 408 932 -16 932 408 932 b 408 832 408 932 408 832 "},"":{"ha":386,"x_min":0,"x_max":0,"o":"m 261 0 b 130 0 261 0 130 0 b 130 994 130 0 130 994 b 261 994 130 994 261 994 b 261 0 261 994 261 0 m 317 1221 b 317 1221 317 1221 317 1221 b 400 1221 317 1221 400 1221 b 338 1090 393 1164 373 1121 b 200 1045 304 1060 258 1045 b 200 1045 200 1045 200 1045 b 62 1090 142 1045 96 1060 b -1 1221 27 1120 6 1164 b -1 1221 -1 1221 -1 1221 b 83 1221 -1 1221 83 1221 b 121 1152 89 1190 102 1167 b 196 1129 139 1137 164 1129 b 196 1129 196 1129 196 1129 b 279 1152 233 1129 260 1137 b 317 1221 298 1166 311 1189 "},"":{"ha":386,"x_min":0,"x_max":0,"o":"m 256 0 b 134 0 256 0 134 0 b 134 720 134 0 134 720 b 256 720 134 720 256 720 b 256 0 256 720 256 0 m 313 993 b 313 993 313 993 313 993 b 397 993 313 993 397 993 b 335 863 390 937 370 893 b 197 817 300 832 254 817 b 197 817 197 817 197 817 b 58 863 139 817 93 832 b -4 993 24 892 3 936 b -4 993 -4 993 -4 993 b 79 993 -4 993 79 993 b 117 924 85 962 98 939 b 193 901 136 909 161 901 b 193 901 193 901 193 901 b 276 924 229 901 257 909 b 313 993 294 938 307 961 "},"":{"ha":386,"x_min":0,"x_max":0,"o":"m 261 0 b 130 0 261 0 130 0 b 130 994 130 0 130 994 b 261 994 130 994 261 994 b 261 0 261 994 261 0 m 144 0 b 234 0 144 0 234 0 b 174 -58 208 -16 189 -35 b 153 -130 160 -82 153 -106 b 153 -130 153 -130 153 -130 b 168 -178 153 -149 158 -165 b 219 -197 178 -191 195 -197 b 219 -197 219 -197 219 -197 b 251 -193 229 -197 240 -196 b 281 -181 262 -190 272 -186 b 281 -181 281 -181 281 -181 b 281 -268 281 -181 281 -268 b 189 -292 248 -283 217 -292 b 189 -292 189 -292 189 -292 b 128 -281 165 -292 145 -288 b 85 -254 111 -275 97 -266 b 60 -215 74 -243 65 -230 b 51 -167 54 -200 51 -184 b 51 -167 51 -167 51 -167 b 75 -79 51 -138 59 -109 b 144 0 92 -50 115 -24 b 144 0 144 0 144 0 "},"":{"ha":309,"x_min":0,"x_max":0,"o":"m 214 854 b 92 854 214 854 92 854 b 92 994 92 854 92 994 b 214 994 92 994 214 994 b 214 854 214 994 214 854 m 214 0 b 92 0 214 0 92 0 b 92 720 92 0 92 720 b 214 720 92 720 214 720 b 214 0 214 720 214 0 m 111 0 b 200 0 111 0 200 0 b 140 -58 174 -16 155 -35 b 119 -130 126 -82 119 -106 b 119 -130 119 -130 119 -130 b 134 -178 119 -149 124 -165 b 185 -197 144 -191 161 -197 b 185 -197 185 -197 185 -197 b 217 -193 195 -197 206 -196 b 247 -181 228 -190 238 -186 b 247 -181 247 -181 247 -181 b 247 -268 247 -181 247 -268 b 155 -292 214 -283 183 -292 b 155 -292 155 -292 155 -292 b 94 -281 132 -292 111 -288 b 52 -254 77 -275 63 -266 b 26 -215 40 -243 31 -230 b 17 -167 20 -200 17 -184 b 17 -167 17 -167 17 -167 b 41 -79 17 -138 25 -109 b 111 0 58 -50 81 -24 b 111 0 111 0 111 0 "},"":{"ha":386,"x_min":0,"x_max":0,"o":"m 261 0 b 130 0 261 0 130 0 b 130 994 130 0 130 994 b 261 994 130 994 261 994 b 261 0 261 994 261 0 m 271 1055 b 120 1055 271 1055 120 1055 b 120 1207 120 1055 120 1207 b 271 1207 120 1207 271 1207 b 271 1055 271 1207 271 1055 "},"":{"ha":386,"x_min":0,"x_max":0,"o":"m 256 0 b 134 0 256 0 134 0 b 134 720 134 0 134 720 b 256 720 134 720 256 720 b 256 0 256 720 256 0 "},"":{"ha":1021,"x_min":0,"x_max":0,"o":"m 261 0 b 130 0 261 0 130 0 b 130 994 130 0 130 994 b 261 994 130 994 261 994 b 261 0 261 994 261 0 m 403 282 b 403 282 403 282 403 282 b 522 298 403 282 522 298 b 564 142 525 222 539 170 b 669 100 589 115 625 100 b 669 100 669 100 669 100 b 755 123 703 100 731 108 b 804 185 779 138 795 159 b 818 309 813 211 818 252 b 818 309 818 309 818 309 b 818 994 818 309 818 994 b 949 994 818 994 949 994 b 949 317 949 994 949 317 b 920 123 949 233 939 169 b 824 19 899 78 867 43 b 670 -17 780 -5 729 -17 b 670 -17 670 -17 670 -17 b 470 58 583 -17 516 8 b 403 282 423 109 401 183 "},"":{"ha":616,"x_min":0,"x_max":0,"o":"m 214 854 b 92 854 214 854 92 854 b 92 994 92 854 92 994 b 214 994 92 994 214 994 b 214 854 214 994 214 854 m 214 0 b 92 0 214 0 92 0 b 92 720 92 0 92 720 b 214 720 92 720 214 720 b 214 0 214 720 214 0 m 537 852 b 415 852 537 852 415 852 b 415 994 415 852 415 994 b 537 994 415 994 537 994 b 537 852 537 994 537 852 m 260 -279 b 260 -279 260 -279 260 -279 b 283 -176 260 -279 283 -176 b 341 -185 308 -182 327 -185 b 341 -185 341 -185 341 -185 b 397 -160 366 -185 385 -177 b 415 -37 409 -144 415 -102 b 415 -37 415 -37 415 -37 b 415 720 415 -37 415 720 b 537 720 415 720 537 720 b 537 -39 537 720 537 -39 b 503 -224 537 -128 526 -190 b 503 -224 503 -224 503 -224 b 356 -292 473 -270 425 -292 b 356 -292 356 -292 356 -292 b 260 -279 323 -292 291 -288 "},"":{"ha":694,"x_min":0,"x_max":0,"o":"m 40 282 b 40 282 40 282 40 282 b 159 298 40 282 159 298 b 201 142 162 222 176 170 b 307 100 227 115 262 100 b 307 100 307 100 307 100 b 392 123 340 100 368 108 b 441 185 416 138 433 159 b 455 309 450 211 455 252 b 455 309 455 309 455 309 b 455 994 455 309 455 994 b 587 994 455 994 587 994 b 587 317 587 994 587 317 b 557 123 587 233 576 169 b 461 19 536 78 505 43 b 307 -17 417 -5 366 -17 b 307 -17 307 -17 307 -17 b 107 58 220 -17 153 8 b 40 282 60 109 38 183 m 613 1055 b 538 1171 613 1055 538 1171 b 462 1055 538 1171 462 1055 b 322 1055 462 1055 322 1055 b 469 1245 322 1055 469 1245 b 599 1245 469 1245 599 1245 b 751 1055 599 1245 751 1055 b 613 1055 751 1055 613 1055 "},"":{"ha":309,"x_min":0,"x_max":0,"o":"m 231 810 b 156 925 231 810 156 925 b 79 810 156 925 79 810 b -60 810 79 810 -60 810 b 87 1000 -60 810 87 1000 b 217 1000 87 1000 217 1000 b 369 810 217 1000 369 810 b 231 810 369 810 231 810 m -64 -279 b -64 -279 -64 -279 -64 -279 b -41 -176 -64 -279 -41 -176 b 17 -185 -17 -182 2 -185 b 17 -185 17 -185 17 -185 b 75 -157 45 -185 65 -176 b 91 -37 85 -138 91 -98 b 91 -37 91 -37 91 -37 b 91 720 91 -37 91 720 b 213 720 91 720 213 720 b 213 -39 213 720 213 -39 b 174 -233 213 -128 200 -193 b 32 -292 147 -273 100 -292 b 32 -292 32 -292 32 -292 b -64 -279 -1 -292 -33 -288 "},"":{"ha":926,"x_min":0,"x_max":0,"o":"m 233 0 b 102 0 233 0 102 0 b 102 994 102 0 102 994 b 233 994 102 994 233 994 b 233 501 233 994 233 501 b 727 994 233 501 727 994 b 905 994 727 994 905 994 b 488 591 905 994 488 591 b 924 0 488 591 924 0 b 750 0 924 0 750 0 b 396 503 750 0 396 503 b 233 345 396 503 233 345 b 233 0 233 345 233 0 m 471 -217 b 406 -217 471 -217 406 -217 b 406 -98 406 -217 406 -98 b 548 -98 406 -98 548 -98 b 548 -178 548 -98 548 -178 b 523 -300 548 -227 540 -268 b 434 -374 506 -332 477 -357 b 434 -374 434 -374 434 -374 b 397 -317 434 -374 397 -317 b 471 -217 439 -298 464 -265 b 471 -217 471 -217 471 -217 "},"":{"ha":694,"x_min":0,"x_max":0,"o":"m 214 0 b 92 0 214 0 92 0 b 92 994 92 0 92 994 b 214 994 92 994 214 994 b 214 427 214 994 214 427 b 503 720 214 427 503 720 b 661 720 503 720 661 720 b 386 453 661 720 386 453 b 689 0 386 453 689 0 b 538 0 689 0 538 0 b 300 368 538 0 300 368 b 214 286 300 368 214 286 b 214 0 214 286 214 0 m 363 -217 b 298 -217 363 -217 298 -217 b 298 -98 298 -217 298 -98 b 439 -98 298 -98 439 -98 b 439 -178 439 -98 439 -178 b 414 -300 439 -227 431 -268 b 326 -374 397 -332 368 -357 b 326 -374 326 -374 326 -374 b 289 -317 326 -374 289 -317 b 363 -217 331 -298 355 -265 b 363 -217 363 -217 363 -217 "},"":{"ha":694,"x_min":0,"x_max":0,"o":"m 213 0 b 91 0 213 0 91 0 b 91 720 91 0 91 720 b 213 720 91 720 213 720 b 213 427 213 720 213 427 b 502 720 213 427 502 720 b 660 720 502 720 660 720 b 385 453 660 720 385 453 b 688 0 385 453 688 0 b 537 0 688 0 537 0 b 299 368 537 0 299 368 b 213 286 299 368 213 286 b 213 0 213 286 213 0 "},"":{"ha":772,"x_min":0,"x_max":0,"o":"m 723 0 b 102 0 723 0 102 0 b 102 994 102 0 102 994 b 233 994 102 994 233 994 b 233 117 233 994 233 117 b 723 117 233 117 723 117 b 723 0 723 117 723 0 m 307 1055 b 206 1055 307 1055 206 1055 b 296 1245 206 1055 296 1245 b 456 1245 296 1245 456 1245 b 307 1055 456 1245 307 1055 "},"":{"ha":309,"x_min":0,"x_max":0,"o":"m 211 0 b 89 0 211 0 89 0 b 89 994 89 0 89 994 b 211 994 89 994 211 994 b 211 0 211 994 211 0 m 146 1045 b 45 1045 146 1045 45 1045 b 135 1235 45 1045 135 1235 b 295 1235 135 1235 295 1235 b 146 1045 295 1235 146 1045 "},"":{"ha":772,"x_min":0,"x_max":0,"o":"m 723 0 b 102 0 723 0 102 0 b 102 994 102 0 102 994 b 233 994 102 994 233 994 b 233 117 233 994 233 117 b 723 117 233 117 723 117 b 723 0 723 117 723 0 m 417 -217 b 352 -217 417 -217 352 -217 b 352 -98 352 -217 352 -98 b 494 -98 352 -98 494 -98 b 494 -178 494 -98 494 -178 b 469 -300 494 -227 486 -268 b 380 -374 452 -332 422 -357 b 380 -374 380 -374 380 -374 b 343 -317 380 -374 343 -317 b 417 -217 385 -298 410 -265 b 417 -217 417 -217 417 -217 "},"":{"ha":309,"x_min":0,"x_max":0,"o":"m 211 0 b 89 0 211 0 89 0 b 89 994 89 0 89 994 b 211 994 89 994 211 994 b 211 0 211 994 211 0 m 146 -217 b 81 -217 146 -217 81 -217 b 81 -98 81 -217 81 -98 b 222 -98 81 -98 222 -98 b 222 -178 222 -98 222 -178 b 197 -300 222 -227 214 -268 b 109 -374 180 -332 151 -357 b 109 -374 109 -374 109 -374 b 72 -317 109 -374 72 -317 b 146 -217 114 -298 138 -265 b 146 -217 146 -217 146 -217 "},"":{"ha":772,"x_min":0,"x_max":0,"o":"m 552 855 b 483 855 552 855 483 855 b 483 994 483 855 483 994 b 622 994 483 994 622 994 b 622 855 622 994 622 855 b 595 732 622 804 613 763 b 509 659 576 700 548 675 b 509 659 509 659 509 659 b 475 711 509 659 475 711 b 532 761 500 722 519 739 b 552 855 545 783 551 814 b 552 855 552 855 552 855 m 723 0 b 102 0 723 0 102 0 b 102 994 102 0 102 994 b 233 994 102 994 233 994 b 233 117 233 994 233 117 b 723 117 233 117 723 117 b 723 0 723 117 723 0 "},"":{"ha":405,"x_min":0,"x_max":0,"o":"m 341 869 b 279 869 341 869 279 869 b 279 994 279 869 279 994 b 404 994 279 994 404 994 b 404 869 404 994 404 869 b 380 758 404 823 396 786 b 302 692 363 730 338 708 b 302 692 302 692 302 692 b 272 739 302 692 272 739 b 323 784 295 749 312 764 b 341 869 334 804 340 831 b 341 869 341 869 341 869 m 214 0 b 92 0 214 0 92 0 b 92 994 92 0 92 994 b 214 994 92 994 214 994 b 214 0 214 994 214 0 "},"":{"ha":772,"x_min":0,"x_max":0,"o":"m 723 0 b 102 0 723 0 102 0 b 102 994 102 0 102 994 b 233 994 102 994 233 994 b 233 117 233 994 233 117 b 723 117 233 117 723 117 b 723 0 723 117 723 0 m 504 432 b 365 432 504 432 365 432 b 365 571 365 432 365 571 b 504 571 365 571 504 571 b 504 432 504 571 504 432 "}}}
